<svg xmlns="http://www.w3.org/2000/svg" width="35.352" height="35.697" viewBox="0 0 35.352 35.697"><defs><style>.a{fill:#707070;}</style></defs><path class="a" d="M34.508,6.773A3.469,3.469,0,0,0,31.852,5.6H23.919V1.046A1.046,1.046,0,0,0,22.873,0h-5.6a1.046,1.046,0,0,0-1.046,1.046V5.6H6.443L6.188,3.684C5.912,1.618,4.474,0,2.914,0H1.047a1.046,1.046,0,1,0,0,2.092H2.914c.336,0,1.046.709,1.2,1.868L7.108,26.413A4.229,4.229,0,0,0,8.54,29.022a4.322,4.322,0,0,0,2.007,1,3.847,3.847,0,1,0,6.8.076h5.48a3.846,3.846,0,1,0,6.842,0h2.74a1.046,1.046,0,1,0,0-2.092h-21.1a2.245,2.245,0,0,1-2.134-1.869L8.962,24.5H29.611a4.342,4.342,0,0,0,4.208-3.684l1.5-11.251a3.469,3.469,0,0,0-.811-2.788ZM15.684,31.851A1.755,1.755,0,1,1,13.929,30.1,1.757,1.757,0,0,1,15.684,31.851Zm12.322,0A1.755,1.755,0,1,1,26.251,30.1,1.757,1.757,0,0,1,28.006,31.851ZM18.318,2.092h3.509V6.635s0,.008,0,.012,0,.008,0,.012v5.589a1.046,1.046,0,0,0,1.046,1.046h.369l-3.107,3.082-3.107-3.082h.244a1.046,1.046,0,0,0,1.046-1.046ZM33.245,9.284l-1.5,11.251A2.245,2.245,0,0,1,29.611,22.4H8.683L6.722,7.693h9.5V11.2H14.489a1.046,1.046,0,0,0-.736,1.788l5.646,5.6a1.045,1.045,0,0,0,1.473,0l5.646-5.6a1.046,1.046,0,0,0-.736-1.788H23.919V7.693h7.933a1.348,1.348,0,0,1,1.393,1.592Zm0,0" transform="translate(-0.001)"/></svg>