<svg xmlns="http://www.w3.org/2000/svg" width="112.41" height="45.801" viewBox="0 0 112.41 45.801"><defs><style>.a{fill:#fff;}</style></defs><g transform="translate(0)"><path d="M72.148,205.845c-5.6,4.042-5.192,11.41.977,14.743a19.951,19.951,0,0,1-5.43,8.6,4.272,4.272,0,0,1-4.912.644,8.917,8.917,0,0,0-8.059.031,4.159,4.159,0,0,1-4.775-.649c-4.86-4.317-8.267-13.286-6.381-19.775,1.278-4.4,4.906-7.268,9.1-7a11.254,11.254,0,0,1,3.508.944,5.03,5.03,0,0,0,4.274-.022,9.722,9.722,0,0,1,7.495-.655A8.308,8.308,0,0,1,72.148,205.845Z" transform="translate(-43.041 -193.405)"/><path d="M201.183,212.038h-5.24V178.12a3.58,3.58,0,0,1,.637-.118c4.241,0,8.483-.069,12.722.021a10.444,10.444,0,0,1,10.373,8.83c1.053,5.31-1.322,10.52-5.962,12.46a18.675,18.675,0,0,1-5.591,1.133c-2.249.188-4.527.044-6.938.044Zm.013-15.977c2.142,0,4.143.02,6.144-.011a11.967,11.967,0,0,0,2.08-.235c3.074-.6,4.816-2.718,5.065-6.128.24-3.284-1.314-5.872-4.2-6.772-2.978-.93-6.033-.334-9.089-.479Z" transform="translate(-155.83 -175.515)"/><path d="M313.48,237.625h-4.8V233.84a3.809,3.809,0,0,0-.524.41,9.528,9.528,0,0,1-11.628,2.871,6.712,6.712,0,0,1-4.152-6.562,5.9,5.9,0,0,1,4.355-6.033,46.073,46.073,0,0,1,7.178-1.244c1.461-.2,2.948-.206,4.4-.3.636-3.039-.3-5.083-2.623-5.862-2.978-1-5.876.012-7.135,2.437a1.363,1.363,0,0,1-.9.69c-1.3.078-2.608.033-4.028.033A6.933,6.933,0,0,1,296.267,215c3.569-2.95,10.387-3.149,14.165-.436a6.483,6.483,0,0,1,3.007,5.141C313.556,225.639,313.48,231.574,313.48,237.625Zm-5.126-10.965a22.645,22.645,0,0,0-2.405.014,52.915,52.915,0,0,0-6.193.839,2.865,2.865,0,0,0-2.246,3.011,3.192,3.192,0,0,0,2.274,3.032C304.587,235.427,309.1,231.863,308.353,226.66Z" transform="translate(-226.963 -201.096)"/><path d="M405.556,213.76c-1.149,3.216-2.206,6.167-3.259,9.119q-3.033,8.51-6.066,17.019c-.279.78-.585,1.554-.934,2.3-2.238,4.808-5.2,6.03-10.744,5.272v-3.785c.524,0,1.026.006,1.527,0a4.813,4.813,0,0,0,4.452-6.4q-3.991-11.087-7.984-22.174c-.145-.4-.273-.815-.453-1.356,1.681,0,3.25-.057,4.808.045.338.022.805.565.93.958,1.861,5.865,3.673,11.746,5.5,17.622.125.4.277.8.552,1.585.254-.765.4-1.186.535-1.613,1.769-5.711,3.576-11.411,5.271-17.145.356-1.205.9-1.59,2.1-1.479C402.956,213.845,404.139,213.76,405.556,213.76Z" transform="translate(-293.147 -201.881)"/><path d="M107.571,168.6c.716,4.039-3.059,8.452-7.133,8.339C99.442,173.37,103.494,168.633,107.571,168.6Z" transform="translate(-85.267 -168.598)"/><path class="a" d="M215.965,208.444V194.819c3.056.144,6.111-.452,9.089.479,2.884.9,4.439,3.489,4.2,6.772-.249,3.41-1.99,5.532-5.065,6.128a11.969,11.969,0,0,1-2.08.235C220.108,208.464,218.107,208.444,215.965,208.444Z" transform="translate(-170.599 -187.898)"/><path class="a" d="M322.789,265.964c.746,5.2-3.766,8.768-8.571,6.9a3.192,3.192,0,0,1-2.274-3.032,2.864,2.864,0,0,1,2.246-3.011,52.9,52.9,0,0,1,6.193-.839A22.645,22.645,0,0,1,322.789,265.964Z" transform="translate(-241.398 -240.4)"/></g></svg>