<svg xmlns="http://www.w3.org/2000/svg" width="28.896" height="28.895" viewBox="0 0 28.896 28.895"><defs><style>.a{fill:#707070;stroke:#707070;}.a,.b{stroke-width:0.3px;}.b{fill:#06958c;stroke:#06958c;}</style></defs><g transform="translate(0.15 0.15)"><path class="a" d="M25.8,2.457H23.141V1.676a1.676,1.676,0,0,0-3.351,0v.782H10.407V1.676a1.676,1.676,0,0,0-3.351,0v.8a.557.557,0,0,0-.149-.021H4.682A2.8,2.8,0,0,0,1.889,5.25v9.513a.559.559,0,0,0,1.117,0V8.21H23.141a.559.559,0,1,0,0-1.117H3.006V5.25A1.677,1.677,0,0,1,4.682,3.574H6.907a.56.56,0,0,0,.149-.021v.719a1.676,1.676,0,0,0,3.351,0v-.7H19.79v.7a1.676,1.676,0,0,0,3.351,0v-.7H25.8A1.677,1.677,0,0,1,27.479,5.25V26.473a1.006,1.006,0,0,1-2.011,0V25.028a.559.559,0,0,0-.559-.559h-6.5a.559.559,0,1,0,0,1.117H24.35v.886a2.11,2.11,0,0,0,.254,1.006H2.122a1.006,1.006,0,0,1-1.005-1.005v-.887h12.5a.559.559,0,1,0,0-1.117H8.037a4.58,4.58,0,1,0-5.968,0H.559A.559.559,0,0,0,0,25.028v1.445A2.125,2.125,0,0,0,2.122,28.6H26.473A2.125,2.125,0,0,0,28.6,26.473V5.25A2.8,2.8,0,0,0,25.8,2.457ZM9.29,4.273a.559.559,0,0,1-1.117,0v-2.6a.559.559,0,0,1,1.117,0Zm12.734,0a.559.559,0,0,1-1.117,0v-2.6a.559.559,0,0,1,1.117,0ZM1.591,21a3.463,3.463,0,1,1,3.463,3.463A3.467,3.467,0,0,1,1.591,21Z"/><g transform="translate(25.202 7.093)"><path class="a" d="M452.193,127.164a.558.558,0,1,0,.164.395A.563.563,0,0,0,452.193,127.164Z" transform="translate(-451.24 -127)"/></g><g transform="translate(15.726 24.47)"><path class="a" d="M282.533,438.293a.559.559,0,1,0,.164.395A.562.562,0,0,0,282.533,438.293Z" transform="translate(-281.58 -438.13)"/></g><g transform="translate(10.514 16.978)"><path class="a" d="M190.367,304a2.122,2.122,0,1,0,2.122,2.122A2.125,2.125,0,0,0,190.367,304Zm0,3.128a1.005,1.005,0,1,1,1.005-1.005A1.007,1.007,0,0,1,190.367,307.128Z" transform="translate(-188.245 -304)"/></g><g transform="translate(15.726 16.978)"><path class="a" d="M283.7,304a2.122,2.122,0,1,0,2.122,2.122A2.125,2.125,0,0,0,283.7,304Zm0,3.128a1.005,1.005,0,1,1,1.005-1.005A1.007,1.007,0,0,1,283.7,307.128Z" transform="translate(-281.578 -304)"/></g><g transform="translate(20.939 16.978)"><path class="a" d="M377.034,304a2.122,2.122,0,1,0,2.122,2.122A2.125,2.125,0,0,0,377.034,304Zm0,3.128a1.005,1.005,0,1,1,1.005-1.005A1.006,1.006,0,0,1,377.034,307.128Z" transform="translate(-374.912 -304)"/></g><g transform="translate(5.301 11.17)"><path class="b" d="M97.034,200a2.122,2.122,0,1,0,2.122,2.122A2.125,2.125,0,0,0,97.034,200Zm0,3.128a1.005,1.005,0,1,1,1.005-1.005A1.006,1.006,0,0,1,97.034,203.128Z" transform="translate(-94.912 -200)"/></g><g transform="translate(15.726 11.17)"><path class="a" d="M283.7,200a2.122,2.122,0,1,0,2.122,2.122A2.125,2.125,0,0,0,283.7,200Zm0,3.128a1.005,1.005,0,1,1,1.005-1.005A1.007,1.007,0,0,1,283.7,203.128Z" transform="translate(-281.578 -200)"/></g><g transform="translate(20.939 11.17)"><path class="b" d="M377.034,200a2.122,2.122,0,1,0,2.122,2.122A2.125,2.125,0,0,0,377.034,200Zm0,3.128a1.005,1.005,0,1,1,1.005-1.005A1.006,1.006,0,0,1,377.034,203.128Z" transform="translate(-374.912 -200)"/></g><g transform="translate(10.514 11.17)"><path class="a" d="M190.367,200a2.122,2.122,0,1,0,2.122,2.122A2.125,2.125,0,0,0,190.367,200Zm0,3.128a1.005,1.005,0,1,1,1.005-1.005A1.006,1.006,0,0,1,190.367,203.128Z" transform="translate(-188.245 -200)"/></g><g transform="translate(2.859 19.475)"><path class="b" d="M55.378,348.864a.559.559,0,0,0-.79,0l-1.819,1.819-.622-.622a.559.559,0,1,0-.79.79l1.017,1.016a.558.558,0,0,0,.79,0l2.214-2.214A.559.559,0,0,0,55.378,348.864Z" transform="translate(-51.194 -348.7)"/></g></g></svg>