<svg xmlns="http://www.w3.org/2000/svg" width="27.376" height="44.666" viewBox="0 0 27.376 44.666"><defs><style>.a{fill:#707070;}.b{fill:#06958c;}</style></defs><g transform="translate(-104 -8)"><path class="a" d="M130.655,31.774h-2.161V20.247h1.441a.72.72,0,0,0,.72-.72V8.72a.72.72,0,0,0-.72-.72H105.441a.72.72,0,0,0-.72.72V19.527a.72.72,0,0,0,.72.72h1.441V31.774H104.72a.72.72,0,0,0-.72.72v3.6a.72.72,0,0,0,.72.72V51.945a.72.72,0,0,0,.72.72h2.882a.72.72,0,0,0,.72-.72V47.623h17.29v4.322a.72.72,0,0,0,.72.72h2.882a.72.72,0,0,0,.72-.72V36.816a.72.72,0,0,0,.72-.72v-3.6A.72.72,0,0,0,130.655,31.774ZM106.161,18.806V9.441h23.053v9.365Zm20.892,1.441V31.774h-1.441V20.247Zm-2.882,0V31.774H111.2V20.247Zm-14.408,0V31.774h-1.441V20.247ZM107.6,51.225h-1.441V36.816H107.6Zm18.731-5.043h-17.29v-.72h17.29Zm0-2.161h-17.29v-7.2h17.29Zm2.882,7.2h-1.441V36.816h1.441Zm.72-15.849H105.441V33.214h24.494Z"/><circle class="b" cx="1" cy="1" r="1" transform="translate(107 10)"/><circle class="b" cx="1" cy="1" r="1" transform="translate(107 16)"/><circle class="b" cx="1" cy="1" r="1" transform="translate(126 10)"/><circle class="b" cx="1" cy="1" r="1" transform="translate(126 16)"/></g></svg>