<svg xmlns="http://www.w3.org/2000/svg" width="31.539" height="31.55" viewBox="0 0 31.539 31.55"><defs><style>.a{fill:#707070;stroke-width:0.5px;}.a,.b{stroke:#bee4e1;}.b{fill:#06958c;}</style></defs><g transform="translate(0.25 0.25)"><path class="a" d="M21.408,11.909a6.983,6.983,0,0,0,2.227-5.18C23.635,3.02,20.879,0,17.492,0S11.348,3.02,11.348,6.73a7.342,7.342,0,0,0,.137,1.414,5.639,5.639,0,0,0-1.077-.1c-3.388,0-6.144,3.018-6.144,6.728a6.983,6.983,0,0,0,2.227,5.179A11.459,11.459,0,0,0,0,30.506H2.18c0-4.968,3.691-9.01,8.228-9.01,3.388,0,6.144-3.018,6.144-6.728a7.343,7.343,0,0,0-.137-1.414,5.639,5.639,0,0,0,1.077.1,8,8,0,0,1,6.556,3.574l1.477-1.8A10.581,10.581,0,0,0,21.408,11.909Zm-11,7.2a4.17,4.17,0,0,1-3.964-4.341,4.17,4.17,0,0,1,3.964-4.341,4.17,4.17,0,0,1,3.964,4.341A4.17,4.17,0,0,1,10.408,19.108Zm7.084-8.038A4.17,4.17,0,0,1,13.528,6.73a4.17,4.17,0,0,1,3.964-4.341A4.17,4.17,0,0,1,21.456,6.73,4.17,4.17,0,0,1,17.492,11.07Z" transform="translate(0 -0.002)"/><g transform="translate(16.506 19.715)"><path class="b" d="M249.819,299.9l-7.12,7.928-4.018-3.825-1.413,1.485,5.547,5.28,8.53-9.5Z" transform="translate(-237.267 -299.903)"/></g></g></svg>