<svg xmlns="http://www.w3.org/2000/svg" width="351.129" height="359.415" viewBox="0 0 351.129 359.415"><defs><style>.a{fill:#00abf3;}.b{fill:#e7effd;}.c{fill:#fdcec6;}.d{fill:#01aaf1;}.e{fill:#e5edfb;}.f{fill:#f5f5f6;}.g{fill:#eaebec;}.h{fill:#f5f4f6;}.i{fill:#56686e;}.j{fill:#cadefc;}.k{fill:#a77f90;}.l{fill:#e9eaeb;}.m{fill:#fecfc7;}.n{fill:#755d7b;}.o{fill:#e9bbb6;}.p{fill:#8c6279;}.q{fill:#e6e2e5;}.r{fill:#e2dee1;}.s{fill:#f1f1f3;}.t{fill:#f2f4f5;}.u{fill:#a47c8b;}.v{fill:#ad7d8a;}.w{fill:#846078;}.x{fill:#785879;}.y{fill:#ab899b;}.z{fill:#b08a98;}.aa{fill:#925a6e;}.ab{fill:#98687c;}.ac{fill:#ae7d8a;}.ad{fill:#6a3d50;}.ae{fill:#ac8696;}.af{fill:#9f7990;}.ag{fill:#956479;}.ah{fill:#6d7294;}.ai{fill:#8e586e;}.aj{fill:#675475;}.ak{fill:#926073;}.al{fill:#976376;}.am{fill:#97677c;}.an{fill:#68597a;}.ao{fill:#925e74;}.ap{fill:#8a4f64;}.aq{fill:#a4717e;}.ar{fill:#a3717e;}.as{fill:#a1697c;}.at{fill:#895068;}.au{fill:#a98898;}.av{fill:#7f4e69;}.aw{fill:#91596e;}.ax{fill:#8a667d;}.ay{fill:#a47b8e;}.az{fill:#7d506a;}.ba{fill:#996f86;}.bb{fill:#5c4366;}.bc{fill:#685778;}.bd{fill:#e9e9eb;}.be{fill:#a17486;}.bf{fill:#5a5175;}.bg{fill:#9e6273;}.bh{fill:#9c6e82;}.bi{fill:#8b556c;}.bj{fill:#9c7487;}.bk{fill:#00abf2;}.bl{fill:#875c73;}.bm{fill:#74617e;}.bn{fill:#876078;}.bo{fill:#894d63;}.bp{fill:#8b536a;}.bq{fill:#8b546a;}.br{fill:#8c546b;}.bs{fill:#623e4f;}.bt{fill:#855066;}.bu{fill:#855065;}.bv{fill:#9b7385;}.bw{fill:#b292a3;}.bx{fill:#793b52;}.by{fill:#a16777;}.bz{fill:#a87584;}.ca{fill:#9a5f70;}.cb{fill:#b27c88;}.cc{fill:#8d4c60;}.cd{fill:#a97584;}.ce{fill:#8b485d;}.cf{fill:#8e576a;}.cg{fill:#8e4c5f;}.ch{fill:#b0808c;}.ci{fill:#925767;}.cj{fill:#894b5f;}.ck{fill:#01a2e6;}.cl{fill:#8e586f;}.cm{fill:#946276;}.cn{fill:#875368;}.co{fill:#ab7987;}.cp{fill:#986477;}.cq{fill:#6f4567;}.cr{fill:#5d4872;}.cs{fill:#7e3e56;}.ct{fill:#d1c0c8;}.cu{fill:#f7c8c1;}.cv{fill:#506267;}.cw{fill:#ae707a;}.cx{fill:#4d345c;}.cy{fill:#563963;}.cz{fill:#775b77;}.da{fill:#7f3e5a;}.db{fill:#a87d8d;}.dc{fill:#a37988;}.dd{fill:#a27888;}.de{fill:#553c69;}.df{fill:#534170;}.dg{fill:#7f4059;}.dh{fill:#743851;}.di{fill:#086fc6;}.dj{fill:#545a81;}.dk{fill:#fbcbc4;}.dl{fill:#dbe2f0;}.dm{fill:#069ddf;}.dn{fill:#1296d7;}.do{fill:#454d76;}.dp{fill:#ae8796;}.dq{fill:#e6dde1;}.dr{fill:#4b4f79;}.ds{fill:#fbacc3;}.dt{fill:#ae7b87;}.du{fill:#ae6579;}.dv{fill:#f1c4bc;}.dw{fill:#a06575;}.dx{fill:#955466;}.dy{fill:#e8bab5;}.dz{fill:#555479;}.ea{fill:#473d6c;}.eb{fill:#5f4767;}.ec{fill:#3d4a7c;}.ed{fill:#039fe2;}.ee{fill:#ec9fb5;}.ef{fill:#796784;}.eg{fill:#9f6f7d;}.eh{fill:#95536a;}.ei{fill:#a57480;}.ej{fill:#a57582;}.ek{fill:#6e3d4f;}.el{fill:#5b4c57;}.em{fill:#534970;}.en{fill:#66557c;}.eo{fill:#546369;}.ep{fill:#d9e0ee;}.eq{fill:#e7f0fe;}.er{fill:#ab8799;}.es{fill:#a98193;}.et{fill:#9b6b80;}.eu{fill:#a07385;}.ev{fill:#ebbdb7;}.ew{fill:#986475;}.ex{fill:#a06778;}.ey{fill:#884459;}.ez{fill:#4d3f68;}.fa{fill:#f5f5f7;}.fb{fill:#e5edfa;}.fc{fill:#ad8494;}.fd{fill:#935d71;}.fe{fill:#a1576d;}.ff{fill:#c97c94;}.fg{fill:#9c7283;}.fh{fill:#975668;}.fi{fill:#8d5369;}.fj{fill:#843a52;}.fk{fill:#af6f7a;}.fl{fill:#ebbeb8;}.fm{fill:#924c5e;}.fn{fill:#9b5667;}.fo{fill:#8b4458;}.fp{fill:#2294f0;}.fq{fill:#2195f1;}.fr{fill:#d5d8e6;}.fs{fill:#0770c8;}.ft{fill:#e89bb1;}.fu{fill:#645273;}.fv{fill:#524171;}.fw{fill:#514273;}.fx{fill:#4e3d6c;}.fy{fill:#2294ef;}.fz{fill:#2b96ee;}.ga{fill:#208ce3;}.gb{fill:#4f3a63;}.gc{fill:#483c6a;}.gd{fill:#48416d;}.ge{fill:#fccdc6;}.gf{fill:#685271;}.gg{fill:#5e3f62;}.gh{fill:#583d5f;}.gi{fill:#7a4d67;}.gj{fill:#793e57;}.gk{fill:#986f87;}.gl{fill:#805373;}.gm{fill:#facbc4;}.gn{fill:#6c4c6b;}.go{fill:#833f52;}.gp{fill:#e6effd;}.gq{fill:#826489;}.gr{fill:#7e4c6a;}.gs{fill:#fbccc5;}.gt{fill:#f0c3bb;}.gu{fill:#68496b;}.gv{fill:#75465f;}.gw{fill:#894f68;}.gx{fill:#424776;}.gy{fill:#3c4d80;}.gz{fill:#725471;}.ha{fill:#374881;}.hb{fill:#8c4659;}.hc{fill:#7e4a62;}.hd{fill:#82648a;}.he{fill:#9dafdc;}.hf{fill:#9fb5e3;}.hg{fill:#94657b;}.hh{fill:#8c5a74;}.hi{fill:#7f4d6a;}.hj{fill:#7e4763;}.hk{fill:#89526a;}.hl{fill:#8a546c;}.hm{fill:#874f67;}.hn{fill:#885068;}.ho{fill:#dae2f0;}.hp{fill:#885169;}.hq{fill:#91647a;}.hr{fill:#875770;}.hs{fill:#9ab5e3;}.ht{fill:#8d576f;}.hu{fill:#855067;}.hv{fill:#d2cddd;}.hw{fill:#915f76;}.hx{fill:#a57f95;}.hy{fill:#9c6f84;}.hz{fill:#7e5b7a;}.ia{fill:#7c5676;}.ib{fill:#7b5676;}.ic{fill:#755271;}.id{fill:#765271;}.ie{fill:#503f6e;}.if{fill:#814b66;}.ig{fill:#88546e;}.ih{fill:#85526d;}.ii{fill:#784560;}.ij{fill:#7f4865;}.ik{fill:#8d6c8c;}.il{fill:#946d84;}.im{fill:#86789f;}.in{fill:#8a7da5;}.io{fill:#9495bf;}.ip{fill:#a3c1f2;}.iq{fill:#7f4d6b;}.ir{fill:#9db0de;}.is{fill:#7c6083;}.it{fill:#e696af;}.iu{fill:#8d586f;}.iv{fill:#895970;}.iw{fill:#8a526a;}.ix{fill:#c8c3d3;}.iy{fill:#784865;}.iz{fill:#733b57;}.ja{fill:#8c5f76;}.jb{fill:#cac2d3;}.jc{fill:#9fb8e8;}.jd{fill:#97add9;}.je{fill:#8a7aa2;}.jf{fill:#908bb4;}.jg{fill:#a4c4f5;}.jh{fill:#837499;}.ji{fill:#8983aa;}.jj{fill:#7b405b;}.jk{fill:#a4c4f4;}.jl{fill:#8d83ab;}.jm{fill:#8d86af;}.jn{fill:#a3c3f3;}.jo{fill:#8b80a9;}.jp{fill:#8d82aa;}.jq{fill:#8c8eb6;}.jr{fill:#a2c0f0;}.js{fill:#9bb8e6;}</style></defs><g transform="translate(-164.723 -144.513)"><path class="a" d="M164.878,323.051l-.068-.336c.182-3.7-1.69-7-2.075-10.59-.842-4.208-1.4-8.405.187-12.572l.207-4.923a5.9,5.9,0,0,1,2.375-5.281,40.478,40.478,0,0,0,8.89-9.352,25.378,25.378,0,0,1,13.415-8.334c2.923-.25,5.153-1.822,7.181-3.791a9.26,9.26,0,0,1,4.47-2.055c3.743-.194,7.47-.192,11.073,1.1a13.328,13.328,0,0,1,2.292.981,59.091,59.091,0,0,1,6.97,5.281c7.283,6.206,7.459,6.7.99,13.29q-20.072,20.442-40.518,40.513c-2.956,2.913-5.913,6.578-10.94,3.689C167.094,328.57,166.64,325.429,164.878,323.051Z" transform="translate(4.915 79.38)"/><path class="b" d="M202.467,146.765a3.224,3.224,0,0,1,.761.917c1.514,2.453,4.248,3.7,5.913,6.006,1.148,1.662,1.754,3.621,2.913,5.274,1.681,3.166,4.614,2.668,7.439,2.52,5.049.809,5.332,3.864,2.5,6.954-9.377,10.247-18.245,21.34-29.9,28.9-9.891,6.424-20.289,4.02-28.994-4.172-2.989-4.7-.465-8.591,1.832-12.514l4.8-2.77c5.042.314,6.7-1.638,4.248-6.353-2.315-5.317-.973-10.59.121-15.879A15.107,15.107,0,0,1,183,146.706C189.491,144.031,195.983,144.548,202.467,146.765Z" transform="translate(4.804 0.25)"/><path class="c" d="M257.986,326.856l-7.278-3.58c-3.043-2.972-1.478-5.984-.1-9,4.711-5.792,9.254-11.816,17-13.909a6.366,6.366,0,0,1,2.439.031,4.69,4.69,0,0,1,1.781,1.443c.958,1.511,1.963,2.994,3.753,3.682,2.133.832,4.39.722,6.611.917a21,21,0,0,1,3.641.617c2.936,1.029,5.991.8,9.021.879,3.384.1,6.654.533,9.256,3.02,2.822,3.06,1.953,6.037-.482,8.7-3.781,4.132-7.2,8.738-12.715,10.878-8.215,1.117-16.448.789-24.684.3C263.464,329.552,260.261,329.164,257.986,326.856Z" transform="translate(61.92 102)"/><path class="d" d="M246.056,363.109l-4.379,5.714a21.286,21.286,0,0,1-4.169,1.614,100.815,100.815,0,0,1-23.594.678c-6.578-.467-8.144-3.351-4.069-7.958a388.181,388.181,0,0,1,32.777-32.795c4.3-3.826,7.172-2.335,7.843,3.24.291,2.413-.516,4.819-.367,7.247a21.785,21.785,0,0,1-.927,6.891C248.165,352.867,247.14,357.994,246.056,363.109Z" transform="translate(34.841 120.319)"/><path class="e" d="M226.738,184.648l-1.279,1.614c-2.161,2.193-4.334,4.366-7.738,4.344-7.91.141-15.849.495-23.731-.136-7.007-.561-8.539-4.132-4.126-9.67a141.251,141.251,0,0,1,17.3-17.538c5.977-5.274,7.934-4.549,11.679,3.3,1.028,1.721,2.845,2.246,4.536,2.964a12.5,12.5,0,0,1,4.318,6.927A10.436,10.436,0,0,1,226.738,184.648Z" transform="translate(21.595 10.06)"/><path class="b" d="M234.129,173.646c-5.14-8.859-5.14-8.859-13.247-.755-3.424,3.424-7.022,6.7-10.209,10.328-2.047,2.332-6.671,3.95-5.09,7.606,1.3,3,5.476,1.233,8.352,1.355,6.648.285,13.309.243,19.963.333a2.419,2.419,0,0,1-1.387,2.737c-10.507,1.481-21.075.321-31.608.707-4.945.238-9.862,1.072-14.838.758-6.856-1.281-14.5,1.023-20.438-4.455l-1.6-1.375a2.879,2.879,0,0,1-.109-4.064c13.29,8.855,22.265,7.945,33.644-3.422,7.063-7.055,14.076-14.158,21.194-21.156,3.035-2.984,3.925-4.925-1.675-4.7a1.787,1.787,0,0,1,.194-2.552c4.283-2.664,8.4-.819,12.549.437a9.138,9.138,0,0,1,4.336,3.55C235.261,163.864,236.312,168.759,234.129,173.646Z" transform="translate(5.712 5.971)"/><path class="f" d="M217.876,199.3l1.9-3.712a20.508,20.508,0,0,0,8.693-5.421l2.466-2.318c4.131-2.259,8.283-5,12.089.516,2.127,9.262,6.217,18.28,3.661,28.153a3.078,3.078,0,0,1-2.284,1.6c-10.94-7.652-23.357-9.072-36.242-8.5a3.966,3.966,0,0,1-1.781-1.94,3.71,3.71,0,0,1,1.62-3.376C211.061,202.2,214.1,200.015,217.876,199.3Z" transform="translate(34.024 26.604)"/><path class="g" d="M220.539,198.537c-.008.49-.022.981-.036,1.473-3.255,6.924-10.547,9.805-15.27,15.266-4.784,1.805-7.225,6.287-10.825,9.444-1.809,1.587-3.441,5.084-6.409,1.286l-2.211-3.515q-.007-.606-.017-1.211c.06-2.441-.27-4.932.917-7.235a24.535,24.535,0,0,1,6.739-7.328c3.052-2.155,1.623-4.462,1.218-6.878l1.819-1.693C204.48,198.782,212.539,196.826,220.539,198.537Z" transform="translate(20.54 34.908)"/><path class="h" d="M188.457,219.424c5.018,1.1,4.693-4.711,7.884-6.1,2.985-1.3,3.571-6.391,8.173-5.309,2.515,8.2.905,16.33-.336,24.474-1.117,2.53-3.633,3.272-5.767,4.5-3.33,1.44-6.469,4.288-10.411,1.5a7.835,7.835,0,0,1,.066-1.061c-3.861-5.261-4.142-10.51.058-15.743Z" transform="translate(20.082 41.491)"/><path class="i" d="M231.572,217.626l-3.866-29.406c-.253-1.7.771-2.524,2.136-3.119,4.773-1.125,8.078,1.19,10.884,4.662.031.574.041,1.147.03,1.721,1.974,3.965,4.331,7.834,3.191,12.589-4.716,6.007-6.171,13.292-7.955,20.453a2.492,2.492,0,0,1-2.514.856C230.884,223.279,231.018,220.5,231.572,217.626Z" transform="translate(47.978 26.393)"/><path class="j" d="M379.927,279.592l-6.441,3.624c-4.248,2.247-8.845,1.9-13.4,1.81a9.529,9.529,0,0,1-2.865-.536,2.745,2.745,0,0,1-1.57-2.176c6.989-7.988,13.861-16.114,23.107-21.727a2.821,2.821,0,0,1,2.3,1.309C383.1,267.948,380.648,273.715,379.927,279.592Z" transform="translate(131.791 76.016)"/><path class="k" d="M375.29,208.68q-.137,9.192-.271,18.386c-1.594,5.176-.42,10.49-.784,15.733-.007,15.682.018,31.357-.01,47.039a5.919,5.919,0,0,1-.8,3.3,2.561,2.561,0,0,1-2.992-1.114,7.119,7.119,0,0,1-1.193-3.409c-.2-26.086-1.4-52.179.434-78.258a5.317,5.317,0,0,1,3.692-3.541Z" transform="translate(140.317 40.802)"/><path class="l" d="M354.808,221.718c.065,6.113,3.225,8.332,9.056,7.194,5.9,1.415,12.5-2.155,17.946,2.505a6.5,6.5,0,0,1-2.741,1.653c-6.434.942-12.9.463-19.367.42-3.591-.276-6.679-1.427-8.478-4.836-2.5-16.039-.53-32.189-1.12-48.281-.134-3.649-.023-7.308-.038-10.957.137-2.664-.549-5.443,1.023-7.927,6.267,2.064,2.092,7.612,3.745,11.217Q354.822,197.215,354.808,221.718Z" transform="translate(128.039 11.118)"/><path class="m" d="M256.4,314.541c-.293,3.144-2.482,5.956-1.628,9.3l-2.381-.53c-2.542-1.17-4.956-2.611-7.608-3.575a5.1,5.1,0,0,1-1.852-1.714,5.508,5.508,0,0,1-.03-2.616c2.115-5.592,6.788-9.236,10.5-13.59,1.431-1.68,3.434-3.965,5.938-.953C261.388,306.077,258.619,310.25,256.4,314.541Z" transform="translate(57.858 101.432)"/><path class="n" d="M255.306,353.213q2.167-.027,4.337-.056c-2.2,4.336-6.345,4.319-10.348,4.627-21.949,1.076-43.9,2.347-65.8-.75-1.648.136-3.038-.129-3.321-2.125.429-.381.859-.76,1.283-1.145a9.949,9.949,0,0,1,3.237-1.066c20.622-1.809,41.127,1.554,61.711,1.4C249.37,354.072,252.485,354.937,255.306,353.213Z" transform="translate(16.873 135.987)"/><path class="o" d="M334.519,301.927l5.411.015c.879,4.021-1.473,6.689-3.907,9.32l-4.447,3.484c-3.136,1.134-4.96,5.021-8.986,4.286-3.192-6.112,4.285-9.312,3.988-14.641C328.369,300.81,332.01,303.2,334.519,301.927Z" transform="translate(109.621 103.089)"/><path class="p" d="M182.178,355.22c21.934.23,43.888-1.193,65.8.75a1.594,1.594,0,0,1,.468.869,429.443,429.443,0,0,1-64.036-.075Z" transform="translate(18.187 137.801)"/><path class="q" d="M183.529,356.039q32.02.037,64.036.076c-1.764,2.274-4.3,1.835-6.669,1.839q-25.367.032-50.734,0C187.787,357.95,185.252,358.361,183.529,356.039Z" transform="translate(19.072 138.526)"/><path class="b" d="M279.142,159.326l1.888.377c2.626-1.7,5.531-.634,8.3-.836a1.858,1.858,0,0,1,1.575,1.951c-5.646,5.211-8.711,13.56-17.765,14.657-1.658-3.057-1.344-6.194-.389-9.36,1.322-2.4,3.422-4.218,4.9-6.509C278.146,159.508,278.644,159.413,279.142,159.326Z" transform="translate(76.99 9.304)"/><path class="r" d="M244.183,313.586c-2.418-.04-5.43-.617-4.207,3.507,1.417,4.786.513,9.64.74,14.457-3.2,2.315-.354,6.846-3.384,9.223-1.9-1.134-2.454-3.062-2.969-5.018a21.417,21.417,0,0,1-.788-12c1.072-2.79.612-5.868,1.489-8.65,1.7-5.392,4.748-7.248,9.588-3.015Z" transform="translate(51.51 108.217)"/><path class="s" d="M194.567,199.039c2.749,1.863,6.618,3.328,1.569,7.1-3.075,2.3-5.784,5.082-8.657,7.649-1.71-1.45-1.779-3.331-1.4-5.33a7.157,7.157,0,0,1,1.547-2.433q-.03-1.618-.056-3.24C189.954,201.636,191.545,199,194.567,199.039Z" transform="translate(20.618 35.709)"/><path class="t" d="M238.89,356.1c1.216,5.809,5.915,2.908,9.152,3.659-3.775,7.72-10.53,5.062-17.726,5.469A22.419,22.419,0,0,1,238.89,356.1Z" transform="translate(49.712 138.569)"/><path class="u" d="M216.306,199.727c-8.036.6-16.105,3.366-24.072-.391q1.939-.981,3.886-1.961L218.265,196q.566.556.3,1.011c-.169.285-.326.427-.477.427Z" transform="translate(24.773 33.719)"/><path class="f" d="M244.227,191.406c-3.568-1.168-6.361-4.735-10.719-3.464-3.517-2.362-7.662,1.094-11.185-1.211C231.658,179.426,240.341,181.28,244.227,191.406Z" transform="translate(44.478 24.749)"/><path class="v" d="M263.456,321.264l-5.612.086c-.169-.442-.324-.889-.462-1.34.235-1.182,1.435-1.324,2.146-1.994q13.75-.169,27.5-.339c1.638-.92,3.31-1.456,5.122-.458,1.807,2.151.189,3.148-1.4,4.154l-3.869-.048c-3.081-1.443-6.35-.4-9.517-.72C272.73,320.96,268.034,319.848,263.456,321.264Z" transform="translate(67.438 112.752)"/><path class="w" d="M173.984,360.09q-.246-6.248-.49-12.5-.02-2.721-.041-5.443.166-7.338.336-14.677a1.828,1.828,0,0,1,2.545.472c1.958,3.033,1.471,6.476,1.663,9.8.079,1.357.043,2.717,0,4.069a57.092,57.092,0,0,0,.266,10.131c.015,1.906-.662,3.838.2,5.736a3.726,3.726,0,0,1-1.253,3.326c-1.309.457-2.486.457-3.278-.915Z" transform="translate(12.473 119.611)"/><path class="x" d="M364.844,274.516l1.9.515c4.106,1.685,8.718-.814,12.743,1.539-1.422,1.923-3.763,1.023-5.555,1.81l-12.835,0c-5.107,3.076-10.494,3.345-16.085,1.622-1.493-.832-2.9-1.726-2.189-3.819C349.9,272.237,357.432,274.141,364.844,274.516Z" transform="translate(123.268 84.621)"/><path class="y" d="M168.137,168.446c.9-5.91-3.376-12.968,3.876-17.471.169,5.812-1.814,11.619-.053,17.438-.644.836-.894,2.075-2.239,2.2Z" transform="translate(8.701 4.232)"/><path class="z" d="M201.7,243.736q-4.446-.107-8.89-.215c-1.412-1.685-4.278-2.375-3.707-5.415.377-.26.755-.518,1.13-.783a24.841,24.841,0,0,1,13.38,2.031,3.483,3.483,0,0,1,.985,2.525C204.172,243.332,203.525,244.449,201.7,243.736Z" transform="translate(22.677 60.68)"/><path class="aa" d="M190.97,244.547c-7.872-3.828-3.556-10.611-3.942-16.254a3.382,3.382,0,0,1,4.071-.5c1.536,5.643,1.777,11.268-.268,16.857Z" transform="translate(20.814 54.238)"/><path class="ab" d="M174.3,148.976c4.286-7.373,11.333-3.167,17.156-4.089q1.4,1.062,2.79,2.128Z" transform="translate(13.027)"/><path class="ac" d="M323.817,319.425l-3.924,1.805-3.589.144q-1-.29-1.992-.583c-4.794-1.822-9.981.49-14.773-1.4a2.485,2.485,0,0,1,.7-2.8c5.5-2.909,11.242-1.92,16.982-1.109C319.712,316.291,322.283,317,323.817,319.425Z" transform="translate(94.934 111.412)"/><path class="ad" d="M237.177,202.169c.88-4.612-1.089-8.88-1.6-13.325,4.329,1.8,4.142,6.151,5.455,9.656l.109,5.438a3.227,3.227,0,0,1-2.267.909C237.581,204.415,236.57,203.8,237.177,202.169Z" transform="translate(53.158 29.032)"/><path class="ae" d="M165.545,178.388q.055,2.031.109,4.063c-6.687-5.081-6.684-9.911.008-15.945C166.65,170.474,161.778,174.388,165.545,178.388Z" transform="translate(4.083 14.403)"/><path class="af" d="M371.154,258.816c.455,0,.912,0,1.367,0a27.338,27.338,0,0,1,.083,14.846q-.119,3.52-.242,7.042l-.889.113-.9-.055q-.047-9.15-.093-18.3A2.387,2.387,0,0,1,371.154,258.816Z" transform="translate(141.142 74.853)"/><path class="ag" d="M206.074,157.18c3.434,2.936.74,7.78,3.412,10.952q.911,1.048,1.824,2.093.745.685.473,1.34t-.53.647q-2.371-.444-4.741-.892C205.649,166.629,204.507,161.946,206.074,157.18Z" transform="translate(33.327 8.296)"/><path class="ah" d="M231.089,355.035c-1.718-5.127.5-9.744,1.877-14.47,1.858.6.874,2.562,1.743,3.636C233.982,347.974,234.39,352.124,231.089,355.035Z" transform="translate(49.808 128.393)"/><path class="ai" d="M184.942,180.493l-18.26.05-2.044-3.57c6.6,2.38,13.552,1.082,20.3,1.925.609.352.811.707.611,1.062S185.147,180.493,184.942,180.493Z" transform="translate(6.7 21.258)"/><path class="aj" d="M168.663,314.046q-1.47-2.16-2.936-4.318-1.01-4.679-2.022-9.362c3.861.447,2.75,4.622,4.811,6.421,2.355,1.91,3.53,4.245,2.645,7.323A1.778,1.778,0,0,1,168.663,314.046Z" transform="translate(6.089 102.067)"/><path class="ak" d="M223.053,185.517c3.669.957,8.013-4.331,11.185,1.211q-1.149.963-2.3,1.923c-3.536-2.858-7.174,1.357-10.729-.159Z" transform="translate(43.747 25.963)"/><path class="al" d="M188.655,216.221a21.842,21.842,0,0,0-.058,15.743q-1.753-.122-3.507-.245C185.85,226.455,180.988,219.9,188.655,216.221Z" transform="translate(19.551 46.961)"/><path class="am" d="M196.591,154.488l1.85.258a1.288,1.288,0,0,1,.2,2.284c-.051.405-.106.811-.161,1.216-4.323,2.391-6.338.569-6.957-3.806a2.62,2.62,0,0,1,1.513-1.88Z" transform="translate(24.308 5.27)"/><path class="an" d="M163.546,286.166l1.251,13.5c-.635,1.2.172,2.951-1.45,3.771C161.649,297.658,158.853,291.869,163.546,286.166Z" transform="translate(4.291 92.767)"/><path class="ao" d="M170.454,163.711l2.239-2.2c.4,1.837,2.858,3.662,1,5.448-2.039,1.954-4.726,1.666-7.116.041Q168.512,165.355,170.454,163.711Z" transform="translate(7.968 11.133)"/><path class="ap" d="M191.129,230.011l-3.96.084c-2.08-1.051-1.074-1.812.24-2.544l9.074-2.974q.39.524.779,1.049C197.025,229.617,194.879,230.936,191.129,230.011Z" transform="translate(20.674 52.434)"/><path class="aq" d="M330.393,311.256q1.954-4.659,3.909-9.32c2.494,1.187,1.781,3.452,1.837,5.458C334.265,308.744,333.433,311.642,330.393,311.256Z" transform="translate(115.252 103.095)"/><path class="ar" d="M322.079,313.53c3.641-.268,5.7-4.566,9.741-3.823q-.492,1.581-.99,3.159-3.572,1.966-7.142,3.935c-.8-.465-1.82-.634-2.254-1.617-.007-.319-.01-.64-.015-.96Z" transform="translate(109.375 108.128)"/><path class="as" d="M243.76,310.982c3.962-.536,6.542,1.244,8.059,4.807q-1.661.362-3.325.73l-3.824-2.12A3.486,3.486,0,0,1,243.76,310.982Z" transform="translate(58.425 108.958)"/><path class="at" d="M211.354,179.218l-.161-9.039c-.867-1.958.137-2.208,1.743-1.911C214.257,172.185,216.143,176.185,211.354,179.218Z" transform="translate(36.98 15.489)"/><path class="au" d="M274.991,163.179l-.626,10.59-.97.581a1.685,1.685,0,0,1-1.539-1.317c-.445-2.113.649-4.447-.9-6.408q.1-1.8.207-3.593.606-.144,1.22-.252A1.57,1.57,0,0,1,274.991,163.179Z" transform="translate(76.325 11.617)"/><path class="av" d="M369.947,276.22c-4.215-.781-8.776,1.3-12.743-1.539l15.261-.42Q371.207,275.242,369.947,276.22Z" transform="translate(132.81 84.971)"/><path class="aw" d="M223.158,188.178c-1.3,4.371-4.288,6.032-8.693,5.421.874-3.03,4.695-2.8,5.966-5.392Z" transform="translate(39.332 28.596)"/><path class="ax" d="M236.883,324.833l.353,6.067q-.909,4.751-1.82,9.5a4.749,4.749,0,0,1-1.973-3.867c.1-3.009-.654-6.029.106-9.032C234.181,326.013,235.094,324.873,236.883,324.833Z" transform="translate(51.605 118.09)"/><path class="ay" d="M211.059,181.02l-3.628.142c-.665-.559-1.766-.642-1.916-1.759q.3-.715.622-1.423,3.723-1.077,7.445-2.161A5.6,5.6,0,0,1,211.059,181.02Z" transform="translate(33.47 20.502)"/><path class="az" d="M235.192,331.806q.263,2.093.53,4.182c0,3.166-.036,6.325-1.921,9.092-1.63-1.549-.839-3.566-1.043-5.39.041-2.368-.111-4.74.146-7.1A1.531,1.531,0,0,1,235.192,331.806Z" transform="translate(51.299 122.501)"/><path class="ba" d="M368.878,203.858l1.918-.114q1.916,2.544,3.833,5.085l-1.713,1.855a5.583,5.583,0,0,1-3.212-1.072,6.548,6.548,0,0,1-2.969-3.447C366.7,204.7,367.776,204.269,368.878,203.858Z" transform="translate(139.051 38.79)"/><path class="bb" d="M183.377,356.714c-3.249.546-4.716-2.338-7.008-3.637-1.345-1.013-1.334-2.247-.591-3.606,5.289-.521,7.617,2.108,7.644,7.185Z" transform="translate(13.666 134.182)"/><path class="bc" d="M162.413,298.093l1.45-3.773c.369,3.21,3.568,6.234.637,9.665A8.14,8.14,0,0,1,162.413,298.093Z" transform="translate(5.226 98.107)"/><path class="bd" d="M177.186,350.494q.132,2.06.266,4.117c-3.73-1.3-4.189-4.182-3.637-7.548q1.6.027,3.2.061A2.193,2.193,0,0,1,177.186,350.494Z" transform="translate(12.584 132.648)"/><path class="be" d="M214.231,170.3q-.869.956-1.741,1.911-1.8-2.582-3.594-5.162.027-.99.056-1.986C212.151,165.356,213.485,167.532,214.231,170.3Z" transform="translate(35.684 13.458)"/><path class="bf" d="M233.916,336.061q.191,3.1.384,6.2-.29,2.507-.583,5.013-.871-1.82-1.743-3.639.226-3.473.453-6.954C232.692,335.91,233.176,335.678,233.916,336.061Z" transform="translate(50.799 125.324)"/><path class="bg" d="M261.474,318.244q-1.072,1-2.146,1.994c-2.573-.126-4.918-.539-4.915-3.906Z" transform="translate(65.493 112.523)"/><path class="bh" d="M191.86,153.125c-2.09-1.865-5.34-2.836-5.042-6.545,3.28,1.2,6.39,2.595,7.4,6.413A1.447,1.447,0,0,1,191.86,153.125Z" transform="translate(21.213 1.354)"/><path class="bi" d="M189.857,150.587l2.355-.132,1.918,3.484-1.513,1.88Q191.237,153.2,189.857,150.587Z" transform="translate(23.216 3.892)"/><path class="bj" d="M274.426,165.141l-2.611-.4a8.279,8.279,0,0,1,5.934-5.486C278.468,162.248,276.339,163.633,274.426,165.141Z" transform="translate(76.889 9.655)"/><path class="m" d="M193.8,301.371a3.08,3.08,0,0,0-1.236-.243,7.065,7.065,0,0,1-2.835-3.654c-.187-2.6,1.506-4.3,2.918-6.143a21.8,21.8,0,0,0,3.254-5.8c.255-.723.559-1.42.861-2.123,1.259-2.883,1.913-6.027,3.765-8.65,2.54-4.1,1.888-8.951,3.129-13.368a10.948,10.948,0,0,1,1.274-2.426c11.909-12.882,24.623-24.957,36.992-37.377,3.861-3.877,8.432-6.305,13.891-4.379,5.949,2.1,5.984,7.78,6.484,12.857.53,5.388-.5,10.9,1.22,16.2a17.335,17.335,0,0,1-.076,8.463,66.433,66.433,0,0,1-25.815,25.954,25,25,0,0,1-7.935.867c-3.161.162-6.14-1.422-9.3-.985-1.734,5.86,6.294,7.037,5.825,12.253-3.75,7.5-8.7,13.491-17.835,14.252C202.737,307.169,198.688,303.2,193.8,301.371Z" transform="translate(23.121 47.166)"/><path class="bk" d="M169.147,333.485q-1.266-3.485-2.534-6.972a5.53,5.53,0,0,0,6.489-1.443c15.98-16.157,32.09-32.184,48.3-48.392l-6.633-5.395c1.589-1.554,3.411-1.014,5.223-.586,2.209.907,4.63.63,6.9,1.23,7,1.691,14.326-.624,21.267,1.719,3.659,4.568-.73,5.307-3.159,5.155-9.782-.612-15.569,5.471-21.33,11.773-11.184,12.235-24.633,22.313-34.264,36.02a10.889,10.889,0,0,1-1.542,2.232,29.284,29.284,0,0,1-8.3,4.572C176.1,333.912,172.637,336.289,169.147,333.485Z" transform="translate(7.994 82.342)"/><path class="bl" d="M202.784,273.231l-4.756-.344c-1.58-2.12-5.148-1.954-5.847-5.089l14.477,3.7q1.529.921.223,2.14A6.16,6.16,0,0,1,202.784,273.231Z" transform="translate(24.738 80.738)"/><path class="bm" d="M184.127,267.708l4.124-2.07c2.1-.869,4.2-1.258,6.26.113q.851,1.867,1.706,3.735Z" transform="translate(19.464 78.808)"/><path class="bn" d="M178.255,271.358c1.566-2.793,4.23-3.359,7.1-3.51C183.855,270.769,181.831,272.637,178.255,271.358Z" transform="translate(15.618 80.771)"/><path class="bo" d="M207.857,199.186a1.92,1.92,0,0,0,.175-1.438c2.3-2.788,4.548-5.706,8.864-3.811Z" transform="translate(35.004 31.971)"/><path class="bp" d="M270.953,164.894c2.567,2,1.026,5.12,2.045,7.541a7.955,7.955,0,0,1,2.1,5.787c-.366,15.256,1.6,30.571-1.1,45.774a2.234,2.234,0,0,1-2.9,1.185Z" transform="translate(76.325 13.348)"/><path class="bq" d="M271.053,261.488q-.03-25.625-.06-51.25a2.118,2.118,0,0,1,2.865,1.019,185.363,185.363,0,0,1,.051,49.144A2.148,2.148,0,0,1,271.053,261.488Z" transform="translate(76.351 42.909)"/><path class="br" d="M272.943,291.795c-4.192-4.683-1.529-10.27-1.779-15.386-.425-8.768.043-17.577.137-26.369a2.075,2.075,0,0,1,2.808.963c2.846,10.921.768,22.046,1.365,33.065C275.334,286.875,275.359,289.736,272.943,291.795Z" transform="translate(76.066 68.973)"/><path class="bs" d="M243.472,216.541a3.4,3.4,0,0,1-1.951,3.389c-.328-.324-.655-.65-.988-.971-1.83-3.394-1.167-7.134-1.511-10.732.083-3.44-2.659-6.573-1.16-10.176l2.077-.086a6.454,6.454,0,0,1,3.467,5.5A21.892,21.892,0,0,1,243.472,216.541Z" transform="translate(54.36 35.005)"/><path class="bt" d="M272.578,215.951l-1.585,0q.04-7.31.078-14.618c.518,0,1.038,0,1.556-.012C276.16,206.207,276.2,211.084,272.578,215.951Z" transform="translate(76.351 37.201)"/><path class="bu" d="M272.548,255.752l-1.541,0q.017-7.308.036-14.616c.536,0,1.071,0,1.607-.012C276.351,246.022,276.15,250.9,272.548,255.752Z" transform="translate(76.36 63.266)"/><path class="bv" d="M271.006,281.645q-.171-.916-.343-1.834.355-.861.712-1.723a2.879,2.879,0,0,1,3.808-.508c2.075,2.244,3.308,4.652,1.465,7.646C272.4,287.775,272.472,283.493,271.006,281.645Z" transform="translate(76.135 86.821)"/><path class="bw" d="M274.059,282.219q-1.484.01-2.966.022.75-2.07,1.5-4.142l.268-7.215a2.025,2.025,0,0,1,2.477.814,10.574,10.574,0,0,1,1.041,7.023A4.877,4.877,0,0,1,274.059,282.219Z" transform="translate(76.417 82.669)"/><path class="bx" d="M241.1,214.366l-.065-13.08a9.406,9.406,0,0,0,1.532.594C242.526,206.1,244.51,210.547,241.1,214.366Z" transform="translate(56.732 37.18)"/><path class="m" d="M315.808,323.033a10.3,10.3,0,0,1-.591,1.474c-11.475,1.009-22.925,3.78-34.456.447L275.3,324.5c2.972-3.207,5.88-6.474,8.938-9.6,1.887-1.925,3.982-3.631,2.052-6.666a5.093,5.093,0,0,1,3.871-1.743,35.275,35.275,0,0,1,12.986.966c2.416.2,4.839.384,6.831,1.994a2.568,2.568,0,0,1,.392,2.577c-4.313,3.942-12.2.842-15.338,7.667C301.9,322.146,309.64,317.787,315.808,323.033Z" transform="translate(79.169 105.931)"/><path class="m" d="M258.771,293.894c4.276,2.793,6.062,7.632,9.281,11.3-7.384,2.074-10.982,9.145-17.054,12.953q.913-7.278,1.83-14.556C250.478,297.7,254.3,295.6,258.771,293.894Z" transform="translate(63.257 97.828)"/><path class="by" d="M289.2,309.066q-1.842.087-3.682.17l-9.046-2.04c-.007-3.5,2.087-2.406,3.953-1.805l8.657.429a2.155,2.155,0,0,1,1.1,1.574A2.373,2.373,0,0,1,289.2,309.066Z" transform="translate(79.939 104.933)"/><path class="bz" d="M284.181,305.781l-3.953,1.807c-3.24.046-6.562.627-9.492-1.41,1.388-2.074,4.02-.306,5.594-1.806A10.2,10.2,0,0,1,284.181,305.781Z" transform="translate(76.182 104.543)"/><path class="ca" d="M262.01,301.433l9.049,2.921c-.708,4.281-3.585,1.931-5.714,1.868C262.558,305.792,261.924,303.864,262.01,301.433Z" transform="translate(70.463 102.765)"/><path class="cb" d="M264.022,305.111c1.949-.487,4.26.129,5.714-1.868a4.166,4.166,0,0,1,4.142,1.22c-.169,1.221-1.4,1.369-2.085,2.065C269.051,306.89,266.392,306.8,264.022,305.111Z" transform="translate(71.786 103.877)"/><path class="cc" d="M268.718,306l2.085-2.065,6.848.576c-1.435,1.935-3.71,1.264-5.6,1.805Q270.385,306.16,268.718,306Z" transform="translate(74.861 104.404)"/><path class="cd" d="M279.289,317.735q17.232-.221,34.458-.445c4.89,1.1,10.219-1.468,14.858,1.764l-30.385.487c-5.557,1.776-11.424-.442-16.981,1.317l-3.7.116Q278.417,319.355,279.289,317.735Z" transform="translate(80.641 113.15)"/><path class="ac" d="M279.776,320.123c5.458-3.015,11.3-1.079,16.977-1.317C291.233,321,285.47,320.133,279.776,320.123Z" transform="translate(82.103 113.885)"/><path class="ce" d="M261.053,320.069c4.584-2.78,9.55-.952,14.345-1.188l.061,1.167Q268.258,320.057,261.053,320.069Z" transform="translate(69.842 113.947)"/><path class="cf" d="M269.782,320.052a9.5,9.5,0,0,0-.061-1.17c3.083,0,6.363-1.433,9.075,1.251Z" transform="translate(75.518 113.943)"/><path class="cg" d="M197.311,241.8l2.014-1.671c4.433.543,3.09,2.845,1.58,5.2l.1-.058c-1.556,4.137.07,9-2.936,12.811a1.692,1.692,0,0,1-2.325.167Q196.525,250.019,197.311,241.8Z" transform="translate(27.069 62.617)"/><path class="ch" d="M197.151,251.148a4.219,4.219,0,0,1,1.493-.179q1.03.492.852,1.211-.189.774-.478.774c-.717,3.594-1.531,7.151-3.823,10.151-4.159-3.96,1.177-7.755.2-11.659A3.4,3.4,0,0,1,197.151,251.148Z" transform="translate(25.659 69.712)"/><path class="ci" d="M325.412,313.2l1.847,1.68c-2.884,1.61-5.416,4.223-9.213,3.249a2.675,2.675,0,0,1-2.08-1.317c-.031-2.178,1.531-2.916,3.2-3.568C321.24,312.716,323.322,312.028,325.412,313.2Z" transform="translate(105.803 110.05)"/><path class="cj" d="M320.2,315.667a3.1,3.1,0,0,1,1.251,1.091c-1.622,1.039-2.87,2.792-5.1,2.659-1.847-.626-4.154.208-5.58-1.756C313.43,314.711,316.5,313.692,320.2,315.667Z" transform="translate(102.4 111.42)"/><path class="ck" d="M267.031,356.251a13.839,13.839,0,0,1-1.488.614V345.88c-12.837,12.8-25.383,25.318-38.286,38.187h27.236c-1.258,1.6-3.086,1.906-4.9,1.911-22.73.063-45.468,1.168-68.181-.6,2.138-5.539,7.248-4.049,10.864-3.6,13.35,1.658,22.976-3.445,31.666-13.391,9.944-11.381,21.065-21.762,32.024-32.212,6.1-5.819,9.492-12.223,8.956-20.833-.225-3.614-1.172-8.039,3.442-10.29,3.316,2.122,3.2,5.193,2.371,8.468-1.855,4.758.422,9.966-1.612,14.7.455,3.21-.735,6.709,1.68,9.575q-.941,1-1.883,2.012c-1.746,3.02.161,6.565-1.382,9.615Z" transform="translate(17.684 105.134)"/><path class="cl" d="M218.733,177.985l1.916,1.759q-17.322.007-34.647.018-.9-.539-.592-1.067c.2-.348.4-.523.607-.523Z" transform="translate(20.253 21.921)"/><path class="cm" d="M195.906,156.491l-.2-2.284c4.991-.733,10.27-2.539,13.439,3.58C204.7,157.675,200.54,154.676,195.906,156.491Z" transform="translate(27.045 5.809)"/><path class="cn" d="M191.536,178.1q-.01.794-.015,1.59l-14.613.068c0-.531,0-1.064,0-1.6Q184.22,178.129,191.536,178.1Z" transform="translate(14.734 21.995)"/><path class="co" d="M322.048,306.2c-.018-4.667,4.865-3.192,6.793-5.42q2.758.951,5.512,1.9l-7.381,3.616C325.3,307.8,323.657,307.819,322.048,306.2Z" transform="translate(109.786 102.336)"/><path class="cp" d="M188.785,203.26l-.47,1.966c-1.552,4.3.318,8.91-1.187,13.218l-.257.483C184.31,213.315,181.468,207.667,188.785,203.26Z" transform="translate(19.456 38.473)"/><path class="m" d="M195.621,239.624c.654-8.476-1.1-17.141,1.984-25.427,4.172-6.34,10.247-10.537,16.446-14.591,8.059-.667,16.2-2.474,24.123.42,4.806,1.756,9.78,3.576,12.5,8.526-1.014,9.112-9.125,12.393-14.626,17.826a12.07,12.07,0,0,1-2.542.836c-4.678.813-9.494-.218-14.134,1.049-1.471.5-2.952.986-4.4,1.552-1.6.67-3.353,1.086-4.488,2.583-.341.632-.67,1.253-.947,1.911-.851,2.59-.447,5.39-1.4,7.96a5.42,5.42,0,0,1-1.541,1.981,6.077,6.077,0,0,1-6.179-.5C198.75,242.467,196.655,241.658,195.621,239.624Z" transform="translate(26.991 35.313)"/><path class="m" d="M220.028,221.191,234.7,204.549q.941.074,1.88.152c2.135,2.072,1.258,4.94,1.958,7.391,2.176,2.764,2.236,5.7.718,8.771a5.952,5.952,0,0,1-2.458,1.948C231.074,223.665,225.277,225.228,220.028,221.191Z" transform="translate(42.975 39.317)"/><path class="cq" d="M345.274,158.4l5.408,1.572q1.254,1.663,2.509,3.326a3.581,3.581,0,0,1-2.176,1.385c-2.919-.022-5.21-1.1-6.492-3.871A2.816,2.816,0,0,1,345.274,158.4Z" transform="translate(124.481 9.097)"/><path class="cr" d="M348.809,161.554l2.224-.19a6.632,6.632,0,0,1,1.455.207q.794,2.778,1.589,5.554a1.808,1.808,0,0,1-1.862.692,7.835,7.835,0,0,1-2.688-1.845,6.9,6.9,0,0,1-1.736-2.787A1.427,1.427,0,0,1,348.809,161.554Z" transform="translate(126.637 11.036)"/><path class="cs" d="M389.179,158.762c-.033.539-.041,1.077-.025,1.617-3.677,3.406-8.266,2.4-12.605,2.626-2.218-.177-4.442-.137-6.668-.146q-17.069-.037-34.132.023c-12.61-.045-25.216.04-37.821-.05-3.854-.026-7.881.526-11.2-2.264l-9.286-.3c1.228-3.033,4-2.343,6.249-2.345q50.965-.012,101.931.157A19.1,19.1,0,0,1,389.179,158.762Z" transform="translate(80.576 8.739)"/><path class="ct" d="M186.087,217.666c.43-4.4-1.756-9.041,1.188-13.218q.161,2.9.324,5.8C187.261,212.752,188.6,215.6,186.087,217.666Z" transform="translate(20.498 39.251)"/><path class="cu" d="M197.814,223.324c2.077.311,4.553-.185,5.373,2.663a8.131,8.131,0,0,1-5.555,1.582,8.613,8.613,0,0,1-5.359-2.161l.084-.008C193.625,223.259,195.806,223.519,197.814,223.324Z" transform="translate(24.798 51.613)"/><path class="cv" d="M241.475,198.751l3.7,9.122c-3.154,4.928-5.792,10.419-12.508,11.462a1.288,1.288,0,0,1-.761-1.271c.069-.521.184-.783.339-.783.179-7.613-.983-15.71,7.346-20.385Q240.531,197.824,241.475,198.751Z" transform="translate(50.746 34.305)"/><path class="cw" d="M232.75,209.285a5.733,5.733,0,0,0,.139,1.557c1.968,2.059,2.1,4.339.816,6.79a1.957,1.957,0,0,1-2.582.609q.072-4.568.144-9.135A5.53,5.53,0,0,1,232.75,209.285Z" transform="translate(50.241 42.301)"/><path class="cx" d="M169.089,309.36l10.474-1.978c1.64-.783,2.337.071,2.678,1.539-2.209,4.521-8.051,4.167-10.765,8.023a1.862,1.862,0,0,1-2.261-.113,10.505,10.505,0,0,1-2.514-7.186Z" transform="translate(8.051 106.467)"/><path class="cy" d="M168.22,313.263l1.916-.086c4.491-1.018,8.837-1.163,12.61,2.112a2.374,2.374,0,0,1-.455,2.438,5.575,5.575,0,0,1-3.722,1.195C174.308,318.521,170.241,317.763,168.22,313.263Z" transform="translate(9.046 110.036)"/><path class="cz" d="M175.272,333.259q-.735-.025-1.47-.045-.186-7.291-.371-14.583c3.373-.986,4.233,1.2,4.8,3.78C177.71,326.15,178.843,330.35,175.272,333.259Z" transform="translate(12.459 113.871)"/><path class="da" d="M177.314,324.279a5.465,5.465,0,0,0-3.841-3.646c-.508-1.71,1.029-2.421,1.726-3.543q1.266-.881,2.535-1.757a9.387,9.387,0,0,1,2.467,7.942,2.467,2.467,0,0,1-1.764,1.511Z" transform="translate(12.42 111.868)"/><path class="db" d="M371.515,277.522q0-24.712-.01-49.423c.513-.857,1.034-.819,1.561-.012q.027,24.717.056,49.432Q372.32,278.772,371.515,277.522Z" transform="translate(142.175 54.327)"/><path class="dc" d="M371.522,257.717c.536-.008,1.071-.01,1.607,0-.169,5.587,2.128,11.4-1.552,16.665q-.04-7.422-.083-14.846Q371.5,258.624,371.522,257.717Z" transform="translate(142.168 74.131)"/><path class="dd" d="M373.137,233.6q-.782.012-1.561.012c.7-4.836-1.69-10.022,1.655-14.556Q373.185,226.326,373.137,233.6Z" transform="translate(142.104 48.816)"/><path class="j" d="M381.5,280.918c-6.841,7.336-12.486,15.986-22.164,20.215a2.892,2.892,0,0,1-2.891,0c-3.985-2.557-4.738-6.568-4.9-10.856-.106-3.955.534-8.013-.167-11.839-3.646-19.888,6.884-32.889,20.967-44.277,2.342-1.893,4.735-4.47,8.028-3.148,3.338,1.339,2,4.763,1.933,7.257C381.9,252.482,383.519,266.737,381.5,280.918Z" transform="translate(128.516 56.408)"/><path class="j" d="M381.957,298.344c0-13.962.053-27.926-.053-41.887-.018-2.246,1.24-5.461-1.666-6.456-2.641-.905-4.061,2.092-5.728,3.692-4.376,4.207-8.442,8.748-12.951,12.8a20.133,20.133,0,0,0-7.086,16.89c.339,8.779-.119,17.59-.232,26.387a2.679,2.679,0,0,1-2.815-1.407c-2.759-9.914-.685-20.049-1.369-30.063q.037-7.574-.01-15.149c.046-15.882-.013-31.762.017-47.639.131-3.278-.22-6.629,1.37-9.7,1.877-2.79,4.716-1.383,7.164-1.633a1.831,1.831,0,0,1,1.862,1.758c-5.45,9.9-3,20.693-3.374,31.15-.182,5.1-.49,10.26.429,16.3a136.376,136.376,0,0,0,19.39-19.238c2.908-3.487,2.322-7.975,2.557-12.2.247-4.415-1.12-9.176,2.406-13l2.044,1.549q.164,42.1.326,84.194-.333,1.822-.667,3.641Q382.764,298.34,381.957,298.344Z" transform="translate(128.056 38.982)"/><path class="de" d="M364.9,276.967q.75.084,1.5.167a8.142,8.142,0,0,1,.263,1.6c-6.99,3.758-14.542.869-21.767,1.829A5.418,5.418,0,0,1,342.751,279c-1.854-3.553-4.134-7.035-2.075-11.3a3.507,3.507,0,0,1,2.5-.3c4.716,6.777,10.5,11.214,19.4,8.769A3.554,3.554,0,0,1,364.9,276.967Z" transform="translate(121.453 80.407)"/><path class="df" d="M353.678,231.4l-.245,8.445a2.194,2.194,0,0,1-3.024-.957c-2.323-4.925-1.374-10.187-1.412-15.308q-.184-23.756,0-47.514c.027-3.872-.733-8.023,2.491-11.23q.946,0,1.895.012.122,30.833.245,61.666A4.983,4.983,0,0,1,353.678,231.4Z" transform="translate(127.33 13.311)"/><path class="dg" d="M376.168,204.234l-1.779,1.518c-6.05,3.843-12.14,3.74-18.263.182l.25-.665c-.669-.334-.9-.687-.7-1.064s.41-.578.624-.578C362.941,203.139,369.585,202.7,376.168,204.234Z" transform="translate(131.761 38.414)"/><path class="dh" d="M358.83,204.322a13.97,13.97,0,0,0,.081,1.642q-3.567.514-7.129,1.029l-.05-4.885C353.677,204.2,356.447,203.64,358.83,204.322Z" transform="translate(129.226 37.719)"/><path class="r" d="M246.274,311.388q.454,1.708.91,3.417c-2.542-.164-5.269.551-7.4-1.556l.268-.376c1.772-1.782,3.452-3.944,6.254-1.537Z" transform="translate(55.911 108.551)"/><path class="di" d="M268.6,299.868c-1.291,3.656-6.042,5.19-5.944,9.694q-6.948,8.192-13.9,16.383c-2.731,1.935-5.721,1.337-8.693.889-4.367-1.311-4.846-4.179-3.184-7.91,2.974-4.193,5.835-8.5,9.853-11.837a19.709,19.709,0,0,0,5.476-5.882c1.57-2.256,2.623-4.8,3.98-7.179,1.845-2.345,2.469-5.393,4.415-7.687,1.994-1.653,4.056-2.309,6.285-.422,1.562,3.548,3.992,6.982,1.415,11.056Z" transform="translate(53.429 91.854)"/><path class="dj" d="M240.577,309.843q4.6.107,9.206.209c.013.7.023,1.39.035,2.087l-6.252,1.539c-4.713-3.316-7.123-2.537-6.98,3.669.066,2.87,1.15,6.2-2.173,8.251q.109-7.8.223-15.6C236.578,308.42,238.578,309.115,240.577,309.843Z" transform="translate(52.395 107.75)"/><path class="bk" d="M287.323,312.974q-4.575,5.335-9.152,10.667c-2.471,2.693-4.617-2.115-7.05-.3,2.8,17-3.967,29.455-16.959,40.3-11.392,9.507-21.519,20.6-31.668,31.5-5,5.37-10.292,7.5-17.573,7.238-6.529-.237-13.309-1.653-19.73,1.127q-1,.161-2.006.326c-1.766-3.206-4.465-5.522-7.318-7.7q-.087-1.683-.172-3.368-.03-1.681-.061-3.356c2.645-6.81,6.072-12.83,14.209-14.123a18.82,18.82,0,0,1,3.724.821c5.332,1.582,10.677,3.5,15.728-.76,5.875-4.387,9.746-10.652,14.81-15.789,2.193-1.451,4.2-3.073,5.1-5.7a9.285,9.285,0,0,1,1.258-1.9c2.578-1.906,3.836-4.72,5.14-7.51,11.207-15.578,22.973-30.594,40.058-40.315,7.053-4.152,2.06-9.178.99-13.919,1.819-10.935,6.512-14.406,16.445-12.187a3.319,3.319,0,0,1,1.648-.124,5.44,5.44,0,0,1,.025,1.372c3.5,3.482,9.8,5.913,4.761,12.614a44.927,44.927,0,0,1-3.719,7.92c-.746,2.812-2.924,4.839-4.084,7.425C290.057,308.988,289,311.218,287.323,312.974Z" transform="translate(13.902 87.015)"/><path class="dk" d="M347.013,304.052l4.925.1c2.54,6.1-4.3,8.37-5.306,13.024l.035-.033c-1.855,1.185-4.112,1.685-5.686,3.345-1.122.624-2.8.4-3.2,2.118l-9.43,1.992q-9.1-.057-18.194-.117-12.687-.211-25.376-.448c-.2,0-.394-.341-.851-.765,4.146-9.021,11.738-10.916,20.719-10.057a6.078,6.078,0,0,1,5.284-1.407c4.245,1.364,8.192.535,11.952-1.648a20.456,20.456,0,0,1,3.912-1.281c5.4-2.577,11.23-2.529,17.007-2.818Z" transform="translate(84.821 104.481)"/><path class="b" d="M273.371,175.382c5.421-4.983,8.725-12.374,16.579-14.593,15.457-1.973,30.979-.323,46.448-.866a6.791,6.791,0,0,1,3.032.5c-1.832,8.955-8.27,14.863-17.214,15.541-6.067.462-12.173-.213-18.215.488a10.956,10.956,0,0,0-2.964,1.784,3.491,3.491,0,0,0-.336,4.733c4.025,2.562,11.406-1.18,12.7,4.481,1.2,5.253-4.945,8.458-8.466,12.006-7.651,7.707-14.992,15.756-23.178,22.887-2.456,2.138-6.333,7.6-9.163-.213.558-15.6-1.077-31.211.842-46.764Z" transform="translate(77.319 10.004)"/><path class="dl" d="M332.435,161.027q-24.7-.017-49.4-.038.017-.745.036-1.486,24.679-.01,49.359-.017c.415.341.556.682.419,1.026S332.574,161.027,332.435,161.027Z" transform="translate(84.236 9.806)"/><path class="dm" d="M190.727,346.189c-6.994,1.829-9.726,8.5-14.545,12.8-2.294-1.279.632-2.653-.071-3.96-1.488-3.361.5-7.156-1.311-10.474l.261-4.04c1.575-5.4-.9-11.157,1.481-16.481,2.759-.885,4.01,1.342,5.668,2.731a10.183,10.183,0,0,1,1.35,2.161,45.7,45.7,0,0,0,3.482,7.771C187.981,339.969,192.661,341.807,190.727,346.189Z" transform="translate(13.355 117.433)"/><path class="dn" d="M178.239,326.23c-4.016,4.88.66,11.366-3.012,16.309q-.34-5.411-.682-10.818c1.173-3.568-1.562-7.849,2-10.982l.007.028C178.055,322.3,179.859,323.734,178.239,326.23Z" transform="translate(13.188 115.409)"/><path class="do" d="M174.89,336.352c2.787,3.2,1.354,6.924,1.311,10.475C173.6,343.6,175.135,339.867,174.89,336.352Z" transform="translate(13.265 125.634)"/><path class="dp" d="M343.912,274.484a7.093,7.093,0,0,0,.674,1.4q.958,1.1,1.916,2.206c-.4,3.06.453,6.8-4.122,7.6-1.923-1.738-2.05-4.045-2.052-6.4a9.281,9.281,0,0,1,.523-2.716C341.467,275.295,342.2,274.17,343.912,274.484Z" transform="translate(121.758 85.082)"/><path class="m" d="M199.894,261.346c-.487-1.744.295-3.876-1.58-5.2q-.015-1.112-.026-2.227a3.535,3.535,0,0,1-.849-3.583c5.79-8.321,13.79-14.563,20.716-21.818,2.962-3.1,5.87-6.156,7.7-10.093a9.093,9.093,0,0,1,4.9-2.527c3.447-.291,6.9-.141,10.348-.185,4.614.308,9.31-.733,13.845.874,5.074,4.4,4.632,10.158,3.932,15.975-.352,4.814,1.359,9.949-2.174,14.283-3.333-5.661-.751-11.91-1.784-17.787-.609-3.465-.353-7.843-4.381-9.269-4.311-1.527-8.013.169-11.457,3.492C225.977,235.926,214.2,249.937,199.894,261.346Z" transform="translate(28.081 46.595)"/><path class="dq" d="M204.382,244.7q-.022,1.723-.046,3.442c-5.122,1.4-9.895-.379-14.724-1.63-1.65-5.5-2.54-10.987.157-16.441,2.3-1.276,5.45-1.736,5.269-5.425l5.522-.149c1.456,1.1,3.134,2.012,3.561,4.026a7.026,7.026,0,0,1-.786,5.185,11.49,11.49,0,0,1-1.324,1.162c-1.508,1.3-4.879.8-4.73,3.369.179,3.071,3.854,1.969,5.651,3.325C204.068,242.308,205.006,243.147,204.382,244.7Z" transform="translate(22.032 52.378)"/><path class="o" d="M318.4,315.342c.4-3.657,3.005-3.561,5.685-3.345a5.828,5.828,0,0,1-.271,1.625Z" transform="translate(107.4 109.627)"/><path class="b" d="M273.785,169.2q.127,24.652.253,49.3c4.607,3.121,4.24,7.771,3.848,12.427-2.855,15.013-1.1,30.094-1.35,46.31,9.006-4.764,13.1-13.132,20.236-18.022a40.182,40.182,0,0,1,19.654.108c3.573,6.121-3.767,4.8-5.307,7.722,5.8.839,11.566-.223,17.211.616,3.386.5,7.97.452,5.9,6.317-8.018.953-16.051.149-24.072.232-4.253.043-7.555,1.15-9.794,4.849-8.135,3.336-13.651,9.852-19.442,16.034-4.321,4.612-4.177,10.374-4.612,16.177-.664,8.859,2.585,18.131-2.578,26.548a7.6,7.6,0,0,1-1.422-.44q-.184-17.267-.369-34.534.052-7.315.1-14.633-.042-25.618-.081-51.234.022-7.318.048-14.634.171-26.367.344-52.735A6.45,6.45,0,0,1,273.785,169.2Z" transform="translate(76.97 16.169)"/><path class="dr" d="M233.527,335.665c-.194-3.3-.65-6.633,1.383-9.613q-.057,4.682-.113,9.367A12.372,12.372,0,0,1,233.527,335.665Z" transform="translate(51.695 118.888)"/><path class="j" d="M358.023,204.913l18.263-.184,3.773,3.762c3.225,17.441-2.453,31.122-16.832,41.594-3.2,2.335-5.152,6.395-7.677,9.661l-2.764-1.989c0-15.016.121-30.035-.079-45.048C352.653,208.548,355.638,207.082,358.023,204.913Z" transform="translate(129.864 39.435)"/><path class="m" d="M201.606,277.232a8.944,8.944,0,0,1-.675-1.443c8.551-.6,12.149-7.636,16.968-13.085a5.278,5.278,0,0,1,2.237-1.374c3.268-.472,6.064.905,8.859,2.274a2.366,2.366,0,0,1,2.085,2.742c-3.313,3.629-11.558,5.026-5.789,12.782-4.556,1.938-9.312.544-13.966.872C208.171,278.773,204.4,279.708,201.606,277.232Z" transform="translate(30.468 76.441)"/><path class="m" d="M239.139,253.568l-1.852,2.9a21.033,21.033,0,0,1-7.207,4.735c-3.217,1.959-6.009,5.21-10.449,3.414-.281-.333-.559-.669-.839-1a127.048,127.048,0,0,0,23.7-23.66,4.482,4.482,0,0,1,2.125,5.681l.056-.134C242.242,247.788,241.014,250.9,239.139,253.568Z" transform="translate(42.165 62.505)"/><path class="ds" d="M216.48,267.931c-.624.01-1.249.02-1.873.028-3.94-4.2-11.164-6.679-7.766-14.747,2.563,2.173,5.9,2.716,8.809,4.184C224.358,261.437,224.424,262.3,216.48,267.931Z" transform="translate(33.76 71.186)"/><path class="dt" d="M235.24,254.63q-1.06-2.84-2.123-5.681.06-4.51.122-9.022c-.592-4.354,2.026-8.619.371-13a2.207,2.207,0,0,1,3.268.058q.273,5.518.544,11.038C236.427,243.52,239.066,249.5,235.24,254.63Z" transform="translate(51.547 53.514)"/><path class="du" d="M214.272,259.006c-2.57-1.961-7.093-1.3-7.78-5.794l11.078,2.156a2.336,2.336,0,0,1,1.092,2.271C217.724,259.78,216.208,260.071,214.272,259.006Z" transform="translate(34.11 71.186)"/><path class="dv" d="M197.017,258.016q-.186-.99-.374-1.984l3.768-12.8C200.59,248.461,201.6,253.881,197.017,258.016Z" transform="translate(27.66 64.651)"/><path class="dw" d="M192.879,267.815l-6.26-.113,7.308-5.393q.77-1.191,1.63-.064C196.1,264.792,193.253,265.708,192.879,267.815Z" transform="translate(21.096 76.743)"/><path class="dx" d="M192.664,264.41a14.885,14.885,0,0,0-1.628.064c1.238-2.772,2.135-5.878,5.984-6.085C196,260.7,195.5,263.4,192.664,264.41Z" transform="translate(23.988 74.577)"/><path class="dy" d="M213.627,256.3q-.191-.817-.44-1.617,4.639-.211,9.277-.429l.439.473a1.866,1.866,0,0,1-.614,2.3,6.646,6.646,0,0,1-3.79,1.249C216.662,258.149,214.9,257.811,213.627,256.3Z" transform="translate(38.495 71.869)"/><path class="bk" d="M258.607,266.559a31.469,31.469,0,0,1,17.519,9.042c3.176,3.078,2.941,6.227.146,9.38-3.55,4-7.2,7.9-12.2,10.154-2.55,1.041-5.484,1.354-7.3,3.821-2.661,3.712-8.043,3.983-10.3,8.2-1.946,5.709.544,12.617-4.7,17.424-8.936,8.533-19.344,15.134-29.333,22.285a7.525,7.525,0,0,1-5.92,1.572,5.119,5.119,0,0,1-3.1-2.434c-1.43-4.064-2.982-8.1-3.354-12.455.339-3.705,3.331-7.235.725-11.134-2.552-5.117-5.061-2.3-7.558.053a52.627,52.627,0,0,1-7.412,6.239c-2.112,1.049-3.881,3.225-6.674,2.1-.106-2.7,1.541-4.445,3.278-6.181,13.247-13.228,26.539-26.412,39.673-39.752,2.818-2.863,5.933-3.669,9.754-3.646,3.194.02,6.707,1.124,9.487-1.6a9.576,9.576,0,0,1,2.656-4.079,12.1,12.1,0,0,1,1.961-1.468c6.169-2.745.222-5.68.124-8.531a3.025,3.025,0,0,1,1.8-1.88C251.82,263.272,255.31,264.556,258.607,266.559Z" transform="translate(16.192 77.989)"/><path class="dz" d="M229.938,271.4c-.055,2.391-1.594,3.366-3.664,3.833-8.044-.687-16.294,1.377-24.155-1.794,2.7-1.835,5.516-1.259,8.341-.367,4.741-.95,9.807,1.4,14.363-1.415C226.443,269.881,228.154,269.934,229.938,271.4Z" transform="translate(31.246 82.385)"/><path class="ea" d="M179.4,305.337l5.315-2.84a3.39,3.39,0,0,1,1.264,2.37c-.725,3.834-2.57,5.941-6.78,4.376a1.8,1.8,0,0,1,.023-2.472C179.288,306.292,179.347,305.815,179.4,305.337Z" transform="translate(15.924 103.462)"/><path class="eb" d="M212.77,272.689q-4.17.181-8.339.367c-2.146.01-4.2-.273-5.84-1.858l4.548-.3C206.405,271.2,209.834,270.611,212.77,272.689Z" transform="translate(28.936 82.771)"/><path class="ec" d="M182.009,305.079l.159,2.315c-.48,3.634-2.335,4.695-5.653,3.022l-2.042-1.718Q178.241,306.886,182.009,305.079Z" transform="translate(13.141 105.153)"/><path class="ed" d="M229.958,288.872c5.18-5.375,14.866-7.525,12.885-18.02l3.414.3q5.63,5.573,11.26,11.144c-8.015.631-14.215,3.371-14.77,12.688-2.464,1.284-4.71.051-7.012-.591a17.749,17.749,0,0,1-4.281-2.317A3.926,3.926,0,0,1,229.958,288.872Z" transform="translate(49.475 82.738)"/><path class="ee" d="M214.933,255.534l4.877-.109c5.051,2.37,1.218,6.889,2.466,10.179l-.061-.079a1.766,1.766,0,0,1-.045,2.84q-4.56-.941-9.118-1.883c1.39-1.933,2.779-3.866,4.361-6.068l-6.219-2.856Q213.065,256.546,214.933,255.534Z" transform="translate(37.189 72.635)"/><path class="ef" d="M217.826,264.367q.022-1.417.045-2.838c5.008,2.416,11.894.313,15.389,6.386-3.9-.089-7.644-2.38-11.664-.829a2.082,2.082,0,0,1-2.029-.9Z" transform="translate(41.533 76.633)"/><path class="eg" d="M219.088,257.282a4.346,4.346,0,0,1,.308-1.259c4.011-.012,7.2-2.365,10.737-3.747q1.673.938.252,2.227c-2.661,3.973-6.863,4.62-11.118,5.148A1.431,1.431,0,0,1,219.088,257.282Z" transform="translate(42.002 70.573)"/><path class="eh" d="M220.49,255.3l.179,2.37c-1.574,2.453,1.509,5.951-1.8,8.013-3.293-2.793-.448-7.071-2.462-10.178Z" transform="translate(40.6 72.554)"/><path class="ei" d="M231.087,251.373c.348-3.717.7-7.432,5.537-8.064q-1.067,3.622-2.138,7.243Z" transform="translate(50.217 64.701)"/><path class="ej" d="M225.8,256.035q-.127-1.115-.252-2.229c2.241-1.662,4.215-3.831,7.318-3.869C232.127,253.846,229.463,255.521,225.8,256.035Z" transform="translate(46.588 69.041)"/><path class="ek" d="M238.331,237.056,235.062,237q-.953-8.244-1.908-16.489c-1.235-.8-3.042-1.281-1.883-3.4h0l1.948-.06c3.6-3.153,6.5-7.891,12.529-5.6l.04.051c-2.787,5.378,2.553,11.041-.576,16.407-3.273.03-2.592-4.263-5.011-5.259-3.171,4.667,1.743,7.187,2.009,10.744Z" transform="translate(50.094 43.438)"/><path class="el" d="M239.975,230.718c-1.7-1.475-6.014.791-5.5-3.856.415-3.738-1.488-8,1.865-11.058,2.108-1.92,3.917-.427,4.915,1.71,1.132,2.419-.255,5.448,1.718,7.72A6.507,6.507,0,0,1,239.975,230.718Z" transform="translate(52.328 46.108)"/><path class="em" d="M251.493,291.672c3.469-5.784-2.055-8.921-3.871-13.151,5.537,1.276,7.7,6.237,10.95,10.019q.807.794.4,1.4-.372.554-.71.554c-1.9-.788-3.235.571-4.751,1.238A1.228,1.228,0,0,1,251.493,291.672Z" transform="translate(61.046 87.761)"/><path class="en" d="M254.052,286.524q.154-.976.309-1.949c3.891,2.184,4.816,5.943,5.272,9.948q-1.581,1.288-3.161,2.58A19.475,19.475,0,0,0,254.052,286.524Z" transform="translate(65.257 91.725)"/><path class="eo" d="M244.9,216.235c-4.711.669-7.6,5.415-12.531,5.6q-.089-3.669-.18-7.339l12.791-10.965Q244.941,209.884,244.9,216.235Z" transform="translate(50.939 38.649)"/><path class="ep" d="M272.885,279.22l.341-3.781c2.542-.606,3.232,1.355,4.169,2.99.66,3.068,2.825,6.555-2.176,8.1l-.056-.007Q274.025,282.875,272.885,279.22Z" transform="translate(77.59 85.668)"/><path class="b" d="M274.981,333.656c-.056-1.491-.409-2.832-1.844-3.621q-.06-3.56-.118-7.116c.066-10.848.046-21.7.232-32.543.119-7.008,15.779-26.261,22.316-27.465,1.008-.185,2.229.786,3.351,1.223a20.463,20.463,0,0,1,4.043-.594c8.049-.215,16.112.314,24.132-.391.71-.328,1.443-.637,2.148-.971,1.716-.829,2.815-2.424,4.294-3.553-.688-4.457-4.19-3.623-7.093-3.654-7.452-.078-14.906-.026-22.94-.026,2.6-7.379,9.58-5.824,13.545-9.074,2.974-3.285,7.207-1.849,10.76-2.9.7-.291,1.427-.548,2.133-.822a9.907,9.907,0,0,0,1.777-1.273c.624-3.335-1.983-3.29-3.942-3.656-7.675-1.436-6.022-5.2-2.289-9.287,6.519-7.131,13-14.366,22.756-17.231a15.5,15.5,0,0,0,2.477-3.249,20.7,20.7,0,0,1,9.362-13.981c4.369-2.8,8.344-1.787,8.408,3.58.194,15.96,2.635,32.045-1.643,47.858-4.184,5.848-8.509,11.535-16.474,12.339a14.913,14.913,0,0,0-4.607.892,8.275,8.275,0,0,0-3.227,2.63c-1.187,2.658,1.561,5.127.371,7.785-8.753,13.332-19.379,22.846-37.058,20.21a54.838,54.838,0,0,0-17.1.359c-1.709,1.127-4.185,1.805-2.726,4.758a8.658,8.658,0,0,0,3.869,2.156c4.541.9,9.173.056,13.683.849,4.536.8,7.245,3.659,3.934,7.569-9.026,10.662-18.513,20.969-29.882,29.282C276.916,334.259,275.86,333.958,274.981,333.656Z" transform="translate(77.679 31.071)"/><path class="eq" d="M304.593,315.844a2.2,2.2,0,0,1-.971.95c-3.189,1.741-6.229,4.655-10.068,1.278l-1.559-2.254c-3.017-2.431-6.156-2.122-9.358-.42l.179.707a1.8,1.8,0,0,1-1.675,1.668c-4.136-1.008-3.735-4.184-1.815-6.151,14.009-14.361,26.256-30.611,43.663-41.374a16.931,16.931,0,0,0,4.751-3.115,17.866,17.866,0,0,0,1.62-1.643c5.355-14.326,18.075-22.232,28.279-32.285,2.34-2.307,5.592-2.431,7.392,1.478,1.592,12.62.563,25.277.644,37.912a11.126,11.126,0,0,1-4.561,9.382,15.325,15.325,0,0,1-2.395,1.5c-2.261,1.109-4.728,1.908-6.479,3.9-2.793,2.827-4.672,6.277-6.56,9.721a35.541,35.541,0,0,0-3.07,3.735c-1.738,7.76-4.943,14.115-14.1,14.777-.832.144-1.675.252-2.509.369-2.975.717-4.839,3.487-7.791,4.258-2.312.357-4.513.276-6.274-1.561l.117.126C309.848,317.11,309.407,310.961,304.593,315.844Z" transform="translate(80.894 57.022)"/><path class="er" d="M280.774,283.911c3.368-5.521,6.512-5.943,9.358.415C286.988,284.723,283.781,286.562,280.774,283.911Z" transform="translate(82.757 88.509)"/><path class="es" d="M282.67,283.444c.639-.261,1.278-.521,1.916-.786.581,8.806-5.55,3.614-8.883,4.256-.157-.626-.318-1.249-.477-1.875C276.94,280.934,280.374,284.844,282.67,283.444Z" transform="translate(79.123 90.47)"/><path class="be" d="M287.371,284.352c3.543,1.067,6.659-1.231,10.065-1.279C294.654,287.991,291.464,289.717,287.371,284.352Z" transform="translate(87.077 90.742)"/><path class="et" d="M294.064,283.983c-.348-2.213.983-4.107,2.755-3.69,3.073.72,5.254,2.936,4.7,6.648C298.756,286.666,297.543,282.467,294.064,283.983Z" transform="translate(91.424 88.883)"/><path class="eu" d="M308.225,284.714c-2.817,2.944-6.27,1.766-9.587,1.479a3.652,3.652,0,0,1-.142-1.714l6.562-.223A2.248,2.248,0,0,1,308.225,284.714Z" transform="translate(94.334 91.219)"/><path class="ev" d="M287.734,305.065l5.628,1.716a7.432,7.432,0,0,1-9.041,0q-.134-.583-.232-1.172Z" transform="translate(84.928 105.144)"/><path class="b" d="M283.338,302.318c-1.961,2.951-5.425-1.092-7.442,1.6q-.772-1.656-1.542-3.31c2.98-2.552.824-5-.149-7.472q14.9-14.447,29.78-28.918c1.21-1.182,3.111-2.438,1.973-4.5-1.044-1.895-3.2-1.1-4.91-1.321-4.682-.607-9.648,1.435-14.08-1.5,6.1-5.2,13.424-1.958,20.138-2.939,6.725.98,14.063-2.257,20.178,2.926-8.218,3.126-13.052,10.308-19.049,16.052q-11.406,10.925-22.3,22.376C284.265,297.058,279.769,298.39,283.338,302.318Z" transform="translate(78.455 71.596)"/><path class="ew" d="M284.275,306.1l9.042,0c1.915.531,4.187.177,5.493,2.221a2.572,2.572,0,0,1-1.676,1.451q-6.486-.8-12.971-1.6Q284.217,307.139,284.275,306.1Z" transform="translate(84.975 105.823)"/><path class="ex" d="M302.048,310.788l-5.378.17a10.149,10.149,0,0,1-.564-1.332c.129-1.248,1.327-1.355,2.074-1.946,2.173-.376,4.245-.288,5.986,1.311C303.934,310.149,302.8,310.248,302.048,310.788Z" transform="translate(92.797 106.736)"/><path class="ey" d="M300.867,307.842q-1.038.973-2.074,1.946-3.4-.38-6.793-.763.837-.727,1.676-1.451l1.825-.326Z" transform="translate(90.108 106.574)"/><path class="ez" d="M233.335,306.374c2.724-8.634,4.541,3.944,7.05.3-1.627,2.56-1.519,4.9.894,6.939q-2.964.077-5.936.152C234.492,311.352,235.979,308.3,233.335,306.374Z" transform="translate(51.689 103.977)"/><path class="fa" d="M353.441,277.764q-.06,3.917-.119,7.838c-.475,4.336-3.9,6.287-6.921,8.561-6.439,5.12-13.367,4.857-20.542,1.862q-.814,0-1.625-.051c-3.06-9.752,6.118-13.171,10.661-18.005C339.507,273.058,347.164,273.888,353.441,277.764Z" transform="translate(110.817 85.171)"/><path class="fb" d="M356.8,280.873c-3.043,0-6.113.243-9.127-.06-5.378-.538-9.539.591-11.478,6.315-1.632,4.819-9.319,5.375-8.6,11.955a5.626,5.626,0,0,1-3.834-3.8c-2.469-1.422-4.63-3.108-5.269-6.116,2.184-10.545,12.145-19.845,20.665-19.322,2.368,4.528,5.837,7.1,11.233,6.833,2.305-.114,4.731.217,6.449,2.2Z" transform="translate(107.457 82.062)"/><path class="fc" d="M324.974,288.27c7,1.034,13.8-.015,20.54-1.862-.94,4.2-4.164,5.033-7.788,5.269a12.365,12.365,0,0,0-8.816.068C326.314,292.041,325.1,290.767,324.974,288.27Z" transform="translate(111.703 92.926)"/><path class="fd" d="M310.243,306.385c-2.835-5.517,3.258-3.386,4.811-5,1.228-1.276,5.6-1.627,5.445,3.04-2.032,2.714-5.052,2.866-8.041,3.115A3.734,3.734,0,0,1,310.243,306.385Z" transform="translate(101.569 102.19)"/><path class="fe" d="M326.3,306.109l-16.549,4.978a2.83,2.83,0,0,1-.578-2.28c1.056-2.688,3.949-2.578,5.906-3.9,1.86-.758,3.879-.551,5.805-.933C322.6,304.9,324.012,306.614,326.3,306.109Z" transform="translate(101.325 104.429)"/><path class="ff" d="M317.385,306.128c-1.218,2.214-4.685,1.124-5.589,3.8-2.611.4-6.171,2.549-5.555-3.01,1.456-2.262,3.987-2.158,6.179-2.807l.71-.083C314.335,305.158,316.443,304.46,317.385,306.128Z" transform="translate(99.388 104.465)"/><path class="dk" d="M314.628,306.907q-2.122-1.05-4.248-2.1c3.1-.986,6.146-2.332,9.542-1.877a4.228,4.228,0,0,1,.139,1.786C318.817,306.851,316.49,306.3,314.628,306.907Z" transform="translate(102.145 103.686)"/><path class="fg" d="M319.116,287.541c-4.121.5-8.238,1-10.077-4.1,3.561-2.105,7.262-1.074,10.945-.49.314.278.625.563.937.846Z" transform="translate(101.267 90.154)"/><path class="fh" d="M299.7,311.013l2.117-1.8a8.53,8.53,0,0,0,6.565-2.065c1.488.879,3.315,1.185,4.462,2.64C308.694,312.723,304.171,311.624,299.7,311.013Z" transform="translate(95.148 106.51)"/><path class="fi" d="M321.9,282.629q1.792,2.6,3.583,5.2c-4.121,1.825-5.352-4.038-9.029-3.393l.088.005a1.549,1.549,0,0,1-.672-1.392q.089-.8.3-.806a4.425,4.425,0,0,1,3.6-.988A5.161,5.161,0,0,1,321.9,282.629Z" transform="translate(105.735 89.516)"/><path class="fj" d="M309.4,310.692c-1.774-.394-3.593-.713-4.462-2.64l2.1-2.277c.741,3.055,3.359,2.64,5.557,3.007a2.732,2.732,0,0,0-.113,1.125Z" transform="translate(98.584 105.609)"/><path class="al" d="M327.353,290.284c2.921-2.213,5.86-2.155,8.816-.068Q331.76,290.251,327.353,290.284Z" transform="translate(113.261 94.386)"/><path class="cu" d="M197.375,238.9l.209-5.979c2.544-2.621,7.364,2.58,9.145-2.663l-.119.156c1.4-2.989,1.359-6.419,2.853-9.383,3.58-4.24,8.88-2.623,13.325-3.935a4.892,4.892,0,0,1,4,1.367c1.19,2.1.91,3.781-.932,5.534-8.89,8.456-17.674,17.022-26.495,25.55l-2.477-2.285a5.67,5.67,0,0,1-.986-2.016,10.735,10.735,0,0,1-.1-3.4A5.364,5.364,0,0,1,197.375,238.9Z" transform="translate(27.05 47.526)"/><path class="cw" d="M239.3,214.64q.941,1.7,1.883,3.4l-15.013-.074c-2.236-1.455-4.955,0-7.234-1.2a1.323,1.323,0,0,1,.439-2.026,3.865,3.865,0,0,0,1.562-.134Z" transform="translate(42.066 45.903)"/><path class="fk" d="M219.692,219.756l-3.743.227a4.58,4.58,0,0,1-3.748.333c-1.928-.809-4.481-.318-5.65-2.711l4-1.6c4.043-2.32,8.291.765,12.375-.475a1.338,1.338,0,0,1,.743,1.289q-.1.784-.323.784Z" transform="translate(34.149 46.234)"/><path class="fl" d="M221.956,216.818c-4.419,2.767-8.622-1.387-12.986-.4,5.307-3.368,11.139-1.251,16.736-1.6q-.271.7-.526,1.407C224.329,217.652,223.176,217.417,221.956,216.818Z" transform="translate(35.733 45.82)"/><path class="fm" d="M206.8,225.408c-.852,8.432-6,2.125-9.145,2.663q-1.02-1.787-2.04-3.578,2.7.362,5.392.727C202.872,227.181,204.829,226.421,206.8,225.408Z" transform="translate(26.984 52.378)"/><path class="dv" d="M214.392,218.087q1.9.258,3.8.52c-3.6,3.73-9.656-.844-12.966,3.849-1.94-.419-2.691-1.407-1.57-3.288l-.113.151C206.8,215.785,210.68,217.667,214.392,218.087Z" transform="translate(31.908 47.609)"/><path class="fn" d="M204.321,218.393q.787,1.643,1.572,3.285c-.861,2.759-.554,6.03-3.474,7.881C202.315,225.711,201.105,221.676,204.321,218.393Z" transform="translate(31.241 48.383)"/><path class="fo" d="M214.229,218.475q-5.426.613-10.851,1.23c.063-3.9,3.073-2.785,5.253-3.086C210.472,217.306,212.794,216.552,214.229,218.475Z" transform="translate(32.071 47.221)"/><path class="fp" d="M341.413,159.379q6.268,0,12.534,0,2.857,1.735,5.716,3.472-.03.715.007,1.43c.975,2.05,1.062,4.193-.356,5.949a132.051,132.051,0,0,1-19.624,19.635c-2.158,1.753-4.839,2.6-7.083-.3-2.38-6.351-.947-12.938-1.223-19.42a15.732,15.732,0,0,1,.384-2.954C332.865,161.984,337.174,160.724,341.413,159.379Z" transform="translate(115.783 9.736)"/><path class="fq" d="M334.435,165.357q.094,11.086.187,22.172c5.953,3.9,4.144,9.729,3.823,15.2-2.112,16.322-.41,32.724-1.018,49.071a36.112,36.112,0,0,1,1.225,14.154c-2.716,14.75-.94,29.527-.367,44.565,11.333-8.93,23.187-16.7,21.29-34.051-1.253-11.452-.053-23.135-.354-34.726-.324-4.3.5-8.605-.132-12.9-.076-16.678-.232-33.353.151-50.026-.521-5.335-.227-10.518,2.827-15.187l1.7,2.009q.119,37.5.242,75c1.622,16.206.29,32.457.728,48.679q0,7.623,0,15.246c.192,10.717-.394,21.446.31,32.135-1.4,5.494-3.272,3.267-4.533.063-1.456-3.7-.7-7.723-.914-11.611-.207-3.836.7-7.75-.8-12.067-6,4.073-10.1,9.592-14.545,14.742a8.472,8.472,0,0,1-1.916,1.423c-3.417-.227-.851,3.661-2.952,4.419-7.659,3.4-7.659,3.4-9.133-6.025a20.253,20.253,0,0,1,.434-4.726c.147-16.325.877-32.646-.434-48.948a77.593,77.593,0,0,1,.619-15.417c-.271-16.729.818-33.475-.645-50.188-.175-5.16-.036-10.322-.1-15.483.055-6.568-.18-13.143.157-19.7C330.435,170.062,329.99,166.323,334.435,165.357Z" transform="translate(115.053 12.516)"/><path class="fq" d="M334.6,203.046c-.237-4.935.905-10.039-1.776-14.679a68.58,68.58,0,0,0,25.778-26.023l1.665,2.12q-.035,7.417-.07,14.836C353,188.65,346.688,198.96,334.6,203.046Z" transform="translate(116.846 11.678)"/><path class="fr" d="M312.888,161.073c.007-.513,0-1.028-.007-1.541l34.394-.116c.788,3.532-1.638,4.1-4.2,4.564-6.016-.425-12.044-.142-18.073-.275-4.169-.3-8.663.9-12.124-2.633Z" transform="translate(103.783 9.76)"/><path class="cq" d="M332.146,163.095a4.905,4.905,0,0,0,3.136-3.654l6.138-.063c-2.654,2.4-6.159,3.849-7.97,7.181-1.362.311-1.95-.457-2.256-1.617A2.452,2.452,0,0,1,332.146,163.095Z" transform="translate(115.776 9.735)"/><path class="fs" d="M179.873,315.552c2.092-.622,4.278-1.066,5.653-3.023,3.54-.629,5.895-2.246,5.286-6.335,4.342.008,6.027-3.866,8.859-6.073,2.8-2.734,5.62-4.746,8.556-.162,1.372,3.121.809,6.029-.975,8.8-2.188,5.39-6.595,8.935-10.626,12.8a14.573,14.573,0,0,1-2.069,1.481c-4.162,1-6.987,6.462-12.284,3.735-3.728-3.222-9.271.094-12.875-3.571C168.61,314.781,176.807,318.681,179.873,315.552Z" transform="translate(9.783 100.017)"/><path class="ft" d="M178.1,317.2c4.733-.323,7.373-5.461,12.3-5.344,2.477,3.523-.117,5.671-2.444,7.321-3.51,2.487-5.64,6-8.094,9.309-1.66.457-2.631.066-2.314-1.895-.139-3.038-2.924-5.68-1.345-8.976Q177.15,317.406,178.1,317.2Z" transform="translate(13.955 109.588)"/><path class="fu" d="M177.517,320.759l1.86,1.953c2.722,1.978,4.208,4.24,1.708,7.421-2.4-.2-3.033-2.042-3.641-3.911q-.844-2.731-1.686-5.463C176.344,320.748,176.931,320.749,177.517,320.759Z" transform="translate(13.983 115.417)"/><path class="x" d="M357.682,276.86l-2.451.172c-3.677-.261-4.87-2.315-4.152-5.749.139-1.354-.108-2.832,1.187-3.829q.693.372,1.365.781C353.083,272,356.237,274.031,357.682,276.86Z" transform="translate(128.668 80.513)"/><path class="fv" d="M350.639,259.576q-.027-24.707-.055-49.415l1.7,0q.04,24.7.079,49.393Q351.519,260.816,350.639,259.576Z" transform="translate(128.474 42.992)"/><path class="fw" d="M352.506,279.882l-.45,4.462a1.194,1.194,0,0,1-1.544-.478q.057-17.381.114-34.766c.574-.854,1.139-.809,1.7.017Z" transform="translate(128.427 68.085)"/><path class="fx" d="M352.277,254.661q-.849-.012-1.7-.017.03-7.308.06-14.616.866,0,1.729-.018Q352.323,247.335,352.277,254.661Z" transform="translate(128.472 62.54)"/><path class="fy" d="M359.149,282.79c.521.141,1.036.3,1.546.475a5.938,5.938,0,0,0,3.416,5.12c-11.882,4.142-13.305,3.48-19.682-9.156-2.3-2.59-5.653-4.2-7.106-7.583,3.871-8.92,11.985-13.916,18.8-21.527C359.447,261.645,354.423,272.7,359.149,282.79Z" transform="translate(119.79 69.16)"/><path class="fz" d="M333.4,264.089c-1.132,10.007,4.928,1.86,7.346,2.909a3.283,3.283,0,0,1,2.568-2.35,6.2,6.2,0,0,1,3.906,5.764q1.983,5.784,3.965,11.573c-.46.462-.918.918-1.377,1.375-2.976-.079-6.006-.559-8.917-.16-7.012.963-9.972-1.963-9.438-8.839-2.729-3.48-2.975-7.09-.571-10.838Q332.5,262.188,333.4,264.089Z" transform="translate(114.489 77.578)"/><path class="ga" d="M342.16,270.311c-2.322-.945-2.8-3.278-3.879-5.158q-2.016-.032-.975-1.759l.258-.266c4.091.913,6.768,3.153,7.109,7.583Z" transform="translate(119.547 77.679)"/><path class="gb" d="M251.26,286.468q1.005.025,2.014.055c-.314,3-.854,5.868-4.1,7.2l-1.15.015C247.682,290.678,249.274,288.485,251.26,286.468Z" transform="translate(61.279 92.965)"/><path class="gc" d="M249.606,290.864c.384-.012.77-.017,1.152-.013-.012,3.171-1.152,5.7-4.083,7.227l-1.112.17C245.753,295.151,248.05,293.212,249.606,290.864Z" transform="translate(59.697 95.834)"/><path class="gd" d="M247.176,295.387a8.609,8.609,0,0,0,1.117-.169,6.392,6.392,0,0,1-5.15,6.072C242.83,298.193,244.219,296.254,247.176,295.387Z" transform="translate(58.084 98.695)"/><path class="ge" d="M270.123,299.842C253.39,309.83,242,325.149,230.088,339.95c-1.978,2.408-3.161,5.426-5.686,7.416a4.753,4.753,0,0,1-.559,1.1c-1.269,2.388-3.255,4.2-5,6.2-4.27,5.807-8.476,11.67-14.356,16.037-5.944,3.3-11.824,3.7-17.6-.394-2.53-4.69-.156-8.288,2.918-11.411q33.946-34.487,68.431-68.438c3.422-3.376,7.457-5.3,12.425-3.311C277.338,291.667,274.184,295.775,270.123,299.842Z" transform="translate(20.568 92.886)"/><path class="gf" d="M239.036,301.388c1-3.861,6.464-7.814-.235-11.52-1.415-2.213-6.833-.793-5.223-5.752,2.782-.644,4.731,1.287,6.989,2.264C244.535,291.839,248.547,297.3,239.036,301.388Z" transform="translate(51.655 91.34)"/><path class="gg" d="M187.85,336.505c5.186,5.2,11.29,1.549,16.994,1.759-5.886,6.1-12.347,3.378-18.77,1.218a2.464,2.464,0,0,1-.323-3.328A1.513,1.513,0,0,1,187.85,336.505Z" transform="translate(20.205 125.326)"/><path class="gh" d="M188.687,339.388q.012,1.5.023,3l-2.2-1.187c-.932-3.523-5.148-5.145-5.279-9.13a2.9,2.9,0,0,1,2.408-.576C186.579,333.325,189.7,335.039,188.687,339.388Z" transform="translate(17.57 122.417)"/><path class="gi" d="M205.77,330.085c.222-3.234,2.037-5.183,5-6.2C210.606,327.161,209.071,329.335,205.77,330.085Z" transform="translate(33.637 117.468)"/><path class="gj" d="M209.131,326.154a11.723,11.723,0,0,1,5.685-7.416C214.725,322.591,213,325.192,209.131,326.154Z" transform="translate(35.838 114.098)"/><path class="b" d="M274.854,228.908c-.02-4.4.437-8.862-1.648-13,4.645-.04,6.558-4.025,9.286-6.656,10.149-9.8,20.118-19.781,30.261-29.8-5.491-4.309-12.9,2.155-15.933-5.478,1.824-1.071,3.816-.76,5.779-.725,5.031.114,10.06.02,15.1-.008,8.478.233,16.968-.465,25.421.44a7.086,7.086,0,0,1,2.709,1.372c.97,5.4-3.611,5.094-6.173,4.849-11.626-1.11-18.1,6.3-25.371,14.273-.338.174,1.9.127.875-.526-.493-.313-.382-.644.371-.788,5.274-1,11.056-4.134,14.356,3.35-6.363,4.127-13.486,1.916-20.248,2.14-5.044.165-8.164,1.39-8.251,6.893-.667,1.991-2.337,3.455-3.5,6.186,8.612.579,16.726-.134,24.779.417,5.339.366,5.327.53,6.247,5.334-10.022,3.083-20.3.809-30.428,1.466-3.593.233-7.215-.185-10.775.412-2.362.7-3.292,2.779-4.4,4.68C281.039,226.358,279.337,229.919,274.854,228.908Z" transform="translate(77.8 18.774)"/><path class="eq" d="M328.094,160.417q6.429.012,12.859.023c-1.043,6.9-6.739,11-10.015,16.582-6.656,1.1-13.348.372-20.023.634-7.078-1.057-14.767,2.441-21.26-2.868,3.757-2.911,8.26-1.958,12.172-1.41C313.764,175.056,322.017,170.161,328.094,160.417Z" transform="translate(88.572 10.416)"/><path class="gk" d="M290.478,169.1l22,.531a1.884,1.884,0,0,1-.715,2.585,8.768,8.768,0,0,1-2.817,1.13c-6.068.357-12.145.9-18.186-.405a5.146,5.146,0,0,1-2.366-1.9Z" transform="translate(87.748 16.103)"/><path class="gl" d="M289,170.272l2.012.18a4.309,4.309,0,0,1,1.329,1.445,7.444,7.444,0,0,1,.346,1.971,7.2,7.2,0,0,1-.283,1.986,3.947,3.947,0,0,1-1.269,1.514l-3.659-1.489C287.681,173.928,286.809,171.684,289,170.272Z" transform="translate(87.142 16.87)"/><path class="gm" d="M179.694,338.909q-.854-3.711-1.708-7.421c-.561-4.362,1.175-7.406,4.978-9.65,2.719-1.6,6.343-2.717,6.016-7.038l-.139-.367a7.688,7.688,0,0,0,3.133-1.683c9.143-7.728,9.147-7.727,12.589,3.71a9.293,9.293,0,0,1-1.837,8.643c-1.638,7-5.752,12.347-11.2,16.807-2.368,1.936-4.746,3.786-8.059,2.135a6.322,6.322,0,0,1-3.158-3.887A6.281,6.281,0,0,0,179.694,338.909Z" transform="translate(15.374 106.641)"/><path class="gn" d="M179.368,327.175l2.828,2.3c1.63,1.42,3.192,2.865,2.115,5.354q-.909.025-1.817.041C180.566,332.664,178.994,330.314,179.368,327.175Z" transform="translate(16.311 119.624)"/><path class="go" d="M216.892,216.125l3.224-.589c2.383.841,5.335-.6,7.323,1.824l-10.737-.035A3.257,3.257,0,0,0,216.892,216.125Z" transform="translate(40.797 46.512)"/><path class="fd" d="M200.24,237.164a3.836,3.836,0,0,0-.675,1.623c-3.886,1.014-7.829.645-7.939-4.053-.134-5.832,4.587-4.8,8.427-4.309q.1,1.872.21,3.742C198.4,235.152,198.913,236.155,200.24,237.164Z" transform="translate(24.373 56.003)"/><path class="gp" d="M275,209.075l7.24-5.5a12.012,12.012,0,0,1,5.721.6c10.606,1.167,21.247.152,31.858.583,2.969.121,6.648-.417,8.025,2.9,1.362,3.277-1.62,5.527-3.5,7.808-7.852,9.512-16.746,16.776-30.331,14.51a11.685,11.685,0,0,0-7.97,1.038,11.45,11.45,0,0,0-2.453,3.373,6.921,6.921,0,0,1,2.976.079c2.645,1.757,6.363,1.142,8.556,3.877-3.2,9.019-11.7,13.426-17.608,20.079-1.878,2.113-4.25,1.392-4.117-1.69C274.076,240.851,271.173,224.844,275,209.075Z" transform="translate(77.65 38.607)"/><path class="gq" d="M289.943,227.01c-2.833-1.7-8.192,2.653-9.054-3.775.369-.346.74-.69,1.107-1.043,4.38-2,8.89-1.314,13.4-.664a25.987,25.987,0,0,0,16.163-.323c5.138.217,11.222-2.724,14.345,4.253-4.465,2.39-9.393.566-14.014,1.542Z" transform="translate(82.832 49.941)"/><path class="gr" d="M323.311,233.162c.061,2.019.364,4.121-1.825,5.375-9.559-4.63-19.251-3.955-29.005-.725a12.586,12.586,0,0,1-2.347,1.2c-.738.985-1.01-.015-1.44-.338-.415-5.1,1.264-8.253,7.053-7.616C304.912,232.063,314.4,228.848,323.311,233.162Z" transform="translate(87.904 56.534)"/><path class="gs" d="M223.574,264.362l2.029.9,0,.079c3.719,4.25,4.741,7.94-2.082,9.994l.132,0-5.115.258c-2.249-1-6.045,1.157-6.783-2.416-.488-2.367,2.509-3.732,3.995-5.509A8.621,8.621,0,0,1,223.574,264.362Z" transform="translate(37.525 78.458)"/><path class="gt" d="M183.17,364.056l-2.115-5.354c7.866-.371,14.973-8.12,16.9-18.426,3.25-.793,5.375-3.225,7.743-5.3,11.588-6.848,21.969-15.377,32.7-23.422,5.8-2.307,6.2-8.513,9.221-12.83,2.092-5.567,5.541-10.338,8.814-15.22a8.868,8.868,0,0,1,8.228.124c1.274-.023,2.462.137,3.126,1.438q2.611,2.875,5.223,5.752c-4.665-.637-7.975,1.446-11.2,4.7q-33.112,33.42-66.5,66.566c-2.645,2.638-5.218,5.185-4.7,9.352-.6-.018-1.2-.026-1.8-.026Z" transform="translate(17.452 90.395)"/><path class="gu" d="M199.572,318.671l-3.745-8.256c-4.536,1.036-6.385,6.611-11.323,6.07q5.694-6.064,11.391-12.127c1.852-.427,2.734.07,2,2.1.905,4.139,3.671,7.778,3.29,12.263Q200.334,320.037,199.572,318.671Z" transform="translate(19.71 104.589)"/><path class="gv" d="M226.411,295.881c-2.156,5.2-3.3,11.321-10.709,11.722,6.36-5.062,1.3-13.314,5.311-19.033a5.236,5.236,0,0,1,1.877,2.411,4.819,4.819,0,0,0,2.83,2.517C226.616,294.1,227.424,294.736,226.411,295.881Z" transform="translate(40.142 94.342)"/><path class="gw" d="M219.24,295.807q-.166-2.055-.329-4.111c1.178-5.7,8.814-2.246,10.413-7.348.717-.793,1.375-.71,1.983.132q-3.5,7.263-7,14.525l-1.195-1.584C222.176,296.037,221.066,295.066,219.24,295.807Z" transform="translate(42.243 91.217)"/><path class="gx" d="M195.7,301.027c-3.129-2.717-4.506.981-6.664,1.82-1.911.438-2.635-.306-2.2-2.208,3.753-5.195,7.483-9.016,11.005.177Q196.914,302.393,195.7,301.027Z" transform="translate(21.158 98.716)"/><path class="gy" d="M189.717,298.507l2.2,2.206c-2.85,2.269-3.709,8.64-9.6,4.655,0-.007.048-.261.048-.26Z" transform="translate(18.279 100.849)"/><path class="gz" d="M218.849,274.926c4.258-2.585,4.258-6.059,2.084-9.991,3.656.53,5.362,2.825,4.849,6.3C225.187,275.252,222.083,275.412,218.849,274.926Z" transform="translate(42.203 78.863)"/><path class="ha" d="M192.64,298.824l2.143-.21c3.313,4.3,1.195,7.932-1.4,11.515q-1-1.052-2-2.1A13.625,13.625,0,0,0,192.64,298.824Z" transform="translate(24.218 100.919)"/><path class="hb" d="M195.144,312.951q.807.045,1.614.053l2.251,2.055c-.584,4.683-3.9,5.378-7.743,5.3C192.776,318.007,196.119,316.608,195.144,312.951Z" transform="translate(24.138 110.308)"/><path class="hc" d="M227.185,285.829l-1.981-.134c.869-4.8,5.117-2.886,7.864-3.954q1.333,1.2,2.671,2.408C232.8,284.238,229.558,282.828,227.185,285.829Z" transform="translate(46.364 89.869)"/><path class="b" d="M333.816,326.272c4.5-2.4,5.7-6.148,5.57-11.142-.329-12.587-.141-25.187-.159-37.783-5.2-3.712-4.513-8.21-1.729-12.986,3.647-16.177,1.137-32.575,1.657-48.862.154-4.844-2.4-3.424-5.2-1.59-5.728,3.753-6.709,10.186-9.469,15.622-1.446-1.192-2.037-3.014-3.263-4.359-1.652-1.739-4.3-1.2-6.073-2.64a4.942,4.942,0,0,1-.735-2.239c.87-3.035.5-6.2.927-9.281,2.706-2.125,6.757-2.525,8.134-6.375a5.126,5.126,0,0,1,2.1-1.491c8.023-2.681,11.27-8.5,11.281-16.666.008-6.047-.6-12.155.544-18.113.326-1.7-.205-7.639,4.764-2.888-.214,9.161-.036,18.306-.1,27.455q0,7.608,0,15.208,0,25.091,0,50.175,0,7.742,0,15.486c-.065,16.666.132,33.333-.1,50C340.143,327.578,337.721,329.377,333.816,326.272Z" transform="translate(104.787 12.55)"/><path class="b" d="M338.956,198.039l.036,1.931c.7,1.048-.379,2.656,1.12,3.459a28.45,28.45,0,0,0,3.086,2.626,13.19,13.19,0,0,1,3.043,2.876c-11.879,2.691-18.248,12.369-26.712,20.741,3.863,2.673,10.042-.723,11.732,4.971.637,2.145.617,4.217-1.971,5.229-3.053-6.186-8.774-4.238-13.779-4.5q-6.677.02-13.34.056c-7.834-.453-15.712.826-23.513-.626.927-5.661,5.65-4.281,8.615-3.7,17.153,3.349,26.606-7.159,36.878-20.233-11.371,0-21.432.109-31.489-.06-3.5-.058-7.3,1.216-10.431-1.566,2.679-3.295,6.482-2.688,10.007-2.742,9.913-.151,19.827,0,29.715-.094,3.594.444,5.335-2.079,7.114-4.533C332.644,201.326,334.771,197.023,338.956,198.039Z" transform="translate(81.372 34.953)"/><path class="b" d="M359.5,224.517c.073,4.394-.508,8.877,1.731,12.984-13.6,9.193-25.6,19.877-32.853,35.022-1.64-2.065-4.361-1.759-6.424-2.906-12.882-1.365-25.863.756-38.721-1.208a5.266,5.266,0,0,1-2.418-2.014c7.526-3.349,15.524-1.822,23.142-1.331,10.234.66,18.234-1.822,24.411-10.189,2.666-3.611,6-6.73,9.024-10.073.242-.314.483-.629.718-.948,1.7-1.417,4.324-1.3,5.574-3.4a4.157,4.157,0,0,0-.306-2.813c-.544-1.211-1.274-2.4-.6-3.795C351.018,235.52,353.873,227.531,359.5,224.517Z" transform="translate(82.784 52.394)"/><path class="hd" d="M289.54,237.367l.278-2.166a10.187,10.187,0,0,1,4.528-1.668c7.6-.038,15.2-.551,22.781.318a4.251,4.251,0,0,1,3,3.571A80.333,80.333,0,0,1,289.54,237.367Z" transform="translate(88.497 58.177)"/><path class="he" d="M320.015,238.295l-3.06-2.428a80.317,80.317,0,0,0-23.5.012q-1.872.1-3.743.2c7.205-7.493,16.325-2.019,24.426-3.543,3.747-.7,6.446.937,6.649,5.238A.782.782,0,0,1,320.015,238.295Z" transform="translate(88.607 57.303)"/><path class="hf" d="M314.54,226.243c-4.965-3.843-10.651-1.556-16.029-1.887-.088-.427-.174-.852-.263-1.281.882-2.458,3.1-2.894,5.238-3.47.917-.023,1.825-.033,2.742-.03,3.9.778,10.533-2.3,8.868,6.3Z" transform="translate(94.2 49.157)"/><path class="hg" d="M321.9,220.359c2.616,1.609,2.884,3.859.678,5.663s-5.051,3.56-6.934-.7c-.142-1.494-.271-2.987,1.033-4.122C318.281,220.094,319.945,219.323,321.9,220.359Z" transform="translate(105.534 49.351)"/><path class="hh" d="M303.5,256.948l-20.171.64c-1.355-.442-2.967-.468-3.555-2.17a6.041,6.041,0,0,1,2.558-1.817c6.79-.836,13.583-1.6,20.276.679A1.976,1.976,0,0,1,303.5,256.948Z" transform="translate(82.098 70.898)"/><path class="hi" d="M313.013,226.446c-.534-7.841-6.931-4.488-10.926-5.721q-.884-.544-.579-1.072c.2-.349.4-.525.6-.525,5.1.632,13.228-3.968,12.269,7.111A2.344,2.344,0,0,0,313.013,226.446Z" transform="translate(96.284 48.587)"/><path class="hj" d="M282.044,257.371l-.771-.053-.771.033c-3.853-3.528-.9-5.491,1.733-7.528l1.885.556a1.375,1.375,0,0,1,.679,1.5c-.227.874-.559,1.716-.818,2.583a5.16,5.16,0,0,1-.644,1.675A3.942,3.942,0,0,1,282.044,257.371Z" transform="translate(81.366 68.967)"/><path class="hk" d="M321.791,221.481l-5.1,1.35c-1.332-1.066-1.188-2.218-.205-3.421C319.309,217.39,321.253,217.635,321.791,221.481Z" transform="translate(105.64 48.23)"/><path class="hl" d="M321.076,207.671c-1.738.349-3.442.626-3.987-1.748.3-1.888,1.473-3.323,2.492-4.842a4.447,4.447,0,0,1,1.766-1.273c2.29,1.6,1.633,3.877,1.387,6.059Z" transform="translate(106.539 36.213)"/><path class="hm" d="M314.552,233.112l3.4-2.014a4.892,4.892,0,0,1,1.506,2.188,6.757,6.757,0,0,1-.3,4.015c-.738,1.324-1.756,2.016-3.32,1.458C314.332,237.122,312.219,235.624,314.552,233.112Z" transform="translate(104.197 56.704)"/><path class="hn" d="M317.537,218.915c.068,1.142.136,2.285.205,3.424q-.578,1.8-1.154,3.608C312.605,223.022,313.778,220.793,317.537,218.915Z" transform="translate(104.585 48.725)"/><path class="ho" d="M314.918,232.315c.015,2.165.381,4.134,2.779,4.966a1.685,1.685,0,0,1-.713,1.837l-.635.576C313.74,237.647,310.99,235.628,314.918,232.315Z" transform="translate(103.831 57.501)"/><path class="hp" d="M316.175,233.437c.018-.574.028-1.147.03-1.721l3.414-1.562,2.744,3.672C320.191,235.423,318.133,235.213,316.175,233.437Z" transform="translate(105.94 56.086)"/><path class="eq" d="M340.309,264.229q-.114,5.176-.225,10.35c-8.273,4.768-16.079,9.961-18.306,20.206a10.793,10.793,0,0,0-1.4-.255c-6.08-6.08-5.372-12.273-.309-18.54-1.253-5.1,3.7-7.01,5.423-10.581,3.551-.766,6.975-2.034,10.561-2.673C337.612,262.85,339.533,261.907,340.309,264.229Z" transform="translate(105.856 77.361)"/><path class="eq" d="M322.513,288.629q-.139.9-.281,1.807a18.17,18.17,0,0,1-11.96-.356c-1.039-1.115-2.067-2.226-3.1-3.336,11.127,1.332,12.339-7.273,14.727-14.7C323.382,277.523,324.193,283.03,322.513,288.629Z" transform="translate(100.044 83.518)"/><path class="hq" d="M316.686,289.5l-.616-16.587c.813-1.668,2.323-2.074,3.987-2.206-2.554,6.221-1.087,12.379.308,18.538Z" transform="translate(105.872 82.645)"/><path class="hr" d="M294.106,257.06c0-.467,0-.932,0-1.4,1.774-2.287,4.347-2.419,6.911-2.583,4.9-.1,9.822.154,14.717-.475a4.462,4.462,0,0,1,2.666,1.122c-.455,2.294-1.675,3.785-4.149,3.962Z" transform="translate(91.487 70.787)"/><path class="hs" d="M314.987,254.744l-2.352.281c-3.6,1.248-7.313.338-10.962.6a2.97,2.97,0,0,1-2.328-1.119,2.73,2.73,0,0,1,.832-2.383c3.724-1.81,7.7-.73,11.556-.976q.645.027,1.291.053a4.215,4.215,0,0,1,3.239,3.949A4.755,4.755,0,0,1,314.987,254.744Z" transform="translate(94.901 69.768)"/><path class="ht" d="M315.41,254.157c-2.453-3.51.953-3.915,2.726-4.384,3.3-.87,5.78.367,6.318,4.141a3.952,3.952,0,0,1-2.031,1.173C320.05,255.062,317.647,255.228,315.41,254.157Z" transform="translate(104.877 68.76)"/><path class="hu" d="M334.282,265.556l-5.365-.255c-1.574.177-3.82,1.777-3.659-1.724l1.461-.788c2.668.458,5.057-.472,7.432-1.479q.809-1.393,1.615,0,.119,2.157.237,4.318l-.854-.2Z" transform="translate(111.884 76.033)"/><path class="hv" d="M315.07,253c2.31-1.6,4.625-2.9,6.989-.084-1,5-2.429,5.4-6.793,1.923Z" transform="translate(105.217 69.913)"/><path class="hw" d="M315.2,254.252c2.851,1.433,5.551,2.328,6.793-1.923l2.055-.159c.713,3.7-1.271,5.5-4.569,5.886C316.957,258.348,314.832,257.538,315.2,254.252Z" transform="translate(105.277 70.504)"/><path class="hx" d="M327.546,262.4l3.657,1.724c-3.01,1.385-5.867,3.795-9.448,1.435C323.164,263.554,325.271,262.824,327.546,262.4Z" transform="translate(109.595 77.206)"/><path class="hy" d="M305.61,286.638l-3.164-.458c2.029-1.991,3.449-4.74,6.616-5.315C309.473,283.722,307.819,285.347,305.61,286.638Z" transform="translate(96.949 89.295)"/><path class="dq" d="M198.934,236.275c-2.261-.487-6.509.794-5-3.611,1-2.923,3.33,0,5.023.614Q198.945,234.777,198.934,236.275Z" transform="translate(25.679 56.892)"/><path class="hz" d="M330.772,193.794q-.089-14.641-.179-29.278c-.379-1.63.217-2.277,1.872-1.858q.725.916,1.45,1.835.159.787.263,1.579c-3.308,9.054-.5,18.5-1.779,27.686Q331.615,195.046,330.772,193.794Z" transform="translate(115.311 11.801)"/><path class="fq" d="M334.66,196.336l25.6-23.746q-.017,25.575-.036,51.151c-5.049,9.425-13.593,15.67-21,22.94-1.676,1.647-3.915,2.954-6.335.826-.012-14.214-.071-28.428,0-42.642C332.907,201.953,331.957,198.734,334.66,196.336Z" transform="translate(116.79 18.388)"/><path class="fq" d="M360.335,211.467c.005,13.676-.328,27.364.162,41.021.238,6.674-1.63,11.573-6.661,15.94-5.494,4.769-10.343,10.277-15.6,15.334-1.718,1.655-5.049,3.858-4.985-.556.235-16-2.371-32.11,1.494-47.987,5.354-9.35,13.744-15.89,21.436-23.064A3.4,3.4,0,0,1,360.335,211.467Z" transform="translate(116.706 43.563)"/><path class="fq" d="M360.192,216.4q-12.794,11.875-25.585,23.753c-.094-4.364.6-8.837-1.776-12.887,8.059-2.254,11.5-9.976,17.434-14.762,3.465-2.8,6.61-5.989,9.9-9.006Q360.177,209.951,360.192,216.4Z" transform="translate(116.849 38.63)"/><path class="ia" d="M330.674,241.751q-.02-25.623-.043-51.245.809-1.259,1.607.007l.056,51.216C331.766,242.565,331.227,242.613,330.674,241.751Z" transform="translate(115.407 29.709)"/><path class="ib" d="M332.244,281.572l-.808.008-.808-.012q.012-25.63.025-51.26c.53-.861,1.057-.819,1.582,0Z" transform="translate(115.406 55.774)"/><path class="ic" d="M332.226,235.86l-1.582,0q.01-7.31.022-14.623.812-.007,1.62-.023Z" transform="translate(115.416 50.228)"/><path class="id" d="M332.238,196.063c-.536,0-1.071,0-1.607-.007q.022-7.311.045-14.619.814-.012,1.628-.036Q332.269,188.731,332.238,196.063Z" transform="translate(115.407 24.158)"/><path class="ie" d="M339.709,263.828q.484.879.971,1.759-1.293.874-2.593,1.744c-.8-2.274-4.677-1.009-4.8-4.137C335.683,261.137,337.538,264.1,339.709,263.828Z" transform="translate(117.144 77.244)"/><path class="eq" d="M362.568,164.147l-1.872,1.858c-3.856,8.43-1.688,17.345-1.612,25.973.073,8.251-6.067,11.473-10.518,16.13-1.953,2.044-2.714-1.451-4.27-1.862-2.036,1.86-5.564-.566-7.138,2.519-.245,1.033-.4,2.079-.7,3.09a5.878,5.878,0,0,1-1.306,1.678c4.743,3.065,2.2,6.1-.033,9.147-3.211.993-4.62,6.438-9.312,3.768-2,.616-2.992-.354-3.447-2.178-8.541-3.232-17.414-.9-26.114-1.518-3.535-.253-7.1-.041-11.728-.041a21.87,21.87,0,0,1,8.653-9.2,6.779,6.779,0,0,1,2.446-1.743c7.727-1.522,15.551-.333,23.3-.819,5.448-.071,3.407-3.963,3.442-6.795-5.155-3.553-11.273-.061-17.469-2.524,7.455-8.667,13.625-18.2,27.234-15.576,2.271.437,4.922.531,6.634-1.852-1.223-1.827-.41-4.045-1.167-5.948a8.188,8.188,0,0,1-.6-3.268c-1.372-1.62-3.909-2.775-.935-5.455,3.009-2.712,5.526-5.969,8.26-8.988,6.115.821,12.64-2.175,18.4,1.974A13.079,13.079,0,0,0,362.568,164.147Z" transform="translate(85.209 10.311)"/><path class="if" d="M326.188,207.387q-21.951.285-43.9.568-1.857-1.005-3.71-2.012c.549-1.863-.63-4.294,1.82-5.532a1.9,1.9,0,0,1,2.271-.316,11.275,11.275,0,0,1,1.981,1.633,7.219,7.219,0,0,0,2.28,1.354c12.779,1.445,25.732-1.513,38.415,1.706A1.934,1.934,0,0,1,326.188,207.387Z" transform="translate(81.318 36.243)"/><path class="ig" d="M281.656,201.117l-1.979-.055c5.516-3.882,11.72-1.387,17.575-1.711,9.4-.52,18.851-.278,28.279-.359q1.723,1.087,3.447,2.176c.405,3.1.42,5.991-3.51,6.871.005-.473.017-.945.036-1.418a2.923,2.923,0,0,1-1.134-1.44c-.859-1.428-2.3-1.418-3.74-1.494-9.628-.055-19.218.045-28.808-.026C288.239,203.634,284.559,203.907,281.656,201.117Z" transform="translate(82.038 35.59)"/><path class="ih" d="M319.666,186.783c4.4,3.057,5.84,6.09-.07,9.069a2.639,2.639,0,0,1-1.047-1.461,10.635,10.635,0,0,1-.144-1.731c-.41-.963-1.283-1.168-2.224-1.3-6.613-.113-13.189-.329-19.73.215a4.277,4.277,0,0,0-1.67,1.163c-.333.592-.71,1.16-1.1,1.721a11.628,11.628,0,0,1-1.455,1.413,4.821,4.821,0,0,1-1.753.271c-4.043-6.848-1.17-9.269,5.819-9.241C304.087,186.93,311.877,186.828,319.666,186.783Z" transform="translate(87.901 27.682)"/><path class="ii" d="M327.08,176.231l-27.342.121a1.9,1.9,0,0,1,.682-2.641,8.674,8.674,0,0,1,2.865-1.163c7.69-.124,15.447-1.506,23.021,1.051A1.875,1.875,0,0,1,327.08,176.231Z" transform="translate(95 18.043)"/><path class="ij" d="M306.168,175.008q-.007.69-.007,1.38l-16.46-.157q0-.67-.04-1.339C295.189,171.3,300.7,170.765,306.168,175.008Z" transform="translate(88.577 18.007)"/><path class="ik" d="M316.557,177.136c0-.5.025-1.008.071-1.511a3.352,3.352,0,0,1-1.091-1.931c.045-.381.093-.76.137-1.14.18-.339.364-.677.544-1.016a3.359,3.359,0,0,1,2.069-.856c4.382,2.13.831,4.447.156,6.694Q317.5,177.257,316.557,177.136Z" transform="translate(105.523 17.138)"/><path class="il" d="M326.537,171.68l-1.365,1.2c-7.508.66-15.134,2.792-22.228-1.767q0-.76.01-1.519l21.972-.437Q325.729,170.419,326.537,171.68Z" transform="translate(97.275 16.14)"/><path class="im" d="M303.79,170.4c7.379.953,15.058-1.853,22.227,1.767l-.261.074c-3.182,2.727-7.04,1.552-10.643,1.844-4.167-.293-8.43.715-12.5-.91a1.908,1.908,0,0,1-.659-2.7Z" transform="translate(96.428 16.855)"/><path class="in" d="M309.836,170.384c.01.52.02,1.041.03,1.561a4.69,4.69,0,0,1-2.661,1.771c-5.86-.129-11.9,1.8-17.482-1.536a11.879,11.879,0,0,0-.109-1.8Q299.724,170.381,309.836,170.384Z" transform="translate(88.545 16.941)"/><path class="io" d="M306.188,175.045q-8.254-.06-16.506-.117-.027-.946-.051-1.892c5.539-2.014,11.253-.546,16.878-.846a1.964,1.964,0,0,1,1.46,2.345Z" transform="translate(88.557 17.97)"/><path class="ip" d="M308.06,173.414l-18.429-.061.079-1.885,18.255.189.685.844Z" transform="translate(88.557 17.653)"/><path class="iq" d="M278.662,221.232c7.584-4.513,15.774-1.787,23.72-1.984a1.789,1.789,0,0,1-.18,2.529,6.484,6.484,0,0,1-2.545,1.192c-5.81.677-11.943-1.764-17.469,1.781l.164-.1C278.119,226.747,278.707,223.648,278.662,221.232Z" transform="translate(81.37 48.525)"/><path class="ir" d="M280.79,223.841c.357-5.622,4.725-3.356,7.526-3.581a99.849,99.849,0,0,1,10.823.22,2.768,2.768,0,0,1,.348,3.642,3.816,3.816,0,0,1-3.838.028Z" transform="translate(82.767 49.432)"/><path class="is" d="M289.769,223.526l3.485-.559c3.733-2.3,7.465-3.053,11.2,0l-.386.485A14.872,14.872,0,0,1,289.769,223.526Z" transform="translate(88.647 50.057)"/><path class="it" d="M219.11,292.836c1.7-1.292,1.271-5.8,4.543-4.139,2.223,1.129-.872,3.705-.67,5.754C220.2,297.506,219.568,295.375,219.11,292.836Z" transform="translate(42.374 94.188)"/><path class="iu" d="M315.059,191.1c1.1-5.382,2.441-5.69,9.236-2.118l-.3,1.85a3.757,3.757,0,0,1-2.014,1.129C319.645,191.906,317.273,192.136,315.059,191.1Z" transform="translate(105.209 27.577)"/><path class="iv" d="M323.186,200.589q-.276,1.489-.551,2.98c-2.363.285-4.736.976-7.066-.162-2.9-1.379-.015-2.613.1-3.917C318.289,199.046,321.111,197.272,323.186,200.589Z" transform="translate(104.7 35.433)"/><path class="iw" d="M322.093,189.229l1.892-.063c.2,6.921-4.415,6.025-8.839,5.436l-.078-1.918C316.984,190.669,319.589,190.051,322.093,189.229Z" transform="translate(105.215 29.243)"/><path class="ix" d="M315.059,202.2c2.393-1.632,4.783-3.007,7.066.161-.761,1.607-1.612,3.1-3.705,3.138C316.078,205.644,315.243,204.255,315.059,202.2Z" transform="translate(105.209 36.637)"/><path class="iy" d="M293.009,220.59c0-.525-.007-1.048-.017-1.572l14.642-.058c-.013.533-.02,1.066-.023,1.6l-1.857.584C301.459,222.065,297.1,224.35,293.009,220.59Z" transform="translate(90.759 48.755)"/><path class="iz" d="M281.962,251.59q-.012-.638-.007-1.276c12.317-.121,24.635-.265,36.954-.336,2.006-.01,4.323-.548,5.486,1.958l-.556-.258c-4.2,2.375-8.92.06-13.226,1.481C300.96,254.487,291.261,256.675,281.962,251.59Z" transform="translate(83.529 69.032)"/><path class="ja" d="M315.389,238.512c.233-.609.468-1.218.708-1.832l.581-.419a7.9,7.9,0,0,1,7.447-2.941C323.847,239.483,319.856,239.4,315.389,238.512Z" transform="translate(105.426 58.107)"/><path class="jb" d="M323.615,234.043c-2.688.463-4.144,4.041-7.447,2.941q0-2.423.012-4.845,3.091.194,6.184.389C322.783,233.032,323.2,233.538,323.615,234.043Z" transform="translate(105.936 57.385)"/><path class="jc" d="M291.969,235.121a36.446,36.446,0,0,1,23.5-.01Z" transform="translate(90.088 58.061)"/><path class="jd" d="M293.742,219.945l12.746.551q-1.71,1.566-3.417,3.133l-11.2,0q0-1.556,0-3.113C292.5,220.324,293.121,220.134,293.742,219.945Z" transform="translate(90.027 49.4)"/><path class="je" d="M310.157,255.807l-7.273.237q-11.089-.052-22.18-.109.134-.948.271-1.9c9.31-3.335,18.8-1.695,28.251-1A1.905,1.905,0,0,1,310.157,255.807Z" transform="translate(82.71 70.404)"/><path class="jf" d="M282.685,250.93q14.606.218,29.212.434c.634.311.842.616.627.918a.854.854,0,0,1-.644.445l.063.483a128.326,128.326,0,0,1-31.092-.19Z" transform="translate(82.807 69.692)"/><path class="jg" d="M280.942,252.193q15.544.094,31.092.189-.047.685-.083,1.37c-.364.968-.957,1.084-1.744.467l-29.239-.3A1.662,1.662,0,0,1,280.942,252.193Z" transform="translate(82.716 70.519)"/><path class="jh" d="M298.557,253.6q.866-.253,1.746-.467,6.434.258,12.868.521c-4.642,3.055-9.779.965-14.671,1.42C298.521,254.583,298.541,254.093,298.557,253.6Z" transform="translate(94.366 71.136)"/><path class="ji" d="M299.6,252.692c.026-.453.031-.91.018-1.364l12.663-.344C308.488,254.76,303.851,252.29,299.6,252.692Z" transform="translate(95.086 69.727)"/><path class="jj" d="M318.232,192.644c-.036.468-.053.935-.046,1.4l-27.365.017c0-.508-.007-1.018-.036-1.526C299.949,188.583,309.1,188.449,318.232,192.644Z" transform="translate(89.312 29.485)"/><path class="hv" d="M322.1,189.81c-.862,4.159-4.22,3.247-7.025,3.457q-.007-1.626-.015-3.252C317.361,188.415,319.673,187.169,322.1,189.81Z" transform="translate(105.209 28.661)"/><path class="jk" d="M324.81,201.759a7.243,7.243,0,0,1,.631,1.3c.036.127-.381.381-.591.576a218.689,218.689,0,0,1-43.917-.116,1.654,1.654,0,0,1,.065-1.66A206.9,206.9,0,0,1,324.81,201.759Z" transform="translate(82.734 36.762)"/><path class="jl" d="M280.856,202.383l43.917.116q-.03.906-.041,1.814c-11.811-.02-23.624.035-35.434-.111C286.428,204.167,283.15,205.352,280.856,202.383Z" transform="translate(82.81 37.899)"/><path class="jm" d="M324.723,202.091l-43.813.1c-.012-.639-.025-1.278-.036-1.916,11.789,0,23.577-.068,35.365.04C319.127,200.342,322.368,199.281,324.723,202.091Z" transform="translate(82.821 36.43)"/><path class="jn" d="M318.3,189.555a7.26,7.26,0,0,1,.641,1.342c.036.134-.389.392-.6.594a85.968,85.968,0,0,1-27.428-.161,1.556,1.556,0,0,1,0-1.6A81.836,81.836,0,0,1,318.3,189.555Z" transform="translate(89.254 28.8)"/><path class="jo" d="M318.215,189.986l-27.385.177C299.939,186.9,309.069,187.265,318.215,189.986Z" transform="translate(89.342 28.368)"/><path class="jp" d="M290.855,190.206q13.715.079,27.428.161-.025.919-.051,1.839-13.722-.052-27.448-.1Z" transform="translate(89.312 29.924)"/><path class="jq" d="M300.72,174.521q.035-.72.091-1.438l-.111-.225c4.715-1.68,9.593-.372,14.376-.788,3.709.328,7.508-.743,11.142.728q.065.99.127,1.981Z" transform="translate(95.806 17.984)"/><path class="jr" d="M320.675,173.139l-10.808.079q-.943-.514-.621-1.011c.21-.328.424-.493.639-.493l10.949-.261A4.872,4.872,0,0,1,320.675,173.139Z" transform="translate(101.349 17.643)"/><path class="js" d="M315.428,171.8c-.018.5-.025,1-.018,1.506l-14.71-.02a14.874,14.874,0,0,0,.016-1.536q.943-.209,1.888-.42Q309.017,171.56,315.428,171.8Z" transform="translate(95.806 17.56)"/></g></svg>