<svg xmlns="http://www.w3.org/2000/svg" width="48.962" height="48.962" viewBox="0 0 48.962 48.962"><defs><style>.a{fill:#06958c;}.b{fill:#707070;}</style></defs><g transform="translate(-1710 -431)"><g transform="translate(1710 431)"><path class="a" d="M24.481,0A24.481,24.481,0,1,0,48.962,24.481,24.481,24.481,0,0,0,24.481,0Zm0,47.33A22.849,22.849,0,1,1,47.33,24.481,22.849,22.849,0,0,1,24.481,47.33Zm0,0"/></g><g transform="translate(1721 440)"><path class="b" d="M26.431,8.43V8.406c-.014-.3-.023-.614-.028-.966a3.293,3.293,0,0,0-3.1-3.226A12.78,12.78,0,0,1,14.6.548l-.02-.019a1.989,1.989,0,0,0-2.7,0l-.02.019a12.781,12.781,0,0,1-8.7,3.666,3.293,3.293,0,0,0-3.1,3.226c-.005.349-.014.665-.028.965v.056c-.069,3.643-.156,8.177,1.361,12.293A15.649,15.649,0,0,0,5.147,26.6a19.639,19.639,0,0,0,7.347,4.345,2.276,2.276,0,0,0,.3.082,2.224,2.224,0,0,0,.874,0,2.283,2.283,0,0,0,.3-.082A19.652,19.652,0,0,0,21.31,26.6a15.67,15.67,0,0,0,3.754-5.849C26.587,16.623,26.5,12.081,26.431,8.43ZM23.353,20.12c-1.6,4.338-4.866,7.317-9.984,9.107a.458.458,0,0,1-.058.016.409.409,0,0,1-.16,0,.454.454,0,0,1-.057-.015C7.97,27.44,4.7,24.463,3.1,20.125,1.705,16.331,1.784,12.169,1.854,8.5v-.02c.014-.316.024-.646.029-1.009a1.464,1.464,0,0,1,1.38-1.433,16,16,0,0,0,5.43-1.194,14.207,14.207,0,0,0,4.425-2.973.168.168,0,0,1,.226,0,14.212,14.212,0,0,0,4.425,2.973A16,16,0,0,0,23.2,6.035a1.463,1.463,0,0,1,1.379,1.433c.005.365.015.7.029,1.009C24.678,12.153,24.755,16.319,23.353,20.12Zm0,0" transform="translate(0)"/><path class="b" d="M98.143,128.41a7.744,7.744,0,1,0,7.744,7.744A7.753,7.753,0,0,0,98.143,128.41Zm0,13.665a5.921,5.921,0,1,1,5.921-5.921A5.928,5.928,0,0,1,98.143,142.075Zm0,0" transform="translate(-84.912 -120.617)"/><path class="a" d="M159.8,212.258l-3.6,3.6-.976-.976a.912.912,0,0,0-1.289,1.289l1.621,1.621a.912.912,0,0,0,1.289,0l4.242-4.242a.912.912,0,0,0-1.289-1.289Zm0,0" transform="translate(-144.346 -199.126)"/></g></g></svg>