<svg xmlns="http://www.w3.org/2000/svg" width="59.014" height="59.014" viewBox="0 0 59.014 59.014"><defs><style>.a,.c{fill:#06958c;}.b{fill:#707070;}.c{stroke:#06958c;stroke-width:0.2px;}</style></defs><g transform="translate(-1099.986 -486)"><g transform="translate(1099.986 486)"><g transform="translate(16.828 42.647)"><path class="a" d="M147.152,370a1.153,1.153,0,1,0,1.153,1.153A1.153,1.153,0,0,0,147.152,370Z" transform="translate(-145.999 -370.002)"/></g><g transform="translate(0 0)"><g transform="translate(0 0)"><path class="b" d="M51.884,21.9l6.792-6.792a1.153,1.153,0,0,0-.475-1.916l-16.54-5.1A11.528,11.528,0,0,0,19.967,7.22L.809,13.194a1.153,1.153,0,0,0-.472,1.915L7.308,22.08l-4.4,7.328a1.153,1.153,0,0,0,.624,1.687L9.912,33.22V50.948a1.153,1.153,0,0,0,.748,1.079c3.9,1.462,18.386,6.9,18.463,6.923a1.148,1.148,0,0,0,.737.01l.01,0,20.747-6.916a1.153,1.153,0,0,0,.788-1.093v-18.2l6.8-2.137a1.153,1.153,0,0,0,.47-1.915Zm-9.7-10.373c0-.293-.012-.585-.034-.876l13.543,4.18-5.751,5.751-9.4-3.132A11.559,11.559,0,0,0,42.185,11.528Zm-20.248-3a9.221,9.221,0,0,1,17.943,3,9.22,9.22,0,0,1-9.221,9.221A9.228,9.228,0,0,1,21.937,8.528Zm-18.622,6.3L19.256,9.857a11.621,11.621,0,0,0-.123,1.671A11.457,11.457,0,0,0,20.41,16.8l-11.34,3.78ZM5.627,29.362l3.645-6.075,18.507,6.169-3.644,6.075ZM28.354,56.2,12.217,50.149V33.989c12.7,4.21,12.076,4.081,12.43,4.081a1.153,1.153,0,0,0,.989-.56l2.718-4.531Zm1.153-28.6L12.4,21.9l9.312-3.1a11.523,11.523,0,0,0,17.367.6L46.609,21.9ZM49.1,50.117,30.659,56.264V32.1l4.086,5.107a1.153,1.153,0,0,0,1.246.38L49.1,33.47ZM36.052,35.154l-4.613-5.766,18.5-6.168L55.7,28.979Z" transform="translate(0 -0.002)"/></g></g><g transform="translate(21.18 44.17)"><path class="b" d="M187.878,384.254l-2.563-.961a1.153,1.153,0,1,0-.809,2.159l2.563.961a1.153,1.153,0,1,0,.809-2.158Z" transform="translate(-183.757 -383.219)"/></g><g transform="translate(16.828 47.462)"><path class="b" d="M154.469,414.446l-6.916-2.593a1.153,1.153,0,1,0-.809,2.159l6.916,2.593a1.153,1.153,0,0,0,.809-2.159Z" transform="translate(-145.995 -411.779)"/></g></g><g transform="translate(1124.297 492.025)"><g transform="translate(0)"><path class="c" d="M59.267,184.009h1.975a.255.255,0,1,0,0-.51H59.267a.255.255,0,1,0,0,.51Z" transform="translate(-57.508 -180.296)"/><path class="c" d="M59.267,253.255h1.975a.255.255,0,0,0,0-.51H59.267a.255.255,0,0,0,0,.51Z" transform="translate(-57.508 -247.777)"/><path class="c" d="M146.294,434.363a.255.255,0,1,0-.138.333A.257.257,0,0,0,146.294,434.363Z" transform="translate(-142.089 -424.612)"/><path class="c" d="M12.981,63.621,9.95,60.367l.928-.926a.843.843,0,0,0,.006-1.192.85.85,0,0,0-1.193-.009l0,0-1.273,1.27H7.941v-.979a.255.255,0,0,0-.255-.255H6.336V58.07a.255.255,0,1,0-.51,0v.208H4.9V58.07a.255.255,0,1,0-.51,0v.208H3.455V58.07a.255.255,0,1,0-.51,0v.208H2.014V58.07a.255.255,0,1,0-.51,0v.208H.255A.255.255,0,0,0,0,58.533v9.13a.255.255,0,0,0,.255.255h2.6a.255.255,0,1,0,0-.51H.51v-8.62H1.5v.231a.255.255,0,1,0,.51,0v-.231h.931v.231a.255.255,0,1,0,.51,0v-.231h.931v.231a.255.255,0,1,0,.51,0v-.231h.931v.231a.255.255,0,1,0,.51,0v-.231H7.431v.725a1.842,1.842,0,0,0-1.22.535L4.336,61.924a.257.257,0,0,0,.042.394,1.733,1.733,0,0,0,.7.261,1.755,1.755,0,0,0,.25.018h0l-.293.292a.255.255,0,0,0-.051.073l-.818,1.228a.557.557,0,0,0-.093.36H1.759a.255.255,0,1,0,0,.51H4.629a.565.565,0,0,0,.312-.1l1.243-.844a.265.265,0,0,0,.041-.033l.576-.575.629.627v3.274H5.1a.255.255,0,1,0,0,.51H7.686a.255.255,0,0,0,.255-.255V64.632a1.787,1.787,0,0,0,1.148.413h1.017a.78.78,0,0,1,.561.239l1.942,2.064a.257.257,0,0,0,.44-.175V63.795A.255.255,0,0,0,12.981,63.621ZM6.572,60.408a1.325,1.325,0,0,1,.934-.387h.4L6.317,61.606a1.778,1.778,0,0,1-.474.367,1.246,1.246,0,0,1-.892.057Zm3.476-1.8a.339.339,0,0,1,.474,0,.333.333,0,0,1,0,.471L7.855,61.737l-.128-.128a.994.994,0,0,0-.436-.254ZM4.655,64.538a.044.044,0,0,1-.061-.006.042.042,0,0,1-.006-.061l.666-1,.393.393Zm1.391-1-.473-.473.486-.485a1,1,0,0,0,.258.439l.124.124Zm6.494,2.99-1.5-1.6a1.294,1.294,0,0,0-.931-.4H9.089a1.283,1.283,0,0,1-.912-.377l-1.5-1.5a.489.489,0,0,1,0-.694.5.5,0,0,1,.689,0l1.219,1.219a.258.258,0,0,0,.36,0,.255.255,0,0,0,0-.36L8.215,62.1l1.373-1.37L12.54,63.9Z" transform="translate(0 -57.815)"/></g></g></g></svg>