<svg xmlns="http://www.w3.org/2000/svg" width="198.082" height="198.062" viewBox="0 0 198.082 198.062"><defs><style>.a{fill:#efc75e;}.b{fill:#ca9f30;}</style></defs><g transform="translate(0 -0.014)"><path class="a" d="M185.87,154.944c-1.157-1.064-12.57-.328-12.57-.328l-.13-12.075-5.583-6.381-13.232-.216-.013-.018h0c-.056.18-.006-13.282-.006-13.282l-6.177-4.475s-12.013-.353-12.112-.446l-.965-12.341L123.96,92.216A65.283,65.283,0,1,0,92.8,123.594l73.931,74.377s31.3.086,31.3.074l.05-31.59S193.167,161.665,185.87,154.944ZM52.6,68.17a15.5,15.5,0,1,1,15.412-15.5A15.45,15.45,0,0,1,52.6,68.17Z" transform="translate(0 0)"/><path class="b" d="M65.425,43.767A21.662,21.662,0,1,0,87.088,65.429,21.663,21.663,0,0,0,65.425,43.767Zm0,30.947a9.284,9.284,0,1,1,9.284-9.284A9.287,9.287,0,0,1,65.425,74.714Z" transform="translate(-12.81 -12.807)"/><path class="b" d="M143.86,161.011a65.1,65.1,0,0,1-20.245,11.983l73.5,72.21h30.946Z" transform="translate(-36.185 -47.127)"/></g></svg>