<svg xmlns="http://www.w3.org/2000/svg" xmlns:xlink="http://www.w3.org/1999/xlink" width="484.111" height="613.63" viewBox="0 0 484.111 613.63"><defs><style>.a{fill:none;}.b{fill:#05514c;}.c{fill:#066761;}.d{clip-path:url(#a);}.e{fill:#065d58;}.f{fill:#065a55;}.g{fill:#055752;}.h{fill:#05544f;}.i{clip-path:url(#b);}.j{fill:#076a64;}.k{fill:#06645e;}.l{clip-path:url(#c);}.m{fill:#06615b;}.n{fill:#098d85;}.o{clip-path:url(#d);}.p{fill:#242424;}.q{clip-path:url(#e);}.r{fill:#212121;}.s{fill:#232323;}.t{fill:#1f1f1f;}.u{clip-path:url(#f);}.v{clip-path:url(#g);}.w{fill:#010101;}</style><clipPath id="a"><path class="a" d="M215,74.05l32.1,17.457A121.719,121.719,0,0,1,270.792,108.5a126.7,126.7,0,0,1,34.914,55.257c4.744,14.078,5.631,19.512,6.223,39.546.479,19.512.127,26.016-2.956,39.574-6.18,27.621-20.512,57.833-36.7,76.445L240.2,301.877c16.176-18.625,30.521-48.837,36.688-76.459,3.1-13.557,3.449-20.061,2.97-39.574-.648-20.033-1.478-25.482-6.223-39.546a126.7,126.7,0,0,0-34.914-55.257A121.4,121.4,0,0,0,215,74.05Z" transform="translate(-215 -74.05)"/></clipPath><clipPath id="b"><path class="a" d="M285.264,22.625l32.1,17.457q-36.223-19.709-80.5-22.525c-11.122-.648-34.435.957-50.259,3.182L154.52,3.324C170.33,1.1,193.657-.506,204.765.142Q249.013,2.929,285.264,22.625Z" transform="translate(-154.52 0.003)"/></clipPath><clipPath id="c"><path class="a" d="M68.406,414.7,36.322,397.239C11.91,361.157-.084,319.358,0,271.225.3,205.987,22.328,146.661,66.294,93.784c37.5-44.966,84.821-75.318,139.6-89.312A114.2,114.2,0,0,1,217.536,2.36L249.62,19.817a114.2,114.2,0,0,0-11.643,2.112c-54.778,13.994-102.1,44.346-139.6,89.312-43.966,52.878-66,112.2-66.294,177.385C32,336.815,43.994,378.614,68.406,414.7Z" transform="translate(0 -2.36)"/></clipPath><clipPath id="d"><path class="a" d="M219.536,272.022l20.976,15.134a2.2,2.2,0,0,0-.732-.422L218.79,271.6A2.2,2.2,0,0,1,219.536,272.022Z" transform="translate(-218.79 -271.6)"/></clipPath><clipPath id="e"><path class="a" d="M212.076,328.472,191.1,313.338c21.117-22.891,38.5-41.685,39.039-41.728l20.991,15.134C250.524,286.772,233.081,305.567,212.076,328.472Z" transform="translate(-191.1 -271.61)"/></clipPath><clipPath id="f"><path class="a" d="M225.274,477.167l-20.991-15.148C188.684,450.757,63.712,335.6,64.05,332.5L85.1,347.606C84.7,350.745,209.675,465.919,225.274,477.167Z" transform="translate(-64.05 -332.5)"/></clipPath><clipPath id="g"><path class="a" d="M85.076,358.217,64.1,343.083c.352-1.478,15.064-17.893,33.056-36.6l20.977,15.148C100.084,340.324,85.372,356.739,85.076,358.217Z" transform="translate(-64.1 -306.48)"/></clipPath></defs><g transform="translate(0 0)"><path class="b" d="M283.152,279.086l-32.1-17.457L237.82,249.48l32.1,17.457Z" transform="translate(96.988 101.747)"/><path class="b" d="M273.7,270.465l-32.1-17.457L228.54,240.83l32.1,17.457Z" transform="translate(93.203 98.219)"/><path class="c" d="M260.638,260.306l-32.1-17.457,6.138-6.969,32.084,17.443Z" transform="translate(93.203 96.2)"/><g transform="translate(302.681 104.253)"><g class="d"><path class="e" d="M264.984,256.178,232.9,238.735a121.625,121.625,0,0,0,7.673-9.855l32.084,17.457a118.945,118.945,0,0,1-7.673,9.855" transform="translate(-207.7 -10.908)"/><path class="f" d="M270.434,251.168,238.35,233.711A169.992,169.992,0,0,0,248.557,217l32.1,17.457a167.384,167.384,0,0,1-10.221,16.683" transform="translate(-205.477 -15.752)"/><path class="g" d="M277.7,242.075,245.6,224.59a205.189,205.189,0,0,0,11.826-26.2l32.084,17.457a205.124,205.124,0,0,1-11.769,26.228" transform="translate(-202.521 -23.342)"/><path class="h" d="M301.947,266.555,269.9,249.1a185.676,185.676,0,0,0,7.039-23.68c3.1-13.557,3.449-20.061,2.97-39.574-.648-20.033-1.478-25.482-6.223-39.546a126.7,126.7,0,0,0-34.914-55.257A121.4,121.4,0,0,0,215,74.05l32.1,17.457A121.719,121.719,0,0,1,270.792,108.5a126.7,126.7,0,0,1,34.914,55.257c4.744,14.078,5.631,19.512,6.223,39.546.479,19.512.127,26.016-2.956,39.574a188.772,188.772,0,0,1-7.039,23.68" transform="translate(-215 -74.05)"/></g></g><path class="b" d="M63.487,308.5l-32.1-17.457L25.8,282.85l32.084,17.457Z" transform="translate(10.522 115.356)"/><g transform="translate(217.537)"><g class="i"><path class="j" d="M186.6,20.781,154.52,3.324C170.33,1.1,193.657-.506,204.765.142a206.556,206.556,0,0,1,38.912,6.11l32.084,17.457a206.4,206.4,0,0,0-38.912-6.11c-11.122-.648-34.435.957-50.259,3.182" transform="translate(-154.52 0.003)"/><path class="c" d="M249.934,21.9,217.85,4.44a184.989,184.989,0,0,1,35.027,12.966l32.084,17.457A183.677,183.677,0,0,0,249.934,21.9" transform="translate(-128.693 1.815)"/><path class="k" d="M274.814,31.107,242.73,13.65c2.21,1.1,4.406,2.224,6.56,3.407l32.1,17.457q-3.252-1.774-6.575-3.407" transform="translate(-118.546 5.571)"/></g></g><g transform="translate(0 3.327)"><g class="l"><g transform="translate(0 0.028)"><path class="h" d="M69.986,365.709,36.322,346.037C11.91,309.955-.084,268.157,0,220.023a268.455,268.455,0,0,1,16.306-92.113l32.109,17.428A268.5,268.5,0,0,0,32.084,237.48c-.084,48.133,13.49,92.146,37.9,128.228" transform="translate(0 48.814)"/><path class="g" d="M41.529,158,11.59,138A269.714,269.714,0,0,1,27.329,103.11l32.084,17.457A336.477,336.477,0,0,0,41.529,159.4" transform="translate(4.727 38.7)"/><path class="f" d="M53.268,130.957l-30.5-19.311a289.8,289.8,0,0,1,18.2-29.466L73.057,99.637a375.626,375.626,0,0,0-20.841,33.072" transform="translate(9.286 30.164)"/><path class="e" d="M66.572,110.151,35.7,90.116q7.461-10.643,16.035-20.948,2.689-3.238,5.5-6.448l32.1,17.457q-2.816,3.168-5.547,6.448c-5.7,6.851-14.7,18.165-19.673,25.279" transform="translate(14.56 22.228)"/><path class="m" d="M83.774,86.93,49.412,73.441C56.66,65.238,66.6,53.487,74.736,46.16L106.82,63.617C98.7,70.941,87.487,82.236,80.257,90.441" transform="translate(20.152 15.474)"/><path class="k" d="M97.326,71.207C89.3,66.843,67.4,52.343,67.4,52.343A270.213,270.213,0,0,1,94.332,31l32.084,17.457c-9.424,6.531-20.578,16-29.09,23.684" transform="translate(27.487 9.292)"/><path class="c" d="M114.718,56.356,86.53,37.174A258.77,258.77,0,0,1,123.485,15.86l34.4,16.391a356.6,356.6,0,0,0-43.167,25.156" transform="translate(35.289 3.117)"/><path class="j" d="M144.864,38.828,112.78,21.386A262.347,262.347,0,0,1,159.9,4.492,114.2,114.2,0,0,1,171.542,2.38l32.084,17.457a114.2,114.2,0,0,0-11.643,2.112,264.193,264.193,0,0,0-47.12,16.894" transform="translate(45.994 -2.38)"/></g></g></g><path class="n" d="M240.322,15.724c15.824-2.224,39.137-3.829,50.259-3.182,45.895,2.9,85.469,19.428,118.257,49.668,25.974,23.933,43.642,51.709,54.9,86.046,21.3,64.351,11.46,143.682-26.059,209.131l-5.631,9.77-61.24,8.616-13.233-12.149-13.065-12.178,6.124-7.039c16.19-18.611,30.522-48.823,36.7-76.445,3.083-13.557,3.435-20.061,2.956-39.574-.634-20.033-1.478-25.482-6.223-39.546a126.7,126.7,0,0,0-34.914-55.257c-16.359-14.881-34.28-24.046-56.876-29.128-15.641-3.562-16.992-3.534-43.361.169S221.2,108.7,205.549,116.65c-44.417,22.4-77.3,61.691-92.184,110.3-4.787,15.4-5.631,21.117-6.363,41.305-.549,19.709-.225,26.073,2.816,38.771,6.082,26.439,20.315,51.906,37.293,66.956l6.955,6.025L141.8,394.835l-12.29,14.853L64.753,418.8,59.122,410.6C34.71,374.52,22.716,332.722,22.8,284.589,23.1,219.35,45.128,160.025,89.094,107.2c37.49-45.022,84.807-75.375,139.529-89.368a114.207,114.207,0,0,1,11.7-2.112Z" transform="translate(9.299 5.06)"/><g transform="translate(90.17 382.368)"><g transform="translate(217.847)"><g class="o"><path class="p" d="M239.781,286.734,218.79,271.6a2.2,2.2,0,0,1,.746.422l20.977,15.134a2.2,2.2,0,0,0-.732-.422" transform="translate(-218.79 -271.6)"/></g></g><g transform="translate(178.864 0.014)"><g class="q"><path class="r" d="M212.076,328.431,191.1,313.3c20.047-21.779,36.814-39.869,38.842-41.587l20.991,15.134c-2.041,1.732-18.808,19.808-38.856,41.587" transform="translate(-191.1 -271.569)"/><path class="s" d="M239.641,286.871,218.65,271.737l.169-.127,20.991,15.134a.508.508,0,0,0-.169.127" transform="translate(-179.865 -271.61)"/><path class="p" d="M239.761,286.744,218.77,271.61h0l20.991,15.134h0" transform="translate(-179.816 -271.61)"/></g></g><path class="t" d="M184.947,358.045,163.97,342.911l38.138-41.671,20.977,15.148Z" transform="translate(-23.3 -259.512)"/><path class="t" d="M108.507,331.491,87.53,316.357,120.051,282.4l20.976,15.134Z" transform="translate(-54.474 -267.196)"/><g transform="translate(0 85.736)"><g class="u"><g transform="translate(-0.001 -0.028)"><path class="p" d="M225.192,477.013,204.2,461.864C189.067,450.954,70.867,342.1,64.25,332.88l20.991,15.134c6.6,9.235,124.8,118.074,139.951,129" transform="translate(-63.967 -332.317)"/><path class="s" d="M85.323,348.177,64.332,333.043c-.2-.282-.3-.479-.282-.563L85.1,347.614a1.408,1.408,0,0,0,.3.563" transform="translate(-64.049 -332.48)"/></g></g></g><g transform="translate(0.071 49.105)"><g class="v"><path class="r" d="M85.076,358.217,64.1,343.083c.352-1.478,15.064-17.893,33.056-36.6l20.977,15.148c-17.978,18.639-32.69,35.055-33.056,36.6" transform="translate(-64.1 -306.48)"/></g></g><path class="w" d="M296.806,282.35c1.084-.084,21.568,18.78,56.228,52.089L364.578,345.6,293.92,421.766c-38.87,42.08-71.94,76.43-73.207,76.712-3.632.282-142.091-127.14-141.753-130.434.366-1.478,15.078-17.893,33.056-36.6l32.521-33.971,37.547,34.013,37.547,34.182,38.18-41.573C278.814,301.187,296.257,282.392,296.806,282.35Z" transform="translate(-57.969 -267.216)"/></g></g></svg>