<svg xmlns="http://www.w3.org/2000/svg" xmlns:xlink="http://www.w3.org/1999/xlink" width="473.115" height="577.022" viewBox="0 0 473.115 577.022"><defs><style>.a{fill:none;}.b{clip-path:url(#a);}.c{fill:#034d49;}.d{fill:#03504c;}.e{clip-path:url(#b);}.f{clip-path:url(#c);}.g{clip-path:url(#d);}.h{clip-path:url(#e);}.i{clip-path:url(#f);}.j{clip-path:url(#g);}.k{clip-path:url(#h);}.l{clip-path:url(#i);}.m{clip-path:url(#j);}.n{clip-path:url(#k);}.o{fill:#058078;}.p{clip-path:url(#l);}.q{fill:#034c47;}.r{clip-path:url(#m);}.s{clip-path:url(#n);}.t{clip-path:url(#o);}.u{clip-path:url(#p);}.v{clip-path:url(#q);}.w{fill:#034b46;}.x{clip-path:url(#r);}.y{clip-path:url(#s);}.z{clip-path:url(#t);}.aa{clip-path:url(#u);}.ab{clip-path:url(#v);}.ac{clip-path:url(#w);}.ad{clip-path:url(#x);}.ae{clip-path:url(#y);}.af{clip-path:url(#z);}.ag{clip-path:url(#aa);}.ah{clip-path:url(#ab);}.ai{clip-path:url(#ac);}.aj{clip-path:url(#ad);}.ak{clip-path:url(#ae);}.al{clip-path:url(#af);}.am{clip-path:url(#ag);}.an{clip-path:url(#ah);}.ao{clip-path:url(#ai);}.ap{clip-path:url(#aj);}.aq{clip-path:url(#ak);}.ar{clip-path:url(#al);}.as{clip-path:url(#am);}.at{clip-path:url(#an);}.au{clip-path:url(#ao);}.av{clip-path:url(#ap);}.aw{clip-path:url(#aq);}</style><clipPath id="a"><path class="a" d="M262.334,226.537,224.72,206.08c11.878,2.029,23.772,4.108,35.65,6.6,3.068.726,5.922,1.485,8.546,2.392l37.6,20.572a86.375,86.375,0,0,0-8.546-2.392C286.106,230.694,274.2,228.566,262.334,226.537Z" transform="translate(-224.72 -206.08)"/></clipPath><clipPath id="b"><path class="a" d="M187.756,310.246l-37.6-20.456a8.658,8.658,0,0,0-.148-1.32l37.614,20.456C187.706,309.768,187.756,310.213,187.756,310.246Z" transform="translate(-150.01 -288.47)"/></clipPath><clipPath id="c"><path class="a" d="M150,291.478c1.105-2.574,2.194-5.032,3.068-7.638l37.6,20.457c-.858,2.607-1.963,5.065-3.052,7.638Z" transform="translate(-150 -283.84)"/></clipPath><clipPath id="d"><path class="a" d="M189.467,359.211l-37.6-20.457c7.82-25.587,15.59-50.564,22.519-75.508,2.524-9.205,4.949-18.246,7.193-27.418,2.986-12.092,5.873-24.3,8.744-36.508l37.647,20.457c-2.854,12.208-5.741,24.416-8.744,36.492-2.277,9.189-4.669,18.147-7.193,27.435C205.057,308.647,197.287,333.624,189.467,359.211Z" transform="translate(-151.87 -199.32)"/></clipPath><clipPath id="e"><path class="a" d="M212.807,221.563l-37.6-20.457c.462-1.5.858-3,1.188-4.537l37.548,20.506C213.632,218.561,213.22,220.062,212.807,221.563Z" transform="translate(-175.21 -196.57)"/></clipPath><clipPath id="f"><path class="a" d="M213.5,217.057,175.9,196.6c1.072,0,24.234,4.949,48.584,10.426l37.6,20.457C237.732,222.006,214.569,217.057,213.5,217.057Z" transform="translate(-175.9 -196.6)"/></clipPath><clipPath id="g"><path class="a" d="M144.385,292.767c9.651-1.353,20.094-2.689,28.722-3.5l37.6,20.457c-8.628.808-19.054,2.145-28.722,3.5-15.309,2.145-28.689,4.372-29.7,3.778l-37.6-20.457C115.7,297.073,129.076,294.912,144.385,292.767Z" transform="translate(-114.69 -289.27)"/></clipPath><clipPath id="h"><path class="a" d="M152.1,331.035l-37.6-20.457a8.03,8.03,0,0,1,.165-1.072c.264-1.8.528-3.58.775-5.378a343.52,343.52,0,0,0,3.035-34.958l37.6,20.457c-.445,11.548-1.452,23.294-3.035,34.958-.247,1.8-.495,3.58-.775,5.378C152.213,330.309,152.163,330.672,152.1,331.035Z" transform="translate(-114.5 -269.17)"/></clipPath><clipPath id="i"><path class="a" d="M181.907,229.737l-37.6-20.457a4.949,4.949,0,0,1,2.31.214l37.6,20.457a4.949,4.949,0,0,0-2.31-.214Z" transform="translate(-144.31 -209.229)"/></clipPath><clipPath id="j"><path class="a" d="M147.346,209.831l37.663,20.457a6.206,6.206,0,0,0-.759-.33,5.3,5.3,0,0,0-2.293-.214l-37.6-20.457a5.3,5.3,0,0,1,2.293.214A6.306,6.306,0,0,1,147.346,209.831Z" transform="translate(-144.36 -209.245)"/></clipPath><clipPath id="k"><path class="a" d="M154.507,311.457,116.91,291c2.31-26.4,4.5-53.962,4.619-55.431l37.6,20.506C159.011,257.478,156.817,285.095,154.507,311.457Z" transform="translate(-116.91 -235.57)"/></clipPath><clipPath id="l"><path class="a" d="M152.667,346.415l-37.6-20.456c.709-7.7,1.815-20.968,3.035-34.974,2.277-26.066,4.57-54.771,4.619-55.414l37.6,20.506c0,.643-2.326,29.349-4.619,55.414C154.548,325.447,153.393,338.711,152.667,346.415Z" transform="translate(-115.07 -235.57)"/></clipPath><clipPath id="m"><path class="a" d="M155.054,237.23,117.44,216.774a7.011,7.011,0,0,1,5.131-4.174l37.6,20.457a6.945,6.945,0,0,0-5.114,4.174Z" transform="translate(-117.44 -212.6)"/></clipPath><clipPath id="n"><path class="a" d="M120.51,212.6h0l37.663,20.457h0Z" transform="translate(-120.51 -212.6)"/></clipPath><clipPath id="o"><path class="a" d="M152.451,247.333l-37.614-20.457a6.4,6.4,0,0,1-.577-2.689,7.292,7.292,0,0,1,.594-2.837l37.6,20.457a7.589,7.589,0,0,0-.577,2.838,5.938,5.938,0,0,0,.577,2.689Z" transform="translate(-114.26 -221.35)"/></clipPath><clipPath id="p"><path class="a" d="M151.874,244.644,114.26,224.188a7.242,7.242,0,0,1,.594-2.838l37.6,20.44a7.357,7.357,0,0,0-.577,2.854Z" transform="translate(-114.26 -221.35)"/></clipPath><clipPath id="q"><path class="a" d="M121.667,212.6a8.249,8.249,0,0,1,2.145,1.155l16.415,8.942,18.543,10.08.511.28a6.2,6.2,0,0,0-2.953,1.353l-37.6-20.457a6.219,6.219,0,0,1,2.937-1.353Z" transform="translate(-118.73 -212.6)"/></clipPath><clipPath id="r"><path class="a" d="M117.44,215.12h0l37.6,20.457h0Z" transform="translate(-117.44 -215.12)"/></clipPath><clipPath id="s"><path class="a" d="M117.45,215.1l37.614,20.457h0l-37.6-20.457Z" transform="translate(-117.45 -215.1)"/></clipPath><clipPath id="t"><path class="a" d="M117.45,216.192a7.7,7.7,0,0,1,2.112-2.772l37.6,20.457a7.49,7.49,0,0,0-2.1,2.772Z" transform="translate(-117.45 -213.42)"/></clipPath><clipPath id="u"><path class="a" d="M97.024,253.355,59.41,232.9c24.515-12.356,47.594-23.937,48.9-24.119l37.6,20.44C144.6,229.418,121.522,241,97.024,253.355Z" transform="translate(-59.41 -208.78)"/></clipPath><clipPath id="v"><path class="a" d="M43.747,362.274,6.15,341.768a12.719,12.719,0,0,1-5.988-13.2l37.6,20.506a12.719,12.719,0,0,0,5.988,13.2Z" transform="translate(0.045 -328.57)"/></clipPath><clipPath id="w"><path class="a" d="M37.677,390.938.08,370.5c3.86-35.65,7.506-71.317,11.235-106.357L48.928,284.6C45.183,319.637,41.554,355.271,37.677,390.938Z" transform="translate(-0.08 -264.14)"/></clipPath><clipPath id="x"><path class="a" d="M44.5,287.527,6.89,267.07a24.482,24.482,0,0,0,.858-7.44l37.6,20.407A23.954,23.954,0,0,1,44.5,287.527Z" transform="translate(-6.89 -259.63)"/></clipPath><clipPath id="y"><path class="a" d="M50.437,273.706l-37.6-20.456c2.739-1.65,5.609-3.217,8.694-4.8,11.878-5.906,23.789-11.3,35.683-16.679l37.6,20.44C82.937,257.6,71.009,263,59.131,268.905,56,270.489,53.176,272.04,50.437,273.706Z" transform="translate(-12.84 -231.77)"/></clipPath><clipPath id="z"><path class="a" d="M45.007,289.679,7.41,269.272A58.07,58.07,0,0,1,11.237,253.2a31.625,31.625,0,0,1,5.131-8.414l37.6,20.457a31.626,31.626,0,0,0-5.131,8.414A58.07,58.07,0,0,0,45.007,289.679Z" transform="translate(-7.41 -244.79)"/></clipPath><clipPath id="aa"><path class="a" d="M211.6,153.759,174,133.3a56.083,56.083,0,0,0,1.65-6.252l37.6,20.457A56.089,56.089,0,0,1,211.6,153.759Z" transform="translate(-174 -127.05)"/></clipPath><clipPath id="ab"><path class="a" d="M221.387,141.451l-37.6-20.457a36.706,36.706,0,0,0,8.348-21.314l37.6,20.457A36.706,36.706,0,0,1,221.387,141.451Z" transform="translate(-183.79 -99.68)"/></clipPath><clipPath id="ac"><path class="a" d="M215.334,143.124,177.72,122.668a92.8,92.8,0,0,1,6.8-8.018l37.6,20.457a85.332,85.332,0,0,0-6.78,8.018Z" transform="translate(-177.72 -114.65)"/></clipPath><clipPath id="ad"><path class="a" d="M212.564,152.405,175,131.949a35.321,35.321,0,0,1,4.52-12.439l37.614,20.457A35.239,35.239,0,0,0,212.564,152.405Z" transform="translate(-175 -119.51)"/></clipPath><clipPath id="ae"><path class="a" d="M226.9,120.563l-37.6-20.457c.511-3.3.874-6.6,1.089-9.766l37.6,20.457C227.788,114.046,227.409,117.313,226.9,120.563Z" transform="translate(-189.3 -90.34)"/></clipPath><clipPath id="af"><path class="a" d="M227.531,113.473,190,93.017a44.539,44.539,0,0,0,0-6.8l37.614,20.457A44.542,44.542,0,0,1,227.531,113.473Z" transform="translate(-190 -86.22)"/></clipPath><clipPath id="ag"><path class="a" d="M147.417,212.237l-37.6-20.44q2.211,1.188,4.5,2.227a55.6,55.6,0,0,0,31.246,4.421,68.579,68.579,0,0,0,31.262-13.2,86.208,86.208,0,0,0,7.143-5.741,108.586,108.586,0,0,0,23.838-30.256A145.174,145.174,0,0,0,215.7,130.84L253.3,151.3a142.747,142.747,0,0,1-7.9,18.361,108.238,108.238,0,0,1-23.822,30.289c-2.26,2.046-4.652,3.86-7.143,5.741a68.414,68.414,0,0,1-31.345,13.2,55.316,55.316,0,0,1-31.246-4.421Q149.628,213.458,147.417,212.237Z" transform="translate(-109.82 -130.84)"/></clipPath><clipPath id="ah"><path class="a" d="M143.294,202.166,105.68,181.709c-1.534-.841-3.035-1.732-4.52-2.689l37.68,20.457C140.242,200.433,141.76,201.324,143.294,202.166Z" transform="translate(-101.16 -179.02)"/></clipPath><clipPath id="ai"><path class="a" d="M120.337,150.277,82.74,129.82l.693.363,37.68,20.457Z" transform="translate(-82.74 -129.82)"/></clipPath><clipPath id="aj"><path class="a" d="M156.109,223.744l-37.68-20.49c-21.694-13.2-37.267-34.974-43.85-61.584l37.614,20.457C118.776,188.77,134.349,210.628,156.109,223.744Z" transform="translate(-74.58 -141.67)"/></clipPath><clipPath id="ak"><path class="a" d="M179.844,117.585l-37.6-20.473A111.9,111.9,0,0,1,103,61.28l37.6,20.457a112.049,112.049,0,0,0,39.247,35.848Z" transform="translate(-103 -61.28)"/></clipPath><clipPath id="al"><path class="a" d="M142.342,84.426,104.728,63.97a21.957,21.957,0,0,1-4.388-6.83l37.6,20.457A21.957,21.957,0,0,0,142.342,84.426Z" transform="translate(-100.34 -57.14)"/></clipPath><clipPath id="am"><path class="a" d="M120.685,176.96,83.072,156.5c-12.439-7.655-20.325-21.446-21.562-37.614l37.6,20.457C100.344,155.514,108.23,169.305,120.685,176.96Z" transform="translate(-61.51 -118.89)"/></clipPath><clipPath id="an"><path class="a" d="M99.208,138.868,61.594,118.494a3.035,3.035,0,0,1-.264-1.254l37.6,20.457A2.954,2.954,0,0,0,99.208,138.868Z" transform="translate(-61.33 -117.24)"/></clipPath><clipPath id="ao"><path class="a" d="M98.951,166.371l-37.6-20.457c-.231-5.23.214-21.182.891-37.7s1.65-32.664,1.65-35.238l37.6,20.457c0,2.574-.973,18.724-1.65,35.238S98.753,161.141,98.951,166.371Z" transform="translate(-61.293 -72.98)"/></clipPath><clipPath id="ap"><path class="a" d="M238.171,11.036l37.6,20.457c-20.638-11.235-46.753-12.868-71.119-9.453l-1.039.148c-31.576,4.438-62.161,20.984-86.132,46.621L79.88,48.353c23.97-25.637,54.54-42.183,86.132-46.621l1.039-.132C191.418-1.832,217.533-.2,238.171,11.036Z" transform="translate(-79.88 -0.001)"/></clipPath><clipPath id="aq"><path class="a" d="M100.477,121.8l-37.6-20.424A130.609,130.609,0,0,1,90.925,29.33l37.6,20.457a130.608,130.608,0,0,0-28.045,72.01Z" transform="translate(-62.88 -29.33)"/></clipPath></defs><g transform="translate(0.045 -0.001)"><g transform="translate(-0.045 0.001)"><g transform="translate(0 324.284)"><g transform="translate(370.8 15.689)"><g class="b"><path class="c" d="M262.334,226.537,224.72,206.08c11.878,2.029,23.772,4.108,35.65,6.6,2.26.528,4.4,1.089,6.417,1.65l37.581,20.556c-2.013-.61-4.157-1.171-6.417-1.65-11.861-2.557-23.772-4.619-35.634-6.6" transform="translate(-224.72 -206.08)"/><path class="d" d="M287.807,231.6l-37.6-20.457,2.128.693,37.614,20.523-2.128-.693" transform="translate(-208.159 -202.792)"/></g></g><path class="c" d="M242.947,223.347l-37.6-20.457,31.955,5.263,37.614,20.457Z" transform="translate(133.495 -192.464)"/><g transform="translate(247.549 151.609)"><g class="e"><path class="c" d="M187.756,310.246l-37.6-20.456a8.658,8.658,0,0,0-.148-1.32l37.614,20.456c.082.841.132,1.287.132,1.32" transform="translate(-150.01 -288.47)"/></g></g><g transform="translate(247.533 143.971)"><g class="f"><path class="c" d="M187.63,311.935,150,291.478c1.105-2.574,2.194-5.032,3.068-7.638l37.6,20.457c-.858,2.607-1.963,5.065-3.052,7.638" transform="translate(-150 -283.84)"/></g></g><g transform="translate(250.618 4.537)"><g class="g"><path class="c" d="M189.467,359.211l-37.6-20.457c7.82-25.587,15.59-50.564,22.519-75.508,2.524-9.205,4.949-18.246,7.193-27.418,2.986-12.092,5.873-24.3,8.744-36.508l37.647,20.457c-2.854,12.208-5.741,24.416-8.744,36.492-2.277,9.189-4.669,18.147-7.193,27.435-6.929,24.944-14.7,49.921-22.519,75.508" transform="translate(-151.87 -199.32)"/></g></g><g transform="translate(289.122)"><g class="h"><path class="c" d="M212.807,221.563l-37.6-20.457c.462-1.5.858-3,1.188-4.537l37.548,20.506c-.313,1.534-.726,3.035-1.188,4.537" transform="translate(-175.21 -196.57)"/></g></g><g transform="translate(290.26 0.049)"><g class="i"><path class="c" d="M213.5,217.057,175.9,196.6c1.072,0,24.234,4.949,48.584,10.426l37.6,20.457c-24.35-5.428-47.512-10.393-48.584-10.426" transform="translate(-175.9 -196.6)"/></g></g><g transform="translate(189.281 152.929)"><g class="j"><g transform="translate(-0.083 0)"><path class="d" d="M152.237,314.137l-37.6-20.457h.132l37.614,20.457h-.148" transform="translate(-114.64 -286.405)"/><path class="c" d="M152.334,317.051,114.72,296.595c1.765.412,14.847-1.749,29.695-3.827,9.651-1.353,20.094-2.689,28.722-3.5l37.6,20.457c-8.628.808-19.054,2.145-28.722,3.5-14.847,2.079-27.864,4.24-29.695,3.827" transform="translate(-114.588 -289.27)"/></g></g></g><g transform="translate(188.968 119.77)"><g class="k"><path d="M152.1,331.035l-37.6-20.457a8.03,8.03,0,0,1,.165-1.072c.264-1.8.528-3.58.775-5.378a343.52,343.52,0,0,0,3.035-34.958l37.6,20.457c-.445,11.548-1.452,23.294-3.035,34.958-.247,1.8-.495,3.58-.775,5.378a6.264,6.264,0,0,1-.165,1.072" transform="translate(-114.5 -269.17)"/></g></g><g transform="translate(238.146 20.884)"><g class="l"><g transform="translate(0 0.006)"><path class="c" d="M181.907,229.734l-37.6-20.457a5.18,5.18,0,0,1,2.145.165l37.6,20.457a5.179,5.179,0,0,0-2.145-.165" transform="translate(-144.31 -209.233)"/><path class="d" d="M183.207,229.817l-37.6-20.457h.165l37.6,20.457h-.165" transform="translate(-143.465 -209.15)"/></g></g></g><g transform="translate(238.228 20.909)"><g class="m"><g transform="translate(-0.066 -0.021)"><path d="M181.917,229.735l-37.6-20.457a4.95,4.95,0,0,1,2.161.181l37.6,20.457a4.95,4.95,0,0,0-2.161-.181" transform="translate(-144.32 -209.232)"/><path d="M183.227,229.827l-37.6-20.457h.132a6.308,6.308,0,0,1,.759.346l37.663,20.489a6.206,6.206,0,0,0-.759-.33h-.132" transform="translate(-143.469 -209.142)"/></g></g></g><g transform="translate(192.943 64.339)"><g class="n"><path d="M154.507,311.457,116.91,291c2.31-26.4,4.5-53.962,4.619-55.431l37.6,20.506c-.115,1.452-2.31,29.068-4.619,55.431" transform="translate(-116.91 -235.57)"/></g></g><path class="o" d="M137.86,338.358c.726-7.7,1.815-20.968,3.035-34.974,2.293-26.066,4.57-54.771,4.619-55.414,0,0-2.31,29.068-4.619,55.431C140.45,315.015,139.444,326.695,137.86,338.358Z" transform="translate(89.645 -163.174)"/><g transform="translate(189.908 64.339)"><g class="p"><path class="c" d="M152.667,346.415l-37.6-20.456c.709-7.7,1.815-20.968,3.035-34.974,2.277-26.066,4.57-54.771,4.619-55.414l37.6,20.506c0,.643-2.326,29.349-4.619,55.414-1.221,14.006-2.31,27.27-3.035,34.974" transform="translate(-115.07 -235.57)"/></g></g><path d="M160.621,263.089l-37.6-20.457L114.61,224.7l37.614,20.457Z" transform="translate(74.539 -178.293)"/><path d="M158.147,235.227l-37.6-20.457,39.214-5.51,37.6,20.457Z" transform="translate(78.398 -188.325)"/><path class="q" d="M158.147,235.21l-37.6-20.457,39.2-5.494,37.6,20.457Z" transform="translate(78.398 -188.325)"/><g transform="translate(193.818 26.445)"><g class="r"><path d="M155.054,237.23,117.44,216.774a7.011,7.011,0,0,1,5.131-4.174l37.6,20.457a6.945,6.945,0,0,0-5.114,4.174" transform="translate(-117.44 -212.6)"/></g></g><g transform="translate(198.882 26.445)"><g class="s"><g transform="translate(-5.065 0)"><path class="c" d="M155.054,237.214,117.44,216.757a6.945,6.945,0,0,1,5.131-4.157l37.6,20.457a7,7,0,0,0-5.114,4.174" transform="translate(-117.44 -212.6)"/></g></g></g><g transform="translate(188.572 40.88)"><g class="t"><path d="M152.451,247.333l-37.614-20.457a6.4,6.4,0,0,1-.577-2.689,7.292,7.292,0,0,1,.594-2.837l37.6,20.457a7.589,7.589,0,0,0-.577,2.838,5.938,5.938,0,0,0,.577,2.689" transform="translate(-114.26 -221.35)"/></g></g><g transform="translate(188.572 40.88)"><g class="u"><path class="c" d="M151.874,244.644,114.26,224.188a7.242,7.242,0,0,1,.594-2.838l37.6,20.44a7.357,7.357,0,0,0-.577,2.854" transform="translate(-114.26 -221.35)"/></g></g><g transform="translate(195.946 26.445)"><g class="v"><g transform="translate(-2.128 0)"><path class="c" d="M155.054,237.214,117.44,216.757a6.945,6.945,0,0,1,5.131-4.157l37.6,20.457a7,7,0,0,0-5.114,4.174" transform="translate(-117.44 -212.6)"/></g></g></g><path d="M152.217,245.848l-37.6-20.457,4.652-10.261,37.614,20.457Z" transform="translate(74.546 -184.511)"/><path class="w" d="M152.217,245.854,114.62,225.4l4.652-10.278,37.614,20.457Z" transform="translate(74.546 -184.518)"/><g transform="translate(193.818 30.602)"><g class="x"><g transform="translate(0 -4.157)"><path class="c" d="M155.054,237.214,117.44,216.757a6.945,6.945,0,0,1,5.131-4.157l37.6,20.457a7,7,0,0,0-5.114,4.174" transform="translate(-117.44 -212.6)"/></g></g></g><g transform="translate(193.834 30.569)"><g class="y"><g transform="translate(-0.016 -4.124)"><path class="c" d="M155.054,237.214,117.44,216.757a6.945,6.945,0,0,1,5.131-4.157l37.6,20.457a7,7,0,0,0-5.114,4.174" transform="translate(-117.44 -212.6)"/></g></g></g><g transform="translate(193.834 27.798)"><g class="z"><g transform="translate(-0.016 -1.353)"><path class="c" d="M155.054,237.214,117.44,216.757a6.945,6.945,0,0,1,5.131-4.157l37.6,20.457a7,7,0,0,0-5.114,4.174" transform="translate(-117.44 -212.6)"/></g></g></g><path d="M186.628,221.676a5.3,5.3,0,0,1,2.293.214,4.949,4.949,0,0,1,2.838,2.524l4.619,8.958a6.929,6.929,0,0,1,0,5.527l-8.48,20.308c.116,1.435,2.194,28.8,4.4,54.144,1.3,15.573,3.3,33.984,3.745,39,.082.858.132,1.287.132,1.32-8.628.808-19.054,2.145-28.722,3.5-16.068,2.26-30.025,4.6-30.008,4.751a7.641,7.641,0,0,1,.165-1.072c.28-1.8.528-3.58.775-5.378a343.517,343.517,0,0,0,3.035-34.958c2.31-26.4,4.5-53.979,4.619-55.431l-8.4-17.932a5.939,5.939,0,0,1-.577-2.689,7.589,7.589,0,0,1,.577-2.837l4.669-10.261a6.946,6.946,0,0,1,5.114-4.174Z" transform="translate(89.131 -180.285)"/><path class="o" d="M142.306,231.364l-4.669,10.261a7.589,7.589,0,0,0-.577,2.838,7.357,7.357,0,0,1,.577-2.854l4.669-10.261a7,7,0,0,1,5.114-4.174l39.2-5.494a4.95,4.95,0,0,1,2.31.215,5.3,5.3,0,0,0-2.293-.215l-39.214,5.51a6.945,6.945,0,0,0-5.114,4.174Z" transform="translate(89.125 -180.289)"/><g transform="translate(98.085 20.143)"><g class="aa"><path class="c" d="M97.024,253.355,59.41,232.9c24.515-12.356,47.594-23.937,48.9-24.119l37.6,20.44c-1.3.2-24.383,11.779-48.881,24.135" transform="translate(-59.41 -208.78)"/></g></g><g transform="translate(0 217.763)"><g class="ab"><path class="c" d="M43.747,362.274,6.15,341.768a12.719,12.719,0,0,1-5.988-13.2l37.6,20.506a12.719,12.719,0,0,0,5.988,13.2" transform="translate(0.045 -328.57)"/></g></g><path class="w" d="M77.337,257.648l-37.6-20.44L72.19,223.4,109.8,243.857Z" transform="translate(25.894 -179.138)"/><g transform="translate(0.207 111.472)"><g class="ac"><path class="c" d="M37.677,390.938.08,370.5c3.86-35.65,7.506-71.317,11.235-106.357L48.928,284.6c-3.745,35.04-7.374,70.674-11.251,106.358" transform="translate(-0.08 -264.14)"/></g></g><g transform="translate(11.441 104.031)"><g class="ad"><path class="c" d="M44.5,287.527,6.89,267.07a24.482,24.482,0,0,0,.858-7.44l37.6,20.407a23.954,23.954,0,0,1-.841,7.44" transform="translate(-6.89 -259.63)"/></g></g><g transform="translate(21.257 58.07)"><g class="ae"><path class="c" d="M50.437,273.706l-37.6-20.456c2.739-1.65,5.609-3.217,8.694-4.8,11.878-5.906,23.789-11.3,35.683-16.679l37.6,20.44C82.937,257.6,71.009,263,59.131,268.905c-3.085,1.65-5.955,3.134-8.694,4.8" transform="translate(-12.84 -231.77)"/></g></g><path class="o" d="M458.018,364.773a21.622,21.622,0,0,1,.214,2.8c0,7.869-5.939,15.062-13.2,16.085L434.1,385.2a9.427,9.427,0,0,1-1.32.28c-.429,0-.874.082-1.3.1L49.4,439.258a9.61,9.61,0,0,1-1.369.28,12.42,12.42,0,0,1-1.369.116l-10.443,1.468a12.474,12.474,0,0,1-2.046.148c-7.226,0-12.257-6.6-11.251-14.452C26.8,391.135,30.427,355.5,34.172,320.461a23.954,23.954,0,0,0,.841-7.49A58.071,58.071,0,0,1,38.84,296.9a31.625,31.625,0,0,1,5.131-8.414c2.739-1.65,5.609-3.217,8.694-4.8,11.878-5.906,23.805-11.3,35.683-16.7L120.815,253.2c24.5-12.356,47.578-23.937,48.881-24.135l1.072,4.223c2.936,11.383,5.758,22.8,8.727,34.05,2.211,8.546,4.6,16.926,6.962,25.439,6.9,23.014,14.567,45.8,22.255,68.447a31.874,31.874,0,0,0,3.134,7.82c-.182.924,13.775-1.419,29.843-3.679,9.667-1.353,20.094-2.689,28.722-3.5a9.484,9.484,0,0,0-.132-1.32c1.089-2.574,2.194-5.032,3.052-7.638,7.82-25.587,15.59-50.564,22.519-75.508,2.524-9.205,4.949-18.246,7.193-27.435,3-12.076,5.89-24.284,8.744-36.492.462-1.5.874-3,1.188-4.537,1.072,0,24.234,4.949,48.584,10.426l31.972,5.263c11.861,2.029,23.772,4.091,35.634,6.6a86.381,86.381,0,0,1,8.546,2.557,20.738,20.738,0,0,1,5.213,7.077,45.845,45.845,0,0,1,3.893,14.221,17.62,17.62,0,0,1,.94,7.176C451.122,296.342,454.405,330.64,458.018,364.773Z" transform="translate(14.883 -188.533)"/><g transform="translate(12.299 79.55)"><g class="af"><path class="c" d="M45.007,289.679,7.41,269.272A58.07,58.07,0,0,1,11.237,253.2a31.625,31.625,0,0,1,5.131-8.414l37.6,20.457a31.626,31.626,0,0,0-5.131,8.414,58.07,58.07,0,0,0-3.827,16.019" transform="translate(-7.41 -244.79)"/></g></g></g><g transform="translate(101.19)"><path class="w" d="M219.954,135.7,182.34,115.246l2.392-2.656,37.6,20.457Z" transform="translate(17.354 73.15)"/><path class="w" d="M219.437,135.4l-37.6-20.457.825-.742,37.614,20.457Z" transform="translate(17.029 74.196)"/><g transform="translate(185.936 209.595)"><g class="ag"><path class="c" d="M211.6,153.759,174,133.3a56.083,56.083,0,0,0,1.65-6.252l37.6,20.457a56.087,56.087,0,0,1-1.65,6.252" transform="translate(-174 -127.05)"/></g></g><g transform="translate(202.086 164.442)"><g class="ah"><path class="c" d="M221.387,141.451l-37.6-20.457a36.706,36.706,0,0,0,8.348-21.314l37.6,20.457a36.706,36.706,0,0,1-8.348,21.314" transform="translate(-183.79 -99.68)"/></g></g><g transform="translate(192.073 189.139)"><g class="ai"><path class="c" d="M215.334,143.124,177.72,122.668a92.8,92.8,0,0,1,6.8-8.018l37.6,20.457a85.332,85.332,0,0,0-6.78,8.018" transform="translate(-177.72 -114.65)"/></g></g><g transform="translate(187.585 197.156)"><g class="aj"><path class="c" d="M212.564,152.405,175,131.949a35.321,35.321,0,0,1,4.52-12.439l37.614,20.457a35.238,35.238,0,0,0-4.537,12.439" transform="translate(-175 -119.51)"/></g></g><path class="w" d="M226.447,122.342l-37.6-20.457.742-5.626,37.6,20.457Z" transform="translate(21.584 62.54)"/><g transform="translate(211.176 149.034)"><g class="ak"><path class="c" d="M226.9,120.563l-37.6-20.457c.511-3.3.874-6.6,1.089-9.766l37.6,20.457c-.2,3.3-.577,6.6-1.089,9.766" transform="translate(-189.3 -90.34)"/></g></g><g transform="translate(212.331 142.237)"><g class="al"><path class="c" d="M227.531,113.473,190,93.017a44.539,44.539,0,0,0,0-6.8l37.614,20.457a44.539,44.539,0,0,1,0,6.8" transform="translate(-190 -86.22)"/></g></g><path class="w" d="M227.567,107.528l-37.6-20.457V84.91l37.6,20.44Z" transform="translate(22.312 55.166)"/><g transform="translate(80.057 215.848)"><g class="am"><path class="d" d="M147.417,188.23l-37.6-20.44q2.211,1.188,4.5,2.227a53.174,53.174,0,0,0,6.813,2.607l37.614,20.457a52,52,0,0,1-6.83-2.623q-2.31-1.006-4.5-2.227" transform="translate(-109.82 -106.833)"/><path class="c" d="M154.294,217.087,116.68,196.631a56.652,56.652,0,0,0,24.432,1.815,68.579,68.579,0,0,0,31.262-13.2,86.205,86.205,0,0,0,7.143-5.741,108.585,108.585,0,0,0,23.839-30.256,145.174,145.174,0,0,0,7.886-18.411l37.6,20.457a142.747,142.747,0,0,1-7.9,18.361,108.238,108.238,0,0,1-23.822,30.289c-2.26,2.046-4.652,3.86-7.143,5.741a68.414,68.414,0,0,1-31.345,13.2,56.322,56.322,0,0,1-24.416-1.8" transform="translate(-105.363 -130.84)"/></g></g><g transform="translate(65.77 295.331)"><g class="an"><path class="c" d="M143.294,202.166,105.68,181.709c-1.534-.841-3.035-1.732-4.52-2.689l37.68,20.457c1.485.957,3,1.848,4.537,2.689" transform="translate(-101.16 -179.02)"/></g></g><g transform="translate(35.382 214.165)"><g class="ao"><path class="d" d="M120.337,150.277,82.74,129.82l.693.363,37.68,20.457-.693-.363" transform="translate(-82.74 -129.82)"/></g></g><g transform="translate(21.92 233.714)"><g class="ap"><path class="c" d="M156.109,223.744l-37.68-20.49c-21.694-13.2-37.267-34.974-43.85-61.584l37.614,20.457c6.6,26.61,22.156,48.469,43.833,61.584" transform="translate(-74.58 -141.67)"/></g></g><g transform="translate(68.805 101.093)"><g class="aq"><path class="c" d="M179.844,117.585l-37.6-20.473A111.9,111.9,0,0,1,103,61.28l37.6,20.457a112.049,112.049,0,0,0,39.23,35.848" transform="translate(-103 -61.28)"/></g></g><g transform="translate(64.417 94.263)"><g class="ar"><path class="c" d="M142.342,84.426,104.728,63.97a21.957,21.957,0,0,1-4.388-6.83l37.6,20.457a21.958,21.958,0,0,0,4.388,6.83" transform="translate(-100.34 -57.14)"/></g></g><path class="w" d="M138.181,78.064l-37.6-20.457L99.99,56.42l37.6,20.457Z" transform="translate(-36.15 36.655)"/><g transform="translate(0.359 196.133)"><g class="as"><path class="c" d="M120.685,176.96,83.072,156.5c-12.439-7.655-20.325-21.446-21.562-37.614l37.6,20.457c1.237,16.167,9.123,29.959,21.578,37.614" transform="translate(-61.51 -118.89)"/></g></g><path class="w" d="M99.107,139.957,61.51,119.5V117.95l37.6,20.457Z" transform="translate(-61.151 76.633)"/><g transform="translate(0.062 193.411)"><g class="at"><path class="c" d="M99.208,138.868,61.594,118.494a3.035,3.035,0,0,1-.264-1.254l37.6,20.457a2.954,2.954,0,0,0,.28,1.254" transform="translate(-61.33 -117.24)"/></g></g><g transform="translate(0 120.395)"><g class="au"><path class="c" d="M98.951,166.371l-37.6-20.457c-.231-5.23.214-21.182.891-37.7s1.65-32.664,1.65-35.238l37.6,20.457c0,2.574-.973,18.724-1.65,35.238s-1.138,32.467-.907,37.7" transform="translate(-61.293 -72.98)"/></g></g><g transform="translate(30.664)"><g class="av"><g transform="translate(0 0.004)"><path class="c" d="M117.477,68.808,79.88,48.351C103.85,22.714,134.42,6.168,166.012,1.73l1.039-.132C185.66-1.025,205.457-.679,222.828,4.65l37.6,20.457c-17.454-5.329-37.135-5.675-55.777-3.068l-1.039.148c-31.576,4.438-62.161,20.984-86.132,46.621" transform="translate(-79.88 -0.003)"/><path class="d" d="M204.127,23.277,166.53,2.82A82.487,82.487,0,0,1,181.872,9.2l37.6,20.457a81.991,81.991,0,0,0-15.342-6.384" transform="translate(-23.582 1.827)"/></g></g></g><path class="o" d="M318.428,128.89v21.364c0,2.689.231,4.949,0,8.974a62.691,62.691,0,0,1-1.2,11.449,13.594,13.594,0,0,0-.726,5.279,64.421,64.421,0,0,1-15.524,37.2l-2.9,3.167-.825.115c-1.32,1.468-2.755,3.2-3.563,4.108a4.289,4.289,0,0,0-.841,3.167c-.742,3.3-1.65,6.6-2.656,9.75a161.671,161.671,0,0,1-9.552,22.04,133.627,133.627,0,0,1-29.695,38.059,94.578,94.578,0,0,1-50.564,24.746A73.5,73.5,0,0,1,149.893,307.7c-21.677-13.115-37.251-34.974-43.833-61.584-12.455-7.655-20.341-21.446-21.578-37.614v-1.551c-.115,0-.231-.594-.3-1.254-.231-5.23.214-21.182.907-37.7s1.65-32.664,1.65-35.238a130.609,130.609,0,0,1,28.045-72.043c23.97-25.637,54.556-42.183,86.132-46.621l1.039-.148c33.209-4.652,69.684.082,91.1,25.686C311.054,64.04,320.028,95.55,318.428,128.89Zm-22.106,32.5a44.539,44.539,0,0,0,0-6.8v-2.112a32.533,32.533,0,0,1-6.4,2.442l-4.636,1.65a131.068,131.068,0,0,1-22.04,5.081c-43.883,6.17-85.505-11.548-110.383-48.155a21.957,21.957,0,0,1-4.388-6.83l-.594-1.188a34.859,34.859,0,0,0-4.784,1.963,54.8,54.8,0,0,0-28.59,36.607A57.856,57.856,0,0,0,113.17,158.9v7.061l-3.1.429c-3.728,1.435-6.467,8.249-5.593,13.726v1.419c-.115,2.376-.115,4.735,0,7.061.231,2.92,1.171,5.857,1.171,9.073v5.642c.594,10.558,6.021,19.417,14.5,23.69l1.072.61,1.072.759a12.851,12.851,0,0,1,3.662,6.6c4.751,22.733,17.438,41.573,35.551,52.791a63.569,63.569,0,0,0,7.127,3.728,55.315,55.315,0,0,0,31.246,4.421,68.413,68.413,0,0,0,31.345-13.2,89.041,89.041,0,0,0,7.143-5.741,108.239,108.239,0,0,0,23.723-30.338,142.749,142.749,0,0,0,7.886-18.361,56.089,56.089,0,0,0,1.65-6.252,35.238,35.238,0,0,1,4.537-12.439,85.342,85.342,0,0,1,6.78-8.018l.841-.742,2.376-2.656a36.706,36.706,0,0,0,8.348-21.314l.742-5.626c.511-3.3.891-6.6,1.089-9.766" transform="translate(-46.459 8.035)"/><g transform="translate(2.619 48.384)"><g class="aw"><path class="c" d="M100.477,121.8l-37.6-20.424A130.609,130.609,0,0,1,90.925,29.33l37.6,20.457a130.608,130.608,0,0,0-28.045,72.043" transform="translate(-62.88 -29.33)"/></g></g></g></g></g></svg>