<svg xmlns="http://www.w3.org/2000/svg" xmlns:xlink="http://www.w3.org/1999/xlink" width="500.89" height="496.032" viewBox="0 0 500.89 496.032"><defs><style>.a{fill:none;}.b{fill:#004c47;}.c{fill:#04675f;}.d{clip-path:url(#a);}.e{fill:#004a46;}.f{fill:#004d48;}.g{fill:#004f4b;}.h{fill:#004844;}.i{fill:#004642;}.j{fill:#00433f;}.k{fill:#00413d;}.l{fill:#003e3b;}.m{clip-path:url(#b);}.n{clip-path:url(#c);}.o{fill:#04524c;}.p{fill:#068e84;}.q{fill:#006963;}.r{clip-path:url(#d);}</style><clipPath id="a"><path class="a" d="M153.25,419.45l-22.8-12.4c24.94,13.57,54.51,19.3,86.19,14.85C305.75,409.38,378.38,321,378.56,224.78a177.688,177.688,0,0,0-5.39-44.3l22.8,12.4a177.688,177.688,0,0,1,5.38,44.3c-.18,96.17-72.81,184.6-161.92,197.12C207.75,438.75,178.18,433,153.25,419.45Z"/></clipPath><clipPath id="b"><path class="a" d="M303.48,87.93l22.79,12.39a135.359,135.359,0,0,1,33.85,26.17l-22.79-12.4A135.27,135.27,0,0,0,303.48,87.93Z"/></clipPath><clipPath id="c"><path class="a" d="M333.29,33.24l22.79,12.4c-33.5-18.23-73.25-25.92-115.9-19.93L217.39,13.32C260,7.32,299.79,15,333.29,33.24Z"/></clipPath><clipPath id="d"><path class="a" d="M123.37,474l-22.79-12.4C39.92,428.61-.15,361.19,0,278,.24,148.66,97.57,30.16,217.39,13.32l22.79,12.39C120.36,42.55,23,161.05,22.79,290.38,22.64,373.59,62.71,441,123.37,474Z"/></clipPath></defs><g transform="translate(0)"><path class="b" d="M395.96,192.88l-22.79-12.4,43.12-54.04,22.79,12.4Z"/><path class="c" d="M398.86,78.01l-22.8-12.4L428.5,0l22.79,12.4Z"/><path class="c" d="M360.12,126.48l-22.8-12.39,38.74-48.48,22.8,12.4Z"/><path class="c" d="M239.51,277.41l-22.8-12.4L337.32,114.09l22.8,12.39Z"/><g class="d"><path class="e" d="M153.25,419.45l-22.8-12.4c1.63.89,3.27,1.74,4.94,2.55L158.18,422c-1.66-.81-3.31-1.66-4.93-2.55"/><path class="f" d="M158.18,422l-22.79-12.4a133.33,133.33,0,0,0,25.55,9.45l22.8,12.4A133.421,133.421,0,0,1,158.18,422"/><path class="g" d="M183.74,431.45l-22.8-12.4a143.07,143.07,0,0,0,55.7,2.85,164.7,164.7,0,0,0,47.09-14.16l22.8,12.4a164.76,164.76,0,0,1-47.1,14.16,143,143,0,0,1-55.69-2.85"/><path class="f" d="M286.53,420.14l-22.8-12.4A182.612,182.612,0,0,0,290,392.6L312.8,405a183.16,183.16,0,0,1-26.25,15.14"/><path class="e" d="M312.78,405,290,392.6a197.217,197.217,0,0,0,19.58-15.49l22.79,12.39A196.9,196.9,0,0,1,312.78,405"/><path class="h" d="M332.35,389.5l-22.79-12.39a205.2,205.2,0,0,0,16.53-16.7l22.79,12.4a203.468,203.468,0,0,1-16.53,16.69"/><path class="i" d="M348.88,372.81l-22.79-12.4a213.1,213.1,0,0,0,14.59-18.51l22.79,12.4a211.2,211.2,0,0,1-14.59,18.51"/><path class="j" d="M363.47,354.3l-22.79-12.4a214.379,214.379,0,0,0,13.19-21.4l22.79,12.4a213.681,213.681,0,0,1-13.19,21.4"/><path class="k" d="M376.66,332.9l-22.79-12.4a212.825,212.825,0,0,0,12.26-27.23l22.79,12.4a210.092,210.092,0,0,1-12.26,27.23"/><path class="l" d="M388.92,305.67l-22.79-12.4a200.2,200.2,0,0,0,12.43-68.49,177.688,177.688,0,0,0-5.39-44.3l22.8,12.4a177.687,177.687,0,0,1,5.38,44.3,199.72,199.72,0,0,1-12.43,68.49"/></g><g class="m"><path class="l" d="M360.12,126.49l-22.79-12.4a135.269,135.269,0,0,0-33.85-26.16l22.79,12.39a135.36,135.36,0,0,1,33.85,26.17"/></g><g class="n"><path class="g" d="M240.18,25.71,217.39,13.32a192.32,192.32,0,0,1,75.26,3.9l22.79,12.4a192.3,192.3,0,0,0-75.26-3.91"/><path class="f" d="M315.44,29.62l-22.79-12.4a178.44,178.44,0,0,1,34.14,12.65l22.79,12.4a178.437,178.437,0,0,0-34.14-12.65"/><path class="e" d="M349.58,42.27l-22.79-12.4q3.29,1.62,6.5,3.37l22.79,12.4q-3.21-1.76-6.5-3.37"/></g><path class="c" d="M106.34,259.48l-22.79-12.4,49.8-62.93,22.8,12.4Z"/><path class="o" d="M238.72,388.72l-22.8-12.4L83.55,247.08l22.79,12.4Z"/><path class="p" d="M451.29,12.4l49.6,48.95-61.81,77.49-43.12,54.04L241.95,385.95l-3.23,2.77L106.34,259.48l49.81-62.93,83.36,80.86L360.12,126.48l38.74-48.47Z"/><path class="q" d="M240.18,25.71c62.71-8.81,119.15,12,158.68,52.3l-38.74,48.48c-29.54-31.37-72.39-47.71-120-41C151,98,78.35,186.43,78.17,282.6s72.16,164.22,161.26,151.7S401.17,333.35,401.35,237.18a177.692,177.692,0,0,0-5.38-44.3l43.11-54c11.4,26.91,17.7,57.48,17.64,90.55-.12,62.11-23.09,124.88-63.86,174.51-40.54,49.6-95.6,82-153,90.08C119.5,510.9,22.55,419.71,22.79,290.38S120.36,42.55,240.18,25.71Z"/><g class="r"><path class="l" d="M123.37,474l-22.79-12.4C39.92,428.61-.15,361.19,0,278a268.9,268.9,0,0,1,16.72-92.19l22.79,12.4A269.14,269.14,0,0,0,22.79,290.4C22.64,373.59,62.71,441,123.37,474"/><path class="k" d="M39.51,198.19l-22.79-12.4a284.434,284.434,0,0,1,16.43-36.51L56,161.68a283.119,283.119,0,0,0-16.44,36.51"/><path class="j" d="M56,161.68l-22.8-12.4a285.167,285.167,0,0,1,17.68-28.66L73.62,133A283.267,283.267,0,0,0,56,161.68"/><path class="i" d="M73.62,133,50.83,120.6A281.529,281.529,0,0,1,70.36,95.83l22.79,12.4A281.52,281.52,0,0,0,73.62,133"/><path class="h" d="M93.15,108.23,70.36,95.83A273.276,273.276,0,0,1,92.5,73.47l22.79,12.4a274.9,274.9,0,0,0-22.14,22.36"/><path class="e" d="M115.29,85.87,92.5,73.47a261.481,261.481,0,0,1,26.23-20.76l22.79,12.4a261.484,261.484,0,0,0-26.23,20.76"/><path class="f" d="M141.52,65.11l-22.79-12.4A245.55,245.55,0,0,1,154,32.38l22.79,12.4a245.548,245.548,0,0,0-35.24,20.33"/><path class="g" d="M176.76,44.78,154,32.38a221.88,221.88,0,0,1,63.42-19.06l22.79,12.39a221.9,221.9,0,0,0-63.42,19.07"/></g></g></svg>