<svg xmlns="http://www.w3.org/2000/svg" xmlns:xlink="http://www.w3.org/1999/xlink" width="461.654" height="611.696" viewBox="0 0 461.654 611.696"><defs><style>.a{fill:none;}.b{clip-path:url(#a);}.c{fill:#04625c;}.d{fill:#045f5a;}.e{fill:#045c57;}.f{fill:#045954;}.g{fill:#035651;}.h{fill:#03534e;}.i{fill:#03504c;}.j{fill:#034d49;}.k{clip-path:url(#b);}.l{clip-path:url(#c);}.m{clip-path:url(#d);}.n{clip-path:url(#e);}.o{clip-path:url(#f);}.p{clip-path:url(#g);}.q{fill:#058078;}.r{fill:#034b46;}.s{fill:#046660;}.t{clip-path:url(#h);}.u{clip-path:url(#i);}.v{clip-path:url(#j);}.w{clip-path:url(#k);}.x{clip-path:url(#l);}.y{clip-path:url(#m);}.z{clip-path:url(#n);}.aa{clip-path:url(#o);}.ab{clip-path:url(#p);}.ac{clip-path:url(#q);}.ad{clip-path:url(#r);}.ae{clip-path:url(#s);}.af{clip-path:url(#t);}.ag{clip-path:url(#u);}.ah{clip-path:url(#v);}.ai{clip-path:url(#w);}.aj{fill:#045a55;}.ak{clip-path:url(#x);}.al{fill:#04635d;}.am{clip-path:url(#y);}.an{clip-path:url(#z);}.ao{clip-path:url(#aa);}.ap{clip-path:url(#ab);}.aq{clip-path:url(#ac);}.ar{fill:#04665f;}.as{clip-path:url(#ad);}.at{clip-path:url(#ae);}.au{clip-path:url(#af);}.av{clip-path:url(#ag);}.aw{clip-path:url(#ah);}.ax{clip-path:url(#ai);}.ay{clip-path:url(#aj);}.az{fill:#045853;}.ba{clip-path:url(#ak);}.bb{clip-path:url(#al);}.bc{clip-path:url(#am);}.bd{clip-path:url(#an);}.be{clip-path:url(#ao);}.bf{clip-path:url(#ap);}.bg{clip-path:url(#aq);}.bh{clip-path:url(#ar);}.bi{clip-path:url(#as);}.bj{clip-path:url(#at);}.bk{clip-path:url(#au);}.bl{clip-path:url(#av);}.bm{clip-path:url(#aw);}.bn{clip-path:url(#ax);}.bo{clip-path:url(#ay);}.bp{fill:#045e59;}.bq{clip-path:url(#az);}.br{clip-path:url(#ba);}.bs{clip-path:url(#bb);}.bt{clip-path:url(#bc);}.bu{clip-path:url(#bd);}.bv{clip-path:url(#be);}.bw{clip-path:url(#bf);}.bx{clip-path:url(#bg);}.by{clip-path:url(#bh);}.bz{clip-path:url(#bi);}.ca{clip-path:url(#bj);}.cb{clip-path:url(#bk);}.cc{clip-path:url(#bl);}.cd{clip-path:url(#bm);}.ce{clip-path:url(#bn);}.cf{clip-path:url(#bo);}.cg{clip-path:url(#bp);}.ch{clip-path:url(#bq);}</style><clipPath id="a"><path class="a" d="M123,274.325,92,246.9h.491A18.7,18.7,0,0,0,109.63,228.87L140.7,256.3a18.706,18.706,0,0,1-17.139,18.028Z" transform="translate(-92 -228.87)"/></clipPath><clipPath id="b"><path class="a" d="M122.488,264.037,91.39,236.61h1.356l31.075,27.427A12.673,12.673,0,0,0,122.488,264.037Z" transform="translate(-91.39 -236.61)"/></clipPath><clipPath id="c"><path class="a" d="M118.008,262.337,86.91,234.91a16.064,16.064,0,0,0,10.475,3.975l31.1,27.427a16.157,16.157,0,0,1-10.475-3.975Z" transform="translate(-86.91 -234.91)"/></clipPath><clipPath id="d"><path class="a" d="M97.32,223l31.1,27.427a17.115,17.115,0,0,1,5.1,12.322,12.665,12.665,0,0,1,0,1.333L102.441,236.7v-1.333A17.069,17.069,0,0,0,97.32,223Z" transform="translate(-97.32 -223)"/></clipPath><clipPath id="e"><path class="a" d="M116.444,221.941l31.1,27.4a33.764,33.764,0,0,0-24.154-8.254l-31.1-27.427a33.6,33.6,0,0,1,24.154,8.277Z" transform="translate(-92.29 -213.604)"/></clipPath><clipPath id="f"><path class="a" d="M119.4,282.853,88.3,255.426A34.839,34.839,0,0,1,76.61,229.94l31.075,27.427A34.862,34.862,0,0,0,119.4,282.853Z" transform="translate(-76.61 -229.94)"/></clipPath><clipPath id="g"><path class="a" d="M107.695,279.166,76.62,251.739a39.282,39.282,0,0,1,35.961-38.089h.7l31.1,27.427h-.725a39.282,39.282,0,0,0-35.961,38.089Z" transform="translate(-76.62 -213.65)"/></clipPath><clipPath id="h"><path class="a" d="M30.76,233.11h0l31.1,27.4h0Z" transform="translate(-30.76 -233.11)"/></clipPath><clipPath id="i"><path class="a" d="M30.76,233.11h0l31.1,27.427h0Z" transform="translate(-30.76 -233.11)"/></clipPath><clipPath id="j"><path class="a" d="M46.8,280.019l-31.1-27.4A19.1,19.1,0,0,0,32.605,233.91l31.075,27.4A19.08,19.08,0,0,1,46.8,280.019Z" transform="translate(-15.7 -233.91)"/></clipPath><clipPath id="k"><path class="a" d="M46.218,269.31,15.12,242h1.286l31.168,27.193A11.941,11.941,0,0,1,46.218,269.31Z" transform="translate(-15.12 -242)"/></clipPath><clipPath id="l"><path class="a" d="M41.368,267.684l-31.1-27.4A16.087,16.087,0,0,0,21.61,244.3l31.1,27.427a15.993,15.993,0,0,1-11.34-4.045Z" transform="translate(-10.27 -240.28)"/></clipPath><clipPath id="m"><path class="a" d="M20.6,228.47,51.7,255.9a16.087,16.087,0,0,1,5.354,12.65l-31.075-27.4A16.134,16.134,0,0,0,20.6,228.47Z" transform="translate(-20.6 -228.47)"/></clipPath><clipPath id="n"><path class="a" d="M40.152,227.008l31.075,27.474a33.506,33.506,0,0,0-24.832-8.207L15.32,218.8a33.67,33.67,0,0,1,24.832,8.207Z" transform="translate(-15.32 -218.694)"/></clipPath><clipPath id="o"><path class="a" d="M42.766,288.237,11.691,260.81A35.073,35.073,0,0,1,0,235.3l31.1,27.357A34.933,34.933,0,0,0,42.766,288.237Z" transform="translate(0 -235.3)"/></clipPath><clipPath id="p"><path class="a" d="M31.1,284.817,0,257.461A39.165,39.165,0,0,1,35.821,218.74L66.9,246.167a39.165,39.165,0,0,0-35.8,38.65Z" transform="translate(0 -218.74)"/></clipPath><clipPath id="q"><path class="a" d="M199.725,258.637,168.65,231.21h.795l31.075,27.427Z" transform="translate(-168.65 -231.21)"/></clipPath><clipPath id="r"><path class="a" d="M200.051,270.527,169,243.1c9.587-.655,17.022-9.353,16.812-20.81l31.075,27.38C217.1,261.1,209.661,269.872,200.051,270.527Z" transform="translate(-169 -222.29)"/></clipPath><clipPath id="s"><path class="a" d="M174.07,217.82l31.1,27.427a15.69,15.69,0,0,1,4.934,10.428l-31.1-27.4A15.642,15.642,0,0,0,174.07,217.82Z" transform="translate(-174.07 -217.82)"/></clipPath><clipPath id="t"><path class="a" d="M194.608,257.057l-31.1-27.427a15.339,15.339,0,0,0,10.779,3.788h1.239L206.6,260.845h-1.239a15.222,15.222,0,0,1-10.756-3.788Z" transform="translate(-163.51 -229.63)"/></clipPath><clipPath id="u"><path class="a" d="M193.488,216.609l31.075,27.427a33.6,33.6,0,0,0-24.785-8.23l-31.1-27.4a33.553,33.553,0,0,1,24.808,8.207Z" transform="translate(-168.68 -208.294)"/></clipPath><clipPath id="v"><path class="a" d="M199.185,235.807,168.11,208.38h1.333l31.145,27.31h-.3Z" transform="translate(-168.11 -208.38)"/></clipPath><clipPath id="w"><path class="a" d="M195.918,299.443l-31.1-27.427a34.044,34.044,0,0,1-11.387-24.762,38.51,38.51,0,0,1,34.325-38.884L218.832,235.8a38.487,38.487,0,0,0-34.3,38.884A34.044,34.044,0,0,0,195.918,299.443Z" transform="translate(-153.428 -208.37)"/></clipPath><clipPath id="x"><path class="a" d="M190.973,225.968,159.9,198.541c-1.941-1.707-3.858-3.437-5.729-5.191l31.075,27.427C187.139,222.531,189.056,224.261,190.973,225.968Z" transform="translate(-154.17 -193.35)"/></clipPath><clipPath id="y"><path class="a" d="M172.828,159.129,203.9,186.556c-4.115-3.624-8.675-7.015-13.445-10.5l-31.1-27.427C164.13,152.067,168.713,155.5,172.828,159.129Z" transform="translate(-159.36 -148.63)"/></clipPath><clipPath id="z"><path class="a" d="M209.695,267.574l-31.1-27.4c0-17.139-1.567-32.735.257-47.98,2.338-19.968-15.783-24.434-24.364-38.861l31.1,27.4c8.558,14.45,26.749,18.893,24.364,38.884C208.128,234.956,209.648,250.459,209.695,267.574Z" transform="translate(-154.49 -153.33)"/></clipPath><clipPath id="aa"><path class="a" d="M163.608,193.83l-31.1-27.4c9.937-.7,12.322-9.516,16.367-17.607l31.1,27.427C175.93,184.314,173.522,193.152,163.608,193.83Z" transform="translate(-132.51 -148.82)"/></clipPath><clipPath id="ab"><path class="a" d="M161.785,183.7,130.71,156.27a24.812,24.812,0,0,0,4.279.164l31.1,27.4a22.82,22.82,0,0,1-4.3-.14Z" transform="translate(-130.71 -156.27)"/></clipPath><clipPath id="ac"><path class="a" d="M169.888,168.027,138.79,140.6H145.1l31.075,27.427C174.354,168.05,172.343,168.05,169.888,168.027Z" transform="translate(-138.79 -140.6)"/></clipPath><clipPath id="ad"><path class="a" d="M83.645,193.254,52.57,165.85A123.193,123.193,0,0,0,62.9,174.034c23.686,16.788,53.779,23.99,83.146,21.956C172.964,194.1,199.1,184.3,218.7,167.113l31.1,27.427c-19.594,17.279-45.735,26.983-72.671,28.853-29.251,2.058-59.437-5.167-83.146-21.956a117.667,117.667,0,0,1-10.335-8.184Z" transform="translate(-52.57 -165.85)"/></clipPath><clipPath id="ae"><path class="a" d="M143.909,224.348l-31.075-27.427c-2.2-1.941-3.788-5.308-4.419-10.919-3.952-34.909-1.894-37.926,16.367-44.192l31.075,27.427c-18.144,6.266-20.179,9.353-16.227,44.192C140.1,219.041,141.711,222.408,143.909,224.348Z" transform="translate(-106.729 -141.81)"/></clipPath><clipPath id="af"><path class="a" d="M131,76.06l31.1,27.427c34.371,30.4,50.575,80.2,38.51,129.934-4.092,16.788-5.4,20.272-14.029,20.88L155.5,226.874c8.628-.608,9.937-4.092,14.029-20.88C181.622,156.26,165.418,106.316,131,76.06Z" transform="translate(-131 -76.06)"/></clipPath><clipPath id="ag"><path class="a" d="M165.232,129.429l31.075,27.427a2.9,2.9,0,0,0-.514-.421c-4.372-3.18-11.083-3.39-18.215-2.9-2.338.164-4.676.4-6.874.631s-4.489.421-6.64.585l-2.058.117a14.561,14.561,0,0,0-2.525.14c-9.984.7-10.241,3.437-14.029,35.354L114.4,162.935c3.741-31.916,4.022-34.652,14.029-35.354l2.5-.14h2.058c2.151-.164,4.4-.374,6.64-.585s4.676-.468,6.9-.631c7.015-.491,13.819-.281,18.191,2.9A4.239,4.239,0,0,1,165.232,129.429Z" transform="translate(-114.4 -126.024)"/></clipPath><clipPath id="ah"><path class="a" d="M110.42,114.31l31.1,27.334c4,3.531,7.412,10.124,12.252,21.044L122.7,135.26C117.855,124.434,114.418,117.841,110.42,114.31Z" transform="translate(-110.42 -114.31)"/></clipPath><clipPath id="ai"><path class="a" d="M120.928,161.807,89.83,134.38a22.7,22.7,0,0,0,6.781,3.414l31.028,27.4A21.653,21.653,0,0,1,120.928,161.807Z" transform="translate(-89.83 -134.38)"/></clipPath><clipPath id="aj"><path class="a" d="M125.38,114.156l31.1,27.427a56.117,56.117,0,0,0-15.97-9.516l-31.1-27.427a55.743,55.743,0,0,1,15.97,9.516Z" transform="translate(-109.41 -104.64)"/></clipPath><clipPath id="ak"><path class="a" d="M124.748,191.092l-31.1-27.4c11.551-17.607-.561-32.735-1.66-48.658l31.1,27.427C124.234,158.474,136.439,173.415,124.748,191.092Z" transform="translate(-91.99 -115.03)"/></clipPath><clipPath id="al"><path class="a" d="M131.292,205.4l-31.075-27.427a32.731,32.731,0,0,1-3.484-3.671c-12.3-14.731-20.81-30.022-13.281-51.207l31.1,27.427c-7.529,21.184.982,36.476,13.281,51.207a32.733,32.733,0,0,0,3.461,3.671Z" transform="translate(-80.617 -123.1)"/></clipPath><clipPath id="am"><path class="a" d="M41.771,230.509,10.72,203.082a14.03,14.03,0,0,0,1.847-4.162l31.075,27.427C43.642,227.54,42.613,228.779,41.771,230.509Z" transform="translate(-10.72 -198.92)"/></clipPath><clipPath id="an"><path class="a" d="M122.915,148.557,91.84,121.13c16.367-1.239,26.842-10.054,32.735-27.38l31.1,27.427C149.781,138.5,139.259,147.318,122.915,148.557Z" transform="translate(-91.84 -93.75)"/></clipPath><clipPath id="ao"><path class="a" d="M112.928,161.039l-31.1-27.427a96.708,96.708,0,0,0,2.993-18.331l31.1,27.4a98.6,98.6,0,0,1-2.993,18.355Z" transform="translate(-81.83 -115.28)"/></clipPath><clipPath id="ap"><path class="a" d="M168.973,114.653l-31.1-27.427c0-11.317-.468-22.984.164-34.675l31.1,27.427C168.506,91.645,168.927,103.312,168.973,114.653Z" transform="translate(-137.709 -52.55)"/></clipPath><clipPath id="aq"><path class="a" d="M171.388,77.948l-31.1-27.427A19.617,19.617,0,0,1,146.6,47.06l31.1,27.427A19.383,19.383,0,0,0,171.388,77.948Z" transform="translate(-140.29 -47.06)"/></clipPath><clipPath id="ar"><path class="a" d="M168.948,85.33,137.85,57.9a19.571,19.571,0,0,1,5.705-9.353l31.1,27.427A19.407,19.407,0,0,0,168.948,85.33Z" transform="translate(-137.85 -48.55)"/></clipPath><clipPath id="as"><path class="a" d="M174.075,100.006,143,72.579c9.587-4.676,21.932-7.015,28.058-14.473,5.612-7.015,4.466-19.243,6.453-30.116L208.47,55.417c-2.011,10.873-.865,23.172-6.453,30.116C196.007,92.992,183.661,95.377,174.075,100.006Z" transform="translate(-143 -27.99)"/></clipPath><clipPath id="at"><path class="a" d="M54.249,252.252l-31.1-27.427c-5-4.419-11.691-11.551-21.511-21.535l31.1,27.38C42.605,240.7,49.246,247.833,54.249,252.252Z" transform="translate(-1.64 -203.29)"/></clipPath><clipPath id="au"><path class="a" d="M130.4,110.5,99.33,83c3.227,2.829,9.353,2.9,15.643,4.676l31.1,27.427C139.734,113.4,133.631,113.4,130.4,110.5Z" transform="translate(-99.33 -83)"/></clipPath><clipPath id="av"><path class="a" d="M113.075,130.067,82,102.64c5.846,5.144,13.281,7.272,22.751,6.617h.257l31.075,27.427h-.3C126.426,137.339,118.92,135.211,113.075,130.067Z" transform="translate(-82 -102.64)"/></clipPath><clipPath id="aw"><path class="a" d="M42.705,250.823,11.63,223.4a401.313,401.313,0,0,0-.21-42.766l31.075,27.427a389.335,389.335,0,0,1,.21,42.766Z" transform="translate(-11.42 -180.63)"/></clipPath><clipPath id="ax"><path class="a" d="M101.19,78l31.1,27.427a45.478,45.478,0,0,1,11.294,16.531l-31.145-27.45A45.2,45.2,0,0,0,101.19,78Z" transform="translate(-101.19 -78)"/></clipPath><clipPath id="ay"><path class="a" d="M98.151,268.155,67.007,240.728a14.684,14.684,0,0,1-5.121-8.675c-.772-28.97-1.005-57.987-.14-87.051.514-18.261,12.883-29.6,29.157-37.972L122,134.457c-16.367,8.371-28.643,19.688-29.157,37.949-.889,29.087-.655,58.1,0,87.074A14.871,14.871,0,0,0,98.151,268.155Z" transform="translate(-61.194 -107.03)"/></clipPath><clipPath id="az"><path class="a" d="M49.348,200.066l-31.1-27.427c4.279-3.741,6.711-9.61,10.686-15.549L60.01,184.517C56.059,190.433,53.627,196.325,49.348,200.066Z" transform="translate(-18.25 -157.09)"/></clipPath><clipPath id="ba"><path class="a" d="M42.719,230.659,11.644,203.232a42.906,42.906,0,0,1,15.97-39.492l31.1,27.427A42.976,42.976,0,0,0,42.719,230.659Z" transform="translate(-11.252 -163.74)"/></clipPath><clipPath id="bb"><path class="a" d="M125.523,85.475l31.1,27.427c-5.1-4.513-9.961-6.383-14.777-6.056-6.056.421-12.018,4.349-18.285,11.013-3.227,3.414-8.955,4.466-14.66,7.132l-31.1-27.5c5.705-2.666,11.457-3.694,14.66-7.015,6.266-6.664,12.252-10.592,18.285-11.013C115.679,79.022,120.355,80.916,125.523,85.475Z" transform="translate(-77.8 -79.403)"/></clipPath><clipPath id="bc"><path class="a" d="M196.836,90.453l31.1,27.4A142.77,142.77,0,0,0,122.715,83.065L91.57,55.661A142.63,142.63,0,0,1,196.836,90.453Z" transform="translate(-91.57 -55.205)"/></clipPath><clipPath id="bd"><path class="a" d="M159.135,79.631l31.075,27.427c-.842-.748-1.754-1.5-2.666-2.338A50.271,50.271,0,0,0,153.15,94.666a56.771,56.771,0,0,0-33.6,14.263c-22.61,19.781-25.72,46.764-7.973,79.078l-31.145-27.5c-17.7-32.267-14.637-59.3,7.973-79.078A56.912,56.912,0,0,1,122,67.168,50.224,50.224,0,0,1,156.447,77.34C157.382,78.135,158.27,78.883,159.135,79.631Z" transform="translate(-69.019 -67.014)"/></clipPath><clipPath id="be"><path class="a" d="M105.565,354.713l-31.1-27.427c-29.3-25.837-47.629-63.973-47.816-107.674C26.3,134.922,94.271,61.479,178.447,55.4l31.1,27.427c-84.175,6.009-152.146,79.5-151.8,164.212A142.63,142.63,0,0,0,105.565,354.713Z" transform="translate(-26.649 -55.4)"/></clipPath><clipPath id="bf"><path class="a" d="M70.521,105.58,39.469,78.153A17.186,17.186,0,0,1,38.16,71.7l31.1,27.427A17.162,17.162,0,0,0,70.521,105.58Z" transform="translate(-38.16 -71.7)"/></clipPath><clipPath id="bg"><path class="a" d="M35.83,62l31.1,27.427c5.448,4.817,7.693,11.831,5.448,22.8L41.278,84.68C43.523,73.691,41.3,66.676,35.83,62Z" transform="translate(-35.83 -62)"/></clipPath><clipPath id="bh"><path class="a" d="M59.895,77.357,28.82,50c4.676,4.045,11.27,6.43,19.5,7.552a26.492,26.492,0,0,1,14.24,5.682l31.1,27.4a26.679,26.679,0,0,0-14.24-5.658C71.188,83.81,64.5,81.425,59.895,77.357Z" transform="translate(-28.82 -50)"/></clipPath><clipPath id="bi"><path class="a" d="M53.678,64.572,22.58,37.145a59.626,59.626,0,0,1,6.781,0l31.1,27.427A54.662,54.662,0,0,0,53.678,64.572Z" transform="translate(-22.58 -37.049)"/></clipPath><clipPath id="bj"><path class="a" d="M52.685,106.416l-31.1-27.427c-4.536-4-2.338-9.914-2.759-25-.14-5.144,0-10.288,0-16.2L49.856,65.217v16.2C50.324,96.5,48.149,102.418,52.685,106.416Z" transform="translate(-18.657 -37.79)"/></clipPath><clipPath id="bk"><path class="a" d="M49.8,66.154,18.7,38.727c3.741-.678,6.407-1.356,9.072-1.637l31.1,27.427C56.2,64.8,53.539,65.452,49.8,66.154Z" transform="translate(-18.7 -37.09)"/></clipPath><clipPath id="bl"><path class="a" d="M178.506,3.017,209.58,30.4c-2.9-2.549-7.576-3.32-14.029-2.876L164.5.118C170.907-.326,175.583.445,178.506,3.017Z" transform="translate(-164.5 0.001)"/></clipPath><clipPath id="bm"><path class="a" d="M185.113,79.1,154.038,51.674a9.657,9.657,0,0,1-3.367-5C143.47,8.955,148.59,3.18,186,.07h.725L217.8,27.5h-.7c-37.411,3.11-42.462,8.885-35.354,46.577a9.8,9.8,0,0,0,3.367,5.027Z" transform="translate(-147.891 -0.07)"/></clipPath><clipPath id="bn"><path class="a" d="M46.139,12.1,77.354,39.53c-3.437-3.04-10.218-2.549-23.592-1.637L22.57,10.489C35.921,9.554,42.7,9.063,46.139,12.1Z" transform="translate(-22.57 -9.774)"/></clipPath><clipPath id="bo"><path class="a" d="M45.258,90.871,14.183,63.444C9.9,59.657,11.494,49.415,11.12,25.051c0-8.651,3.6-13.328,12.112-14.029h.538l4.676-.281c3.133-.234,6.266-.491,9.353-.7l31.168,27.5c-3.133.234-6.266.491-9.353.7l-4.676.3H54.33c-8.511.585-12.252,5.261-12.112,14.029C42.592,76.912,40.979,87.107,45.258,90.871Z" transform="translate(-11.12 -10.04)"/></clipPath><clipPath id="bp"><path class="a" d="M113.405,9.326l31.1,27.427c-4.419-3.9-11.457-5.1-21.815-4.372L91.59,4.954C101.9,4.229,108.916,5.445,113.405,9.326Z" transform="translate(-91.59 -4.755)"/></clipPath><clipPath id="bq"><path class="a" d="M114.6,85.905,83.5,58.478c-3.39-2.993-3.414-9.493-3.484-22.587V20.3c0-7.973,3.507-12.135,11.691-13.491,5.775-.982,10.9-1.66,15.362-1.964l31.1,27.427c-4.489.3-9.587.982-15.362,1.941-8.207,1.38-11.691,5.542-11.691,13.491V63.318C111.165,76.412,111.188,82.912,114.6,85.905Z" transform="translate(-80.02 -4.84)"/></clipPath></defs><g transform="translate(0)"><g transform="translate(0 0)"><g transform="translate(179.129 499.451)"><g transform="translate(35.985 35.694)"><g class="b"><g transform="translate(0 -0.023)"><path class="c" d="M123,264.007,92,236.58h.631l31.1,27.427h-.655" transform="translate(-92 -218.529)"/><path class="d" d="M123.338,264.278l-31.1-27.427a20.072,20.072,0,0,0,2.923-.491l31.1,27.427a20.63,20.63,0,0,1-2.923.491" transform="translate(-91.679 -218.823)"/><path class="e" d="M124.588,264.215l-31.1-27.427a15.737,15.737,0,0,0,2.338-.748l31.1,27.427a15.731,15.731,0,0,1-2.338.748" transform="translate(-90.006 -219.252)"/><path class="f" d="M125.578,264.083l-31.1-27.521a16.37,16.37,0,0,0,2.034-.982l31.1,27.427a16.367,16.367,0,0,1-2.034.982" transform="translate(-88.681 -219.867)"/><path class="g" d="M126.448,263.743l-31.1-27.427a16.817,16.817,0,0,0,1.941-1.216l31.075,27.427a17.754,17.754,0,0,1-1.917,1.216" transform="translate(-87.517 -220.51)"/><path class="h" d="M127.255,263.424,96.18,236a24.044,24.044,0,0,0,1.894-1.567l31.075,27.427a17.758,17.758,0,0,1-1.894,1.567" transform="translate(-86.406 -221.406)"/><path class="i" d="M128.051,263.115,97,235.688a17.587,17.587,0,0,0,1.964-2.2l31.1,27.427a17.746,17.746,0,0,1-1.987,2.2" transform="translate(-85.309 -222.664)"/><path class="j" d="M128.928,267.113l-31.1-27.427a18.378,18.378,0,0,0,3.928-10.826l31.075,27.427a18.355,18.355,0,0,1-3.9,10.826" transform="translate(-84.198 -228.86)"/></g></g></g><g transform="translate(34.559 53.791)"><g class="k"><path class="c" d="M122.488,264.037,91.39,236.61h1.356l31.075,27.427h-1.333" transform="translate(-91.39 -236.61)"/></g></g><g transform="translate(24.083 49.817)"><g class="l"><path class="d" d="M118.008,262.337,86.91,234.91c.4.351.818.678,1.239.982l31.1,27.427c-.421-.3-.842-.631-1.239-.982" transform="translate(-86.91 -234.91)"/><path class="c" d="M118.538,262.757,87.44,235.33a16.134,16.134,0,0,0,9.353,2.993l31.1,27.427a16.134,16.134,0,0,1-9.353-2.993" transform="translate(-86.201 -234.348)"/></g></g><g transform="translate(48.424 21.969)"><g class="m"><path class="j" d="M133.515,264.129,102.441,236.7v-1.333A17.069,17.069,0,0,0,97.32,223l31.1,27.427a17.115,17.115,0,0,1,5.1,12.322,12.665,12.665,0,0,1,0,1.333" transform="translate(-97.32 -223)"/></g></g><g transform="translate(36.663)"><g class="n"><g transform="translate(0 0.004)"><path class="c" d="M123.388,241.089l-31.1-27.427a33.88,33.88,0,0,1,21.558,6.2l31.1,27.4a33.881,33.881,0,0,0-21.558-6.2" transform="translate(-92.29 -213.606)"/><path class="d" d="M132.608,243.7l-31.1-27.427a28.051,28.051,0,0,1,2.6,2.081l31.1,27.4c-.842-.725-1.707-1.4-2.6-2.058" transform="translate(-79.952 -210.041)"/></g></g></g><g transform="translate(0 38.196)"><g class="o"><path class="j" d="M119.4,282.853,88.3,255.426A34.839,34.839,0,0,1,76.61,229.94l31.075,27.427a34.863,34.863,0,0,0,11.691,25.486" transform="translate(-76.61 -229.94)"/></g></g><g transform="translate(0.023 0.106)"><g class="p"><g transform="translate(0 0.023)"><path class="j" d="M107.695,270.535,76.62,243.108A38.6,38.6,0,0,1,84.827,220.1L115.9,247.527a38.6,38.6,0,0,0-8.207,23.008" transform="translate(-76.62 -205.042)"/><path class="i" d="M111.2,250.2,80.13,222.776a40.661,40.661,0,0,1,4.162-4.676l31.1,27.427A38.934,38.934,0,0,0,111.2,250.2" transform="translate(-71.923 -207.718)"/><path class="h" d="M113.008,247.454l-31.1-27.427a38.112,38.112,0,0,1,3.975-3.3l31.075,27.427a37.86,37.86,0,0,0-3.952,3.3" transform="translate(-69.541 -209.552)"/><path class="g" d="M114.685,245.616,83.61,218.189a37.675,37.675,0,0,1,4.022-2.549l31.1,27.4a38.184,38.184,0,0,0-4.045,2.572" transform="translate(-67.266 -211.01)"/><path class="f" d="M116.428,244.221l-31.1-27.4a40.012,40.012,0,0,1,4.279-2.058l31.1,27.427a44.874,44.874,0,0,0-4.279,2.034" transform="translate(-64.964 -212.188)"/><path class="e" d="M118.258,243.084l-31.1-27.427A37.712,37.712,0,0,1,92,214.09l31.1,27.427a37.721,37.721,0,0,0-4.84,1.567" transform="translate(-62.515 -213.085)"/><path class="d" d="M120.328,242.092l-31.1-27.427a35.636,35.636,0,0,1,6.126-1.005l31.1,27.427a35.633,35.633,0,0,0-6.126,1.005" transform="translate(-59.745 -213.66)"/><path class="c" d="M122.948,241.087,91.85,213.66H92.9L124,241.087h-1.029" transform="translate(-56.239 -213.66)"/></g></g></g><path class="q" d="M126.573,225.4a33.389,33.389,0,0,1,35.447,33.015,40.03,40.03,0,0,1-35.845,39.165A34.465,34.465,0,0,1,89.91,263.532a39.282,39.282,0,0,1,35.938-38.089Zm16.858,35.611a12.658,12.658,0,0,0,0-1.333c-.585-10.686-6.734-16.367-17.186-15.853h-.374c-10.195.725-16.367,7.015-17.233,17.747a15.97,15.97,0,0,0,15.83,17.536h1.824a18.706,18.706,0,0,0,17.139-18.027" transform="translate(-58.812 -197.91)"/></g><g transform="translate(207.047 445.779)"><path class="r" d="M119.765,261.71l-31.1-27.427L88.55,191.12l31.1,27.427Z" transform="translate(-88.55 -190.021)"/><path class="s" d="M119.648,219.176l-31.1-27.427,16.04-1.1,31.075,27.4Z" transform="translate(-88.55 -190.65)"/><path class="q" d="M117.867,202.37l.117,43.163-16.017,1.122-.117-43.163Z" transform="translate(-70.752 -174.966)"/></g><g transform="translate(0 511.352)"><g transform="translate(71.923 33.707)"><g class="t"><g transform="translate(0.023 -0.023)"><path class="j" d="M61.845,260.55,30.77,233.123V233.1l31.075,27.427v.023" transform="translate(-30.77 -233.1)"/></g></g></g><g transform="translate(71.923 33.707)"><g class="u"><g transform="translate(0.023 -0.023)"><path class="j" d="M61.845,260.527,30.77,233.1h0l31.075,27.427h0" transform="translate(-30.77 -233.1)"/></g></g></g><g transform="translate(36.71 35.577)"><g class="v"><g transform="translate(0 -0.047)"><path class="d" d="M46.8,269.581l-31.1-27.4a17.893,17.893,0,0,0,2.572-.468l31.1,27.427a15.988,15.988,0,0,1-2.572.444" transform="translate(-15.7 -223.425)"/><path class="e" d="M47.868,269.579l-31.1-27.427a16.365,16.365,0,0,0,2.338-.772l31.075,27.427a19.548,19.548,0,0,1-2.338.772" transform="translate(-14.268 -223.867)"/><path class="f" d="M48.855,269.369,17.78,241.942a18.7,18.7,0,0,0,2.081-.982l31.168,27.427a15.432,15.432,0,0,1-2.081.982" transform="translate(-12.917 -224.429)"/><path class="g" d="M49.838,269.043,18.67,241.709a21.054,21.054,0,0,0,1.941-1.239l31.1,27.427a21.333,21.333,0,0,1-1.964,1.239" transform="translate(-11.726 -225.085)"/><path class="h" d="M50.6,268.767,19.5,241.34a21.038,21.038,0,0,0,1.917-1.59l31.1,27.427a21.049,21.049,0,0,1-1.917,1.59" transform="translate(-10.615 -226.048)"/><path class="i" d="M51.418,268.448l-31.1-27.427a18.148,18.148,0,0,0,2.011-2.221l31.1,27.427a20.064,20.064,0,0,1-2.011,2.221" transform="translate(-9.518 -227.319)"/><path class="j" d="M52.278,272.8l-31.1-27.427A18.565,18.565,0,0,0,25.2,233.89l31.075,27.4a18.706,18.706,0,0,1-4,11.5" transform="translate(-8.367 -233.89)"/></g></g></g><g transform="translate(35.354 54.493)"><g class="w"><g transform="translate(0 -0.14)"><path class="c" d="M46.218,269.31,15.12,242h.561l31.1,27.4h-.561" transform="translate(-15.12 -241.86)"/><path class="d" d="M46.458,269.344l-31.1-27.4h.725l31.168,27.334a3.809,3.809,0,0,1-.725,0" transform="translate(-14.799 -241.94)"/></g></g></g><g transform="translate(24.013 50.472)"><g class="x"><path class="d" d="M41.368,267.684l-31.1-27.4c.4.327.795.655,1.239.959l31.075,27.38c-.421-.3-.818-.631-1.216-.982" transform="translate(-10.27 -240.28)"/><path class="c" d="M41.875,268.1,10.8,240.67a15.994,15.994,0,0,0,10.1,3.11L52,271.207a16.367,16.367,0,0,1-10.124-2.993" transform="translate(-9.561 -239.758)"/></g></g><g transform="translate(48.167 22.858)"><g class="y"><g transform="translate(0 0)"><path class="j" d="M57.052,268.547l-31.075-27.4A16.134,16.134,0,0,0,20.6,228.47L51.7,255.9a16.087,16.087,0,0,1,5.354,12.65" transform="translate(-20.6 -228.47)"/></g></g></g><g transform="translate(35.821)"><g class="z"><g transform="translate(0 0.003)"><path class="c" d="M46.395,246.226,15.32,218.8a33.811,33.811,0,0,1,22.236,6.149l31.1,27.4a33.764,33.764,0,0,0-22.26-6.126" transform="translate(-15.32 -218.696)"/><path class="d" d="M55.928,248.774l-31.1-27.4a30.405,30.405,0,0,1,2.6,2.058L58.5,250.9a31.261,31.261,0,0,0-2.572-2.081" transform="translate(-2.594 -215.117)"/></g></g></g><g transform="translate(0 38.827)"><g class="aa"><path class="j" d="M42.766,288.237,11.691,260.81A35.073,35.073,0,0,1,0,235.3l31.1,27.357a34.932,34.932,0,0,0,11.691,25.51" transform="translate(0 -235.3)"/></g></g><g transform="translate(0 0.107)"><g class="ab"><g transform="translate(0 0)"><path class="j" d="M31.1,276.213,0,248.856A38.44,38.44,0,0,1,8.207,225.17L39.282,252.6A38.37,38.37,0,0,0,31.1,276.213" transform="translate(0 -210.135)"/><path class="i" d="M34.585,255.273,3.51,227.846a40.661,40.661,0,0,1,4.162-4.676L38.747,250.6a43.028,43.028,0,0,0-4.162,4.676" transform="translate(4.697 -212.812)"/><path class="h" d="M36.365,252.511,5.29,225.084a40.452,40.452,0,0,1,4-3.273l31.1,27.427a40.755,40.755,0,0,0-3.952,3.273" transform="translate(7.079 -214.632)"/><path class="g" d="M38.028,250.7,7,223.269a44.874,44.874,0,0,1,4.022-2.549l31.051,27.427a37.667,37.667,0,0,0-4.022,2.549" transform="translate(9.367 -216.09)"/><path class="f" d="M39.811,249.311,8.69,221.884a35.813,35.813,0,0,1,4.279-2.034l31.075,27.427a37.422,37.422,0,0,0-4.256,2.034" transform="translate(11.629 -217.255)"/><path class="e" d="M41.595,248.174,10.52,220.747a34.37,34.37,0,0,1,4.84-1.567l31.075,27.4a37.817,37.817,0,0,0-4.84,1.59" transform="translate(14.078 -218.151)"/><path class="d" d="M43.665,247.172l-31.075-27.4a35.646,35.646,0,0,1,6.126-1.029l31.1,27.427a37.906,37.906,0,0,0-6.149,1.005" transform="translate(16.848 -218.74)"/><path class="c" d="M46.308,246.167,15.21,218.74h.257l31.075,27.427h-.234" transform="translate(20.354 -218.74)"/></g></g></g><path class="q" d="M49.1,230.539a33.3,33.3,0,0,1,36.125,33.576,39.983,39.983,0,0,1-35.7,39.188A34.442,34.442,0,0,1,13.3,269.189a39.165,39.165,0,0,1,35.8-38.65Zm17.724,35.4a15.83,15.83,0,0,0-16.6-16.578H48.7c-10.4,1.52-16.367,7.88-16.812,18.706a16.017,16.017,0,0,0,16.765,16.718,11.942,11.942,0,0,0,1.286-.117,19.08,19.08,0,0,0,16.882-18.706" transform="translate(17.798 -203.005)"/></g><g transform="translate(358.745 487.033)"><g transform="translate(35.592 53.583)"><g class="ac"><path class="c" d="M199.725,258.637,168.65,231.21h.795l31.075,27.427h-.795" transform="translate(-168.65 -231.21)"/></g></g><g transform="translate(36.411 32.727)"><g class="ad"><g transform="translate(0 0)"><path class="c" d="M200.051,258.617,169,231.19h.14l31.075,27.427h-.14" transform="translate(-169 -210.38)"/><path class="d" d="M200.125,258.885,169.05,231.458a15.448,15.448,0,0,0,2.759-.468l31.1,27.427a15.361,15.361,0,0,1-2.782.468" transform="translate(-168.933 -210.648)"/><path class="e" d="M201.328,258.792l-31.1-27.4a12.561,12.561,0,0,0,2.128-.678l31.1,27.427a16.106,16.106,0,0,1-2.128.678" transform="translate(-167.354 -211.022)"/><path class="f" d="M202.238,258.636l-31.1-27.427a17.516,17.516,0,0,0,1.894-.889l31.1,27.31a14.023,14.023,0,0,1-1.894.912" transform="translate(-166.136 -211.544)"/><path class="g" d="M202.981,258.286,172,230.976a20.822,20.822,0,0,0,1.777-1.146l30.958,27.427a14.021,14.021,0,0,1-1.754,1.122" transform="translate(-164.985 -212.2)"/><path class="h" d="M203.785,258.1,172.71,230.673a17.472,17.472,0,0,0,1.777-1.473l31.075,27.427a15.219,15.219,0,0,1-1.777,1.473" transform="translate(-164.035 -213.043)"/><path class="i" d="M204.545,257.845,173.47,230.418a24.083,24.083,0,0,0,1.941-2.128l31.075,27.38a16.979,16.979,0,0,1-1.941,2.151" transform="translate(-163.018 -214.261)"/><path class="j" d="M205.375,263.7,174.3,236.319a22.1,22.1,0,0,0,4.4-14.029l31.1,27.38a22.025,22.025,0,0,1-4.419,14.029" transform="translate(-161.908 -222.29)"/></g></g></g><g transform="translate(48.265 22.275)"><g class="ae"><g transform="translate(0 -0.023)"><path class="j" d="M210.1,255.665l-31.1-27.4a15.643,15.643,0,0,0-4.934-10.452l31.1,27.427a15.689,15.689,0,0,1,4.934,10.428" transform="translate(-174.07 -217.81)"/></g></g></g><g transform="translate(23.574 49.889)"><g class="af"><path class="d" d="M194.608,257.057l-31.1-27.427c.374.327.772.631,1.169.935l31.1,27.427c-.421-.3-.795-.608-1.169-.935" transform="translate(-163.51 -229.63)"/><path class="c" d="M195.121,257.5,164,230a15.385,15.385,0,0,0,9.61,2.853h.725l31.1,27.544h-.725a15.339,15.339,0,0,1-9.587-2.829" transform="translate(-162.854 -229.135)"/><path class="d" d="M199.5,258.7,168.43,231.27h.514L200.019,258.7H199.5" transform="translate(-156.926 -227.435)"/></g></g><g transform="translate(35.662)"><g class="ag"><g transform="translate(0.047 0.004)"><path class="c" d="M199.8,235.8l-31.1-27.4a33.787,33.787,0,0,1,22.213,6.126l31.075,27.427A33.764,33.764,0,0,0,199.8,235.8" transform="translate(-168.7 -208.295)"/><path class="d" d="M209.255,238.334,178.18,211c.889.655,1.754,1.333,2.6,2.081l31.075,27.427a28.05,28.05,0,0,0-2.6-2.081" transform="translate(-156.014 -204.675)"/></g></g></g><g transform="translate(34.33 0.202)"><g class="ah"><g transform="translate(0 -0.047)"><path class="d" d="M199.185,235.807,168.11,208.38h.631l31.075,27.427h-.631" transform="translate(-168.11 -208.333)"/><path class="c" d="M199.455,235.787,168.38,208.36h.7l31.145,27.357H199.5" transform="translate(-167.749 -208.36)"/></g></g></g><g transform="translate(0 0.179)"><g class="ai"><g transform="translate(-0.006 0.023)"><path class="j" d="M195.921,291.026l-31.1-27.427a34.044,34.044,0,0,1-11.387-24.762A37.622,37.622,0,0,1,161.5,214.66l31.075,27.4a37.715,37.715,0,0,0-8.043,24.2A34.044,34.044,0,0,0,195.921,291" transform="translate(-153.426 -199.976)"/><path class="i" d="M187.955,244.643l-31.075-27.4a40.778,40.778,0,0,1,4.045-4.489l31.1,27.427a38.737,38.737,0,0,0-4.068,4.466" transform="translate(-148.803 -202.532)"/><path class="h" d="M189.708,242.01l-31.1-27.427a39.5,39.5,0,0,1,3.9-3.2l31.075,27.4a43.026,43.026,0,0,0-3.881,3.227" transform="translate(-146.488 -204.365)"/><path class="g" d="M191.355,240.229l-31.075-27.4A37.535,37.535,0,0,1,164.3,210.3l30.981,27.357a42.925,42.925,0,0,0-3.928,2.5" transform="translate(-144.253 -205.811)"/><path class="f" d="M192.981,238.794,162,211.437a38.456,38.456,0,0,1,4.209-1.987l31.075,27.427a38.464,38.464,0,0,0-4.209,1.987" transform="translate(-141.951 -206.948)"/><path class="e" d="M194.835,237.76,163.76,210.333a32.736,32.736,0,0,1,4.676-1.543l31.1,27.427a34.063,34.063,0,0,0-4.676,1.543" transform="translate(-139.596 -207.831)"/><path class="d" d="M196.878,236.766l-31.1-27.427a38.466,38.466,0,0,1,5.448-.959L202.3,235.807a35.083,35.083,0,0,0-5.425.959" transform="translate(-136.893 -208.38)"/></g></g></g><path class="q" d="M202.41,220.124a33.366,33.366,0,0,1,36.1,33.343,40.521,40.521,0,0,1-34.933,38.627h-.444a33.623,33.623,0,0,1-36.382-33.015,38.487,38.487,0,0,1,34.3-38.884h1.052Zm.7,53.451c9.61-.655,17.045-9.353,16.835-20.833-.959-8.909-6.757-14.45-17.209-14.286h-.795a18.378,18.378,0,0,0-16.788,17.4,15.4,15.4,0,0,0,0,1.8,15.222,15.222,0,0,0,15.923,15.993h2.034" transform="translate(-135.603 -192.612)"/></g><g transform="translate(3.835 64.349)"><path class="aj" d="M203.478,222.529,172.38,195.1l13.047-9.142,31.1,27.427Z" transform="translate(226.844 184.504)"/><g transform="translate(356.645 387.743)"><g class="ak"><path class="j" d="M190.973,225.968,159.9,198.541c-1.941-1.707-3.858-3.437-5.729-5.191l31.075,27.427c1.894,1.754,3.811,3.484,5.729,5.191" transform="translate(-154.17 -193.35)"/></g></g><path class="al" d="M190.418,214.677l-31.1-27.427,12.813,7.529,31.1,27.4Z" transform="translate(209.367 186.23)"/><path class="h" d="M185.245,228.917l-31.075-27.4,12.042-14.263,31.1,27.427Z" transform="translate(202.475 186.23)"/><g transform="translate(368.78 283.179)"><g class="am"><g transform="translate(0 0)"><path class="d" d="M190.458,176.057l-31.1-27.427c4.676,3.437,9.353,6.874,13.468,10.5L203.9,186.556c-4.115-3.624-8.675-7.015-13.445-10.5" transform="translate(-159.36 -148.63)"/></g></g></g><path class="g" d="M185.588,187.023l-31.1-27.4,11.387-10.99,31.1,27.427Z" transform="translate(202.903 134.549)"/><g transform="translate(357.393 294.169)"><g class="an"><path class="j" d="M209.695,267.574l-31.1-27.4c0-17.139-1.567-32.735.257-47.98,2.338-19.968-15.783-24.434-24.364-38.861l31.1,27.4c8.558,14.45,26.749,18.893,24.364,38.884-1.824,15.339-.3,30.841-.257,47.956" transform="translate(-154.49 -153.33)"/></g></g><path class="q" d="M179.659,160.36c19.056,13.772,35.073,27.263,30.724,54.784-2.081,12.954-.327,26.328-.281,41.643l13.047-9.142,12.065,13a350.728,350.728,0,0,1-26.936,25.463,16.368,16.368,0,0,1-6.781,2.011,15.034,15.034,0,0,1-7.81-1.543,280.386,280.386,0,0,1-26.258-21.628L179.5,250.685l12.813,7.506c0-17.116-1.567-32.618.257-47.956C194.9,190.242,176.759,185.8,168.2,171.35Z" transform="translate(220.22 150.246)"/><g transform="translate(306 283.623)"><g class="ao"><g transform="translate(0 0)"><path class="c" d="M163.608,183.754l-31.1-27.4h.14l31.1,27.427h-.14" transform="translate(-132.51 -138.743)"/><path class="d" d="M163.668,183.995l-31.1-27.427a15.991,15.991,0,0,0,2.5-.4l31.1,27.427a15.987,15.987,0,0,1-2.5.4" transform="translate(-132.43 -138.984)"/><path class="e" d="M164.738,183.9l-31.1-27.427a12.526,12.526,0,0,0,1.66-.538l31.075,27.427a11.165,11.165,0,0,1-1.637.538" transform="translate(-130.998 -139.292)"/><path class="f" d="M165.425,183.728,134.35,156.3a14.293,14.293,0,0,0,1.356-.631l31.075,27.4a8.091,8.091,0,0,1-1.356.655" transform="translate(-130.048 -139.653)"/><path class="g" d="M166,183.542l-31.075-27.4a14.183,14.183,0,0,0,1.239-.818l31.1,27.427a8.811,8.811,0,0,1-1.263.8" transform="translate(-129.272 -140.122)"/><path class="h" d="M166.558,183.363l-31.1-27.427a11.881,11.881,0,0,0,1.309-1.076l31.1,27.4a11.7,11.7,0,0,1-1.309,1.1" transform="translate(-128.562 -140.737)"/><path class="i" d="M167.145,183.334,136,155.931a16.017,16.017,0,0,0,1.684-1.871l31.051,27.427a15.974,15.974,0,0,1-1.684,1.847" transform="translate(-127.84 -141.808)"/><path class="j" d="M167.8,188.5l-31.1-27.427a75.357,75.357,0,0,0,6.477-12.252l31.1,27.427A77.163,77.163,0,0,1,167.8,188.5" transform="translate(-126.903 -148.82)"/></g></g></g><g transform="translate(301.791 301.043)"><g class="ap"><path class="c" d="M161.785,183.7,130.71,156.27a24.812,24.812,0,0,0,4.279.164l31.1,27.4a22.82,22.82,0,0,1-4.3-.14" transform="translate(-130.71 -156.27)"/></g></g><g transform="translate(320.684 264.403)"><g class="aq"><path class="c" d="M169.888,168.027,138.79,140.6H145.1l31.075,27.427a56.047,56.047,0,0,1-6.29,0" transform="translate(-138.79 -140.6)"/></g></g><path class="r" d="M153.281,193.7l-31.1-27.427-.023-16.11,31.075,27.427Z" transform="translate(159.64 136.596)"/><path class="ar" d="M146.468,186.3l-31.1-27.4,15.9-1.847,31.1,27.427Z" transform="translate(150.553 145.817)"/><path class="r" d="M160.881,177.821l-31.075-27.427-.047-16.134,31.1,27.427Z" transform="translate(169.81 115.319)"/><path class="s" d="M153.848,169.733l-31.1-27.427,16.438-1.146,31.075,27.427Z" transform="translate(160.429 124.553)"/><g transform="translate(119.084 323.443)"><g class="as"><path class="d" d="M83.645,193.254,52.57,165.85c3.063,2.689,6.266,5.261,9.657,7.693l31.1,27.427q-5.051-3.648-9.657-7.716" transform="translate(-52.57 -165.85)"/><path class="c" d="M87.8,196.567,56.7,169.14l.678.491c23.686,16.788,53.779,23.99,83.146,21.956h1.239l31.075,27.427H171.6c-29.251,2.058-59.437-5.167-83.146-21.956l-.678-.468" transform="translate(-47.043 -161.447)"/><path class="d" d="M124.155,208.255,93.08,180.828a136.037,136.037,0,0,0,22.634-3.718l31.1,27.427a136.313,136.313,0,0,1-22.657,3.718" transform="translate(1.64 -150.782)"/><path class="e" d="M133.858,207.588l-31.1-27.427a131.855,131.855,0,0,0,16.367-5.331L150.2,202.257a130.262,130.262,0,0,1-16.367,5.331" transform="translate(14.594 -153.833)"/><path class="f" d="M140.855,205.857,109.78,178.43a118.173,118.173,0,0,0,13.234-6.29l31.1,27.427a122.8,122.8,0,0,1-13.258,6.29" transform="translate(23.988 -157.433)"/><path class="g" d="M146.538,203.689l-31.1-27.427a111.9,111.9,0,0,0,11.34-7.2l31.1,27.4a112.236,112.236,0,0,1-11.34,7.225" transform="translate(31.562 -161.554)"/><path class="h" d="M151.388,200.037l-31.1-27.4c2.689-1.964,5.308-4.045,7.786-6.243l31.1,27.427c-2.5,2.2-5.1,4.279-7.786,6.22" transform="translate(38.053 -165.127)"/></g></g><g transform="translate(245.719 267.233)"><g class="at"><g transform="translate(0.027 0)"><path class="j" d="M143.893,219.772l-31.075-27.427c-2.2-1.941-3.788-5.308-4.419-10.919-2.338-21.207-2.572-30.654,1.707-36.2l31.1,27.521c-4.3,5.542-4.115,14.988-1.707,36.2.631,5.612,2.2,8.979,4.4,10.919" transform="translate(-106.74 -137.233)"/><path class="i" d="M139.278,173.54l-31.1-27.427a16.067,16.067,0,0,1,1.356-1.473l31.075,27.427a13.067,13.067,0,0,0-1.333,1.473" transform="translate(-104.814 -138.023)"/><path class="h" d="M139.835,172.75,108.76,145.323a14.032,14.032,0,0,1,1.543-1.263l31.075,27.427q-.795.608-1.543,1.263" transform="translate(-104.038 -138.799)"/><path class="g" d="M140.495,172.263,109.42,144.836c.655-.468,1.356-.912,2.128-1.356l31.1,27.427a17.723,17.723,0,0,0-2.151,1.356" transform="translate(-103.155 -139.575)"/><path class="f" d="M141.428,172.045l-31.1-27.427a46.572,46.572,0,0,1,4.279-1.987l31.1,27.427a41.109,41.109,0,0,0-4.279,1.987" transform="translate(-101.937 -140.713)"/><path class="e" d="M143.258,171.154l-31.1-27.427c1.59-.631,3.32-1.239,5.238-1.917l31.075,27.427c-1.917.678-3.648,1.286-5.214,1.917" transform="translate(-99.488 -141.81)"/></g></g></g><g transform="translate(302.469 113.496)"><g class="au"><g transform="translate(0.14 0)"><path class="c" d="M172.565,167.987,141.49,140.56h.234l31.1,27.427h-.257" transform="translate(-117.103 10.254)"/><path class="d" d="M172.688,168.245l-31.1-27.427a19.227,19.227,0,0,0,3.157-.468l31.075,27.427a18.914,18.914,0,0,1-3.133.468" transform="translate(-116.969 9.973)"/><path class="e" d="M174.015,168.018,142.94,140.591a11.113,11.113,0,0,0,1.333-.421L175.347,167.6a11.1,11.1,0,0,1-1.333.421" transform="translate(-115.162 9.732)"/><path class="f" d="M174.585,167.851,143.51,140.424l.935-.444,31.075,27.427a8.665,8.665,0,0,1-.935.444" transform="translate(-114.399 9.478)"/><path class="g" d="M174.985,167.675l-31.075-27.38a8.845,8.845,0,0,0,.772-.514l31.1,27.427-.795.514" transform="translate(-113.864 9.21)"/><path class="h" d="M175.338,167.548l-31.1-27.427a5.049,5.049,0,0,0,.772-.631l31.1,27.427-.772.631" transform="translate(-113.423 8.822)"/><path class="i" d="M175.668,167.479l-31.1-27.427a7.316,7.316,0,0,0,.888-.982L176.533,166.5a7.017,7.017,0,0,1-.865.982" transform="translate(-112.981 8.26)"/><path class="j" d="M194.612,250.817,163.654,223.39c2.338-2.9,3.671-8.114,5.916-17.4,12.088-49.733-4.115-99.607-38.51-129.934l31.1,27.427c34.371,30.4,50.575,80.2,38.51,129.934-2.338,9.353-3.671,14.5-5.939,17.4" transform="translate(-131.06 -76.06)"/></g></g></g><g transform="translate(263.655 230.322)"><g class="av"><g transform="translate(0 -0.024)"><path class="j" d="M145.475,187.731,114.4,160.3c2.338-20.015,3.32-28.549,6.2-32.314l31.1,27.427c-2.876,3.764-3.858,12.3-6.22,32.314" transform="translate(-114.4 -123.369)"/><path class="i" d="M148.148,155.872l-31.1-27.4a8.22,8.22,0,0,1,.725-.818l31.1,27.427a6.245,6.245,0,0,0-.725.818" transform="translate(-110.854 -123.824)"/><path class="h" d="M148.458,155.375l-31.1-27.427a7.277,7.277,0,0,1,.655-.538l31.075,27.427-.631.538" transform="translate(-110.439 -124.145)"/><path class="g" d="M148.715,155.065,117.64,127.637a6.111,6.111,0,0,1,.655-.4l31.075,27.5-.655.421" transform="translate(-110.064 -124.373)"/><path class="f" d="M148.995,154.9l-31.075-27.4a4.136,4.136,0,0,1,.795-.374l31.075,27.4-.795.374" transform="translate(-109.69 -124.533)"/><path class="e" d="M149.335,154.711l-31.075-27.4a8.906,8.906,0,0,1,1.193-.4l31.1,27.427a8.258,8.258,0,0,0-1.216.374" transform="translate(-109.235 -124.814)"/><path class="d" d="M149.868,154.618l-31.1-27.427a19.567,19.567,0,0,1,3.437-.491l31.075,27.427a19.294,19.294,0,0,0-3.414.491" transform="translate(-108.552 -125.095)"/><path class="c" d="M151.315,154.207,120.24,126.78h.351l2.5-.14h3.227l31.1,27.427h-1.169l-2.058.117a14.561,14.561,0,0,0-2.525.14h-.351" transform="translate(-106.585 -125.176)"/><path class="d" d="M153.938,154.556l-31.1-27.427,5.471-.491c1.917-.187,3.835-.4,5.752-.538l31.075,27.427c-1.894.14-3.811.327-5.729.538l-5.471.491" transform="translate(-103.106 -125.898)"/><path class="c" d="M158.715,153.642,127.64,126.215h1.146c7.015-.491,13.772-.281,18.144,2.876l31.1,27.287c-4.372-3.133-11.06-3.344-18.168-2.853h-1.146" transform="translate(-96.682 -126.014)"/><path class="d" d="M166.988,154.684l-31.1-27.4h0a4.225,4.225,0,0,1,.538.421L167.5,155.128a2.9,2.9,0,0,0-.514-.421h0" transform="translate(-85.642 -124.319)"/></g></g></g><g transform="translate(254.349 202.932)"><g class="aw"><g transform="translate(0.094 -0.094)"><path class="j" d="M153.81,162.741l-31.075-27.427c-4.84-10.873-8.277-17.466-12.276-21.044l31,27.427c4,3.531,7.412,10.124,12.252,21.044" transform="translate(-110.46 -114.27)"/></g></g></g><g transform="translate(206.206 249.86)"><g class="ax"><path class="d" d="M120.928,161.807,89.83,134.38a5.467,5.467,0,0,0,.725.561l31.075,27.427a4.117,4.117,0,0,1-.7-.561" transform="translate(-89.83 -134.38)"/><path class="c" d="M121.215,162.047,90.14,134.62a26.82,26.82,0,0,0,6.056,2.853l31.028,27.4a27.614,27.614,0,0,1-6.079-2.829" transform="translate(-89.415 -134.059)"/></g></g><path class="s" d="M99.955,187.809,68.88,160.382l79.429-5.542,31.1,27.427Z" transform="translate(88.34 142.859)"/><g transform="translate(251.987 180.322)"><g class="ay" transform="translate(0 0)"><g transform="translate(0)"><path class="c" d="M140.508,132.067l-31.1-27.427a59.531,59.531,0,0,1,12.439,6.734l31.028,27.4a61.167,61.167,0,0,0-12.439-6.711" transform="translate(-109.41 -104.64)"/><path class="d" d="M145.8,134.924l-31.1-27.4a41.064,41.064,0,0,1,3.531,2.782l31.1,27.427c-1.122-.982-2.338-1.917-3.531-2.806" transform="translate(-102.331 -100.786)"/></g></g></g><path class="az" d="M50.148,234.322,19.05,206.9l13-10.545,31.1,27.427Z" transform="translate(21.658 198.408)"/><g transform="translate(211.256 204.616)"><g class="ba"><path class="j" d="M124.748,191.092l-31.1-27.4c11.551-17.607-.561-32.735-1.66-48.658l31.1,27.427c1.076,16.017,13.187,31.051,1.66,48.635" transform="translate(-91.99 -115.03)"/></g></g><g transform="translate(184.665 223.485)"><g class="bb"><path class="j" d="M131.292,205.4l-31.075-27.427a32.731,32.731,0,0,1-3.484-3.671c-12.3-14.731-20.81-30.022-13.281-51.207l31.1,27.427c-7.529,21.184.982,36.476,13.281,51.207a32.737,32.737,0,0,0,3.461,3.624" transform="translate(-80.617 -123.1)"/></g></g><g transform="translate(21.231 400.767)"><g class="bc"><path class="j" d="M41.771,230.509,10.72,203.082a14.03,14.03,0,0,0,1.847-4.162l31.075,27.427c0,1.192-1.029,2.338-1.824,4.162" transform="translate(-10.72 -198.92)"/></g></g><g transform="translate(210.905 154.859)"><g class="bd" transform="translate(0 0)"><g transform="translate(0 0.023)"><path class="c" d="M122.915,132.887,91.84,105.46h0l31.1,27.427h-.14" transform="translate(-91.84 -78.103)"/><path class="d" d="M122.988,133.479l-31.1-27.427A42.93,42.93,0,0,0,99.162,105l31.1,27.427a42.93,42.93,0,0,1-7.2,1.146" transform="translate(-91.773 -78.719)"/><path class="e" d="M126.028,133.177,95,105.843a34.3,34.3,0,0,0,4.536-1.473l31.1,27.427a35.472,35.472,0,0,1-4.536,1.473" transform="translate(-87.611 -79.562)"/><path class="f" d="M128.008,132.721l-31.1-27.427a29.174,29.174,0,0,0,3.554-1.683l31.1,27.427a32.9,32.9,0,0,1-3.554,1.683" transform="translate(-85.055 -80.579)"/><path class="g" d="M129.528,132.188l-31.1-27.427a27.735,27.735,0,0,0,3.157-2.011l31.1,27.427a31.4,31.4,0,0,1-3.157,2.011" transform="translate(-83.021 -81.73)"/><path class="h" d="M130.878,131.649l-31.1-27.427a29.016,29.016,0,0,0,3.086-2.572l31.1,27.427a29.019,29.019,0,0,1-3.086,2.572" transform="translate(-81.215 -83.202)"/><path class="i" d="M132.2,131.3l-31.1-27.427a31.236,31.236,0,0,0,3.531-3.881l31.075,27.427A33.036,33.036,0,0,1,132.2,131.3" transform="translate(-79.448 -85.423)"/><path class="j" d="M133.685,135.754l-31.075-27.4a49.686,49.686,0,0,0,7.482-14.59l31.1,27.427a49.1,49.1,0,0,1-7.506,14.59" transform="translate(-77.428 -93.76)"/></g></g></g><g transform="translate(187.5 205.2)"><g class="be"><path class="j" d="M112.928,161.039l-31.1-27.427a96.708,96.708,0,0,0,2.993-18.331l31.1,27.4a98.6,98.6,0,0,1-2.993,18.331" transform="translate(-81.83 -115.28)"/></g></g><g transform="translate(318.155 58.525)"><g class="bf"><path class="j" d="M168.973,114.653l-31.1-27.427c0-11.317-.468-22.984.164-34.675l31.1,27.427c-.631,11.691-.21,23.382-.164,34.675" transform="translate(-137.709 -52.55)"/></g></g><g transform="translate(324.191 45.688)"><g class="bg"><g transform="translate(0 0.047)"><path class="h" d="M171.388,76.368l-31.1-27.427.912-.7,31.145,27.5-.889.7" transform="translate(-140.29 -45.528)"/><path class="g" d="M171.825,76.46l-31.145-27.5a16.155,16.155,0,0,1,2.011-1.263l31.075,27.4a22.532,22.532,0,0,0-1.941,1.356" transform="translate(-139.768 -46.25)"/><path class="f" d="M172.615,75.706,141.54,48.3a18.706,18.706,0,0,1,2.174-1.052l31.1,27.474a23.56,23.56,0,0,0-2.2,1.029" transform="translate(-138.617 -46.853)"/><path class="e" d="M173.568,74.951l-31.1-27.427,1.216-.444,31.1,27.427-1.216.444" transform="translate(-137.373 -47.08)"/></g></g></g><g transform="translate(318.486 49.172)"><g class="bh"><g transform="translate(0 -0.023)"><path class="j" d="M168.948,83.992l-31.1-27.427a19.781,19.781,0,0,1,3.461-7.015l31.075,27.427a19.337,19.337,0,0,0-3.437,7.015" transform="translate(-137.85 -47.188)"/><path class="i" d="M170.4,78.345,139.33,50.918a18.378,18.378,0,0,1,2.034-2.338l31.1,27.427a20.716,20.716,0,0,0-2.058,2.338" transform="translate(-135.869 -48.486)"/><path class="h" d="M171.3,76.154,140.2,48.727l.21-.187,31.1,27.427-.21.187" transform="translate(-134.705 -48.54)"/></g></g></g><g transform="translate(330.528 1.099)"><g class="bi"><g transform="translate(0 0)"><path class="f" d="M174.075,75.625,143,48.2c1.473-.7,2.97-1.356,4.536-1.987l31.075,27.427c-1.543.631-3.063,1.286-4.513,1.987" transform="translate(-143 -3.608)"/><path class="e" d="M176,75.738,144.93,48.311c3.133-1.263,6.43-2.338,9.563-3.671l31.1,27.4c-3.157,1.286-6.43,2.338-9.587,3.694" transform="translate(-140.417 -5.709)"/><path class="f" d="M180.145,73.837,149,46.433a61.874,61.874,0,0,0,6.757-3.133L186.9,70.657a61.8,61.8,0,0,1-6.757,3.11" transform="translate(-134.971 -7.502)"/><path class="g" d="M183.008,71.808l-31.1-27.357a33.759,33.759,0,0,0,3.2-2.011l31.1,27.4a33.9,33.9,0,0,1-3.2,2.034" transform="translate(-131.077 -8.653)"/><path class="h" d="M184.378,70.914l-31.1-27.4a21.911,21.911,0,0,0,2.338-1.871l31.075,27.427a21.416,21.416,0,0,1-2.338,1.847" transform="translate(-129.243 -9.724)"/><path class="i" d="M185.325,70.218,154.25,42.791a17.42,17.42,0,0,0,1.66-1.8l.164-.21,31.1,27.427-.164.21a17.447,17.447,0,0,1-1.684,1.8" transform="translate(-127.945 -10.874)"/><path class="j" d="M186.168,85.323,155,57.9c5.425-7.015,4.3-19.15,6.29-29.906l31.121,27.427c-1.987,10.756-.889,22.914-6.29,29.906" transform="translate(-126.942 -27.99)"/></g></g></g><path class="s" d="M188.818,56.046l-31.1-27.427,15.572-1.1,31.1,27.427Z" transform="translate(207.226 -27.52)"/><path class="q" d="M213.371,39.25c0,11.855.585,23.125-.21,34.395a19.8,19.8,0,0,1-6.617,10.288,30.4,30.4,0,0,1-8.979,4.676c-27.38,12.65-27.38,12.65-29.859,42.7l-16.531,1.169c0-11.34-.468-23.008.164-34.675a17.607,17.607,0,0,1,12.018-12.837c9.587-4.676,21.932-7.015,28.058-14.473,5.588-7.015,4.443-19.243,6.453-30.116Z" transform="translate(198.245 -11.823)"/><g transform="translate(0 410.985)"><g class="bj"><path class="j" d="M54.249,252.252l-31.1-27.427c-5-4.419-11.691-11.551-21.511-21.535l31.1,27.38c9.867,9.984,16.367,17.116,21.511,21.535" transform="translate(-1.64 -203.29)"/></g></g><path class="h" d="M32.738,237.836,1.64,210.409,11.881,197.97l31.1,27.427Z" transform="translate(-1.64 200.576)"/><path class="al" d="M37.118,225.4,6.02,197.97l10.99,6.383,31.1,27.427Z" transform="translate(4.221 200.576)"/><g transform="translate(228.418 129.723)"><g class="bk" transform="translate(0 0)"><path class="d" d="M130.4,110.5,99.33,83l.585.468,31.075,27.591-.585-.444" transform="translate(-99.33 -83)"/><path class="c" d="M130.655,110.751,99.58,83.23c3.32,2.338,9.1,2.525,15.058,4.279l31.1,27.427c-5.986-1.754-11.691-1.894-15.081-4.3" transform="translate(-98.995 -82.692)"/></g></g><g transform="translate(187.898 175.645)"><g class="bl" transform="translate(0 0)"><path class="d" d="M113.075,130.067,82,102.64a22.539,22.539,0,0,0,2.058,1.637l31.1,27.427c-.725-.514-1.4-1.052-2.081-1.637" transform="translate(-82 -102.64)"/><path class="c" d="M113.978,130.767,82.88,103.34a30.584,30.584,0,0,0,20.693,4.98h.257L134.9,135.747h-.3a30.607,30.607,0,0,1-20.67-4.98" transform="translate(-80.822 -101.703)"/></g></g><g transform="translate(22.868 358.001)"><g class="bm"><path class="j" d="M42.705,250.823,11.63,223.4a401.313,401.313,0,0,0-.21-42.766l31.075,27.427a389.335,389.335,0,0,1,.21,42.766" transform="translate(-11.42 -180.63)"/></g></g><g transform="translate(232.768 118.032)"><g class="bn"><g transform="translate(0)"><path class="j" d="M143.581,121.935,112.437,94.508A45.2,45.2,0,0,0,101.19,78l31.1,27.427a45.478,45.478,0,0,1,11.294,16.531" transform="translate(-101.19 -78)"/></g></g></g><g transform="translate(139.249 185.91)"><g class="bo" transform="translate(0 0)"><g transform="translate(0 -0.07)"><path class="j" d="M98.151,258.694,67.007,231.267a14.684,14.684,0,0,1-5.121-8.675c-.772-28.97-1.005-57.987-.14-87.051A35.751,35.751,0,0,1,69.392,114.1l31.1,27.427a35.541,35.541,0,0,0-7.646,21.441c-.889,29.087-.655,58.1,0,87.074a14.871,14.871,0,0,0,5.308,8.651" transform="translate(-61.194 -97.499)"/><path class="i" d="M95.8,144.431,64.7,117a43.209,43.209,0,0,1,4.676-5.074l31.1,27.427a43.206,43.206,0,0,0-4.676,5.074" transform="translate(-56.503 -100.403)"/><path class="h" d="M97.8,142.033,66.7,114.606a56.466,56.466,0,0,1,5.705-4.676l31.1,27.427a56.476,56.476,0,0,0-5.705,4.676" transform="translate(-53.826 -103.079)"/><path class="g" d="M100.228,140.318l-31.1-27.427a78.426,78.426,0,0,1,8.254-5.191l31.192,27.4a76.2,76.2,0,0,0-8.254,5.214" transform="translate(-50.574 -106.063)"/><path class="f" d="M103.852,136.04l-31.192-27.4,2.9-1.637,31.1,27.427-2.9,1.543" transform="translate(-45.85 -107)"/></g></g></g><path class="bp" d="M53.918,184.517,22.82,157.09l16.2,13.8,31.1,27.427Z" transform="translate(26.703 145.87)"/><g transform="translate(38.837 302.96)"><g class="bq"><g transform="translate(0 0)"><path class="h" d="M49.348,191.435l-31.1-27.427.514-.468,31.1,27.427-.514.468" transform="translate(-18.25 -148.459)"/><path class="i" d="M49.568,192.4l-31.1-27.427a20.884,20.884,0,0,0,2.338-2.5l31.1,27.427a25.534,25.534,0,0,1-2.338,2.5" transform="translate(-17.956 -149.891)"/><path class="j" d="M50.528,197.1,19.43,169.67c2.759-3.531,4.887-8.043,7.926-12.58l31.075,27.427c-3.016,4.536-5.167,9.049-7.9,12.579" transform="translate(-16.671 -157.09)"/></g></g></g><path class="q" d="M64.44,168.82l16.227,13.8C44.495,205.506,58.01,238.1,55.648,271.163l13-10.545,9.937,11.5a16.366,16.366,0,0,1-2.058,3.975c-16.812,17.677-22.868,27.334-29.415,27.8s-13.538-8.184-32.174-27.03l10.241-12.439,10.99,6.383c.795-1.73,1.824-2.97,1.824-4.162a389.33,389.33,0,0,0-.21-42.766,42.976,42.976,0,0,1,15.993-39.492C58.056,180.628,60.488,174.736,64.44,168.82Z" transform="translate(16.158 161.567)"/><g transform="translate(22.475 318.509)"><g class="br"><g transform="translate(-0.019 0.023)"><path class="j" d="M42.73,226.43,11.655,199a42.368,42.368,0,0,1,8.675-32.1l31.1,27.427a42.321,42.321,0,0,0-8.7,32.1" transform="translate(-11.244 -159.535)"/><path class="i" d="M46.228,197.2l-31.1-27.427a44.022,44.022,0,0,1,4.559-5.027l31.1,27.427a44.033,44.033,0,0,0-4.559,5.027" transform="translate(-6.044 -162.412)"/><path class="h" d="M48.178,193.515l-31.1-27.427c.889-.818,1.8-1.613,2.736-2.338l31.1,27.427c-.959.748-1.871,1.543-2.736,2.338" transform="translate(-3.435 -163.75)"/></g></g></g><g transform="translate(178.077 121.313)"><g class="bs"><g transform="translate(0 -0.046)"><path class="f" d="M108.9,115.169,77.8,87.742c.818-.4,1.613-.725,2.338-1.052l31.1,27.427a19.585,19.585,0,0,0-2.338,1.052" transform="translate(-77.8 -69.606)"/><path class="e" d="M109.938,115.455,78.84,88.028c2.058-.842,4.092-1.52,5.939-2.338l31.1,27.427c-1.847.725-3.881,1.426-5.939,2.338" transform="translate(-76.408 -70.944)"/><path class="f" d="M112.478,113.99,81.38,86.563a31.377,31.377,0,0,0,3.2-1.473l30.981,27.4a26.7,26.7,0,0,1-3.18,1.5" transform="translate(-73.009 -71.747)"/><path class="g" d="M113.731,113.056,82.75,85.652a14.468,14.468,0,0,0,1.543-.982l31.1,27.4a14.825,14.825,0,0,1-1.567.982" transform="translate(-71.176 -72.309)"/><path class="h" d="M114.508,112.609l-31.1-27.4c.4-.3.772-.608,1.122-.935l31.1,27.427a10.615,10.615,0,0,1-1.122.912" transform="translate(-70.293 -72.844)"/><path class="i" d="M114.988,113.53,83.89,86.1a3.575,3.575,0,0,0,.421-.421c.935-.982,1.847-1.917,2.782-2.782l31.075,27.427c-.912.865-1.824,1.8-2.759,2.782l-.421.421" transform="translate(-69.65 -74.678)"/><path class="h" d="M116.335,112.441,85.26,85.014a41.106,41.106,0,0,1,4.419-3.694l31.075,27.427a46.246,46.246,0,0,0-4.419,3.694" transform="translate(-67.817 -76.792)"/><path class="g" d="M118.225,109.9,87.15,82.471a29.112,29.112,0,0,1,3.11-2.011l31.1,27.427a31.914,31.914,0,0,0-3.133,2.011" transform="translate(-65.288 -77.943)"/><path class="f" d="M119.578,108.6,88.48,81.169c.889-.468,1.754-.889,2.619-1.239l31.075,27.427a21.79,21.79,0,0,0-2.6,1.239" transform="translate(-63.508 -78.652)"/><path class="e" d="M120.675,107.825,89.6,80.4a20.157,20.157,0,0,1,2.455-.818l31.215,27.427a21.909,21.909,0,0,0-2.478.818" transform="translate(-62.009 -79.12)"/><path class="d" d="M121.865,107.261,90.65,79.834a16.134,16.134,0,0,1,2.759-.444l31.1,27.427a15.78,15.78,0,0,0-2.759.444" transform="translate(-60.604 -79.375)"/><path class="c" d="M122.928,106.826,91.83,79.4h.14a18.378,18.378,0,0,1,12.182,3.975l31.1,27.427a18.378,18.378,0,0,0-12.182-3.975h-.14" transform="translate(-59.025 -79.383)"/><path class="d" d="M128.2,108.507,97.1,81.08a28.9,28.9,0,0,1,2.6,2.081l31.1,27.427a28.9,28.9,0,0,0-2.6-2.081" transform="translate(-51.973 -77.113)"/></g></g></g><g transform="translate(210.274 64.733)"><g class="bt"><g transform="translate(0 0.02)"><path class="c" d="M122.668,83.077,91.57,55.65A143.659,143.659,0,0,1,185.87,81.7l31.075,27.427a143.542,143.542,0,0,0-94.276-26.048" transform="translate(-91.57 -55.213)"/><path class="d" d="M162.975,93.967,131.9,66.54c3.788,2.736,7.459,5.658,10.966,8.745l31.1,27.4a128.691,128.691,0,0,0-10.99-8.745" transform="translate(-37.601 -40.056)"/></g></g></g><g transform="translate(157.545 92.345)"><g class="bu"><g transform="translate(0.004 0.085)"><path class="j" d="M111.527,174.643l-31.1-27.5C65.278,119.508,65.348,95.706,79.868,77l31.192,27.544c-14.544,18.706-14.614,42.462.561,70.146" transform="translate(-69.021 -53.736)"/><path class="i" d="M104.852,108.559,73.66,81.132A63.786,63.786,0,0,1,80.3,74l31.1,27.31a61.682,61.682,0,0,0-6.547,7.248" transform="translate(-62.813 -57.75)"/><path class="h" d="M107.6,104.321,76.5,77.011c.608-.585,1.239-1.146,1.894-1.73,1.426-1.263,2.923-2.338,4.419-3.531l31.1,27.31c-1.52,1.1-2.993,2.338-4.419,3.531-.655.561-1.286,1.146-1.894,1.73" transform="translate(-59.012 -60.761)"/><path class="g" d="M110.3,101.308,79.2,73.881a62.546,62.546,0,0,1,5.962-3.811L116.26,97.5a59.738,59.738,0,0,0-5.962,3.811" transform="translate(-55.399 -63.009)"/><path class="f" d="M112.848,99.223,81.75,71.8a56.631,56.631,0,0,1,6.383-3.016l31.1,27.4a61.208,61.208,0,0,0-6.383,3.04" transform="translate(-51.987 -64.736)"/><path class="e" d="M115.578,97.522l-31.1-27.4a55.414,55.414,0,0,1,7.225-2.338l31.1,27.427a56.558,56.558,0,0,0-7.225,2.338" transform="translate(-48.334 -66.074)"/><path class="d" d="M118.668,96.067,87.57,68.64a55.812,55.812,0,0,1,9.119-1.52l31.1,27.427a53.03,53.03,0,0,0-9.119,1.52" transform="translate(-44.199 -66.957)"/><path class="c" d="M122.568,94.64,91.47,67.213h.491a50.411,50.411,0,0,1,33.132,9.072l31.1,27.427a50.458,50.458,0,0,0-33.086-9.1h-.491" transform="translate(-38.98 -67.05)"/><path class="d" d="M136.948,98.521,105.85,71l1.309.982a27.892,27.892,0,0,1,2.689,2.338l31.075,27.427c-.842-.748-1.754-1.5-2.666-2.338l-1.309-.982" transform="translate(-19.736 -61.765)"/></g></g></g><g transform="translate(58.477 65.189)"><g class="bv"><g transform="translate(0.001 0.094)"><path class="j" d="M105.564,318.273l-31.1-27.427c-29.3-25.837-47.629-63.973-47.816-107.674A162.926,162.926,0,0,1,61.419,82.63l31.1,27.427A162.785,162.785,0,0,0,57.748,210.6a142.63,142.63,0,0,0,47.816,107.557" transform="translate(-26.65 -19.054)"/><path class="i" d="M72.618,121.194,41.52,93.767A169.07,169.07,0,0,1,59.15,74.36l31.075,27.427a168.863,168.863,0,0,0-17.607,19.407" transform="translate(-6.751 -30.121)"/><path class="h" d="M80.135,109.709,49.06,82.282A166.43,166.43,0,0,1,65.755,68.44L96.829,95.867a171.856,171.856,0,0,0-16.695,13.842" transform="translate(3.339 -38.043)"/><path class="g" d="M87.275,102.063,56.2,74.636a168.657,168.657,0,0,1,17-10.826l31.1,27.427a167.51,167.51,0,0,0-17.022,10.826" transform="translate(12.894 -44.239)"/><path class="f" d="M94.568,96.175,63.47,68.748a164.5,164.5,0,0,1,18.1-8.628l31.075,27.427a164.141,164.141,0,0,0-18.074,8.628" transform="translate(22.622 -49.177)"/><path class="e" d="M102.285,91.361,71.21,63.934A157.524,157.524,0,0,1,91.763,57.27L122.791,84.7a157.857,157.857,0,0,0-20.506,6.664" transform="translate(32.98 -52.991)"/><path class="d" d="M111.028,87.146,80,59.719a156.987,156.987,0,0,1,25.954-4.279l31.075,27.427a154.7,154.7,0,0,0-26,4.279" transform="translate(44.743 -55.44)"/><path class="c" d="M122.175,82.867,91.1,55.44h1.1l31.1,27.427h-1.122" transform="translate(59.597 -55.44)"/></g></g></g><path class="q" d="M191.679,67.345c84.175-5.869,152.544,57.683,153.082,142.139S277.14,367.733,192.942,374.023C108.626,379.915,40.211,316.176,40,231.557S107.5,73.354,191.679,67.345Zm116.7,199.121c8.628-.608,9.937-4.092,14.029-20.88,16.087-66.335-18.074-132.88-78.587-153.035a136.224,136.224,0,0,0-52.586-6.8c-47.021,3.273-90.886,31.192-116.4,77.371C42.1,222.414,57.607,296,110.8,333.689c23.709,16.788,53.779,24.013,83.146,21.956,26.936-1.871,53.077-11.691,72.671-28.853a12.837,12.837,0,0,0-9.633-2.479,59.153,59.153,0,0,0-7.623,1.193,59.709,59.709,0,0,1-7.482,1.192c-6.477.444-11.691-1.66-13.071-13.187-3.952-34.909-1.917-37.926,16.227-44.192,3.764-31.916,4.022-34.652,14.029-35.354a15.964,15.964,0,0,0,2.525-.14l2.058-.117c2.151-.164,4.4-.374,6.64-.585s4.676-.468,6.874-.631c7.132-.491,13.842-.281,18.215,2.9,6.43,4.676,4.676,20.272,6.734,31.1h6.29m-21.044,36.9c9.914-.678,12.322-9.493,16.367-17.583l-20.693,1.426c-.327,3.461-.748,6.2-.772,8.909a60.083,60.083,0,0,0,.795,7.015,22.825,22.825,0,0,0,4.3.14m-24.224-14.45-15.9,1.1v16.835l15.9-1.847V288.843m17.84-21.044V251.665l-16.367,1.146v16.134l16.367-1.146" transform="translate(49.693 25.271)"/><path class="q" d="M187.206,166.68c17.7,7.2,29.181,19.5,29.672,41.643l-14.964,1.917c-8.558-19.267-12.7-25.065-23.382-24.317a70.987,70.987,0,0,0-11.691,2.338c.842,6.337.514,13.281,2.782,19.033,8.09,20.412-2.081,36.593-13.562,52.984-3.461,4.934-6.5,7.272-9.493,7.482-3.344.234-6.617-2.2-10.335-6.617-12.3-14.731-20.81-30.022-13.281-51.206a98.6,98.6,0,0,0,2.759-18.4,34.77,34.77,0,0,0-11.972-1.4c-12.252.865-20.833,9.353-21.278,23.382-.842,24.691,0,49.313,0,76.108l79.5-5.542v18.355c-13.211.912-26.375,1.894-39.516,2.829-16.063,1.122-32.08,2.128-48.1,2.736-3.3.14-9.049-6.664-9.166-10.686-.772-28.97-1.005-57.987,0-87.074.514-18.261,12.883-29.578,29.157-37.949-17.887-32.2-14.8-59.32,7.81-79.1A56.771,56.771,0,0,1,145.8,78.928,50.271,50.271,0,0,1,180.238,89.1C202.615,106.729,205.163,133.08,187.206,166.68ZM146.1,168.6c16.367-1.239,26.866-10.054,32.735-27.38-9.727-3.741-19.407-7.6-29.2-11.13a8.417,8.417,0,0,0-3.952-.608,9.352,9.352,0,0,0-2.5.514c-10.171,5.191-20.179,10.779-30.233,16.227,6.43,16.367,16.742,23.522,32.945,22.4h.257m17.162-52.773c3.133,3.157,9.353,3.157,16.017,5.074-7.342-17.162-19.056-24.878-33.577-23.85l-2.011.187c-15.035,1.847-25.6,11.177-30.4,28.526,5.705-2.666,11.434-3.718,14.66-7.132,6.266-6.664,12.229-10.592,18.285-11.013,5.518-.374,11.106,2.151,17.022,8.207M148.135,239.609c11.527-17.583-.585-32.618-1.66-48.635-10.218,42.953-10.732,43.981,1.66,48.635" transform="translate(95.879 41.069)"/><g transform="translate(85.391 103.302)"><g class="bw"><path class="j" d="M70.521,105.58,39.469,78.153A17.186,17.186,0,0,1,38.16,71.7l31.1,27.427a17.162,17.162,0,0,0,1.263,6.453" transform="translate(-38.16 -71.7)"/></g></g><g transform="translate(79.943 80.621)"><g class="bx"><g transform="translate(0 -0.117)"><path class="j" d="M72.376,112.174l-31.1-27.427c2.338-10.966,0-17.981-5.448-22.8l31.1,27.427c5.448,4.817,7.693,11.831,5.448,22.8" transform="translate(-35.83 -61.95)"/></g></g></g><g transform="translate(63.552 52.563)"><g class="by"><path class="d" d="M59.895,77.357,28.82,50c.561.491,1.169.959,1.8,1.426L61.7,78.783a17.864,17.864,0,0,1-1.8-1.426" transform="translate(-28.82 -50)"/><path class="c" d="M60.665,77.994,29.59,50.59a39.586,39.586,0,0,0,17.7,6.126,28.316,28.316,0,0,1,12.837,4.559L91.2,88.7a28.058,28.058,0,0,0-12.813-4.676,39.516,39.516,0,0,1-17.724-6.149" transform="translate(-27.79 -49.21)"/><path class="d" d="M73.725,82.587,42.65,55.16a16.369,16.369,0,0,1,1.4,1.122l31.1,27.4a17.632,17.632,0,0,0-1.426-1.1" transform="translate(-10.313 -43.095)"/></g></g><g transform="translate(48.962 22.28)"><g class="bz"><path class="c" d="M53.678,64.572,22.58,37.145a59.626,59.626,0,0,1,6.781,0l31.1,27.427a54.666,54.666,0,0,0-6.781,0" transform="translate(-22.58 -37.049)"/></g></g><g transform="translate(39.789 24.013)"><g class="ca"><path class="j" d="M52.685,106.416l-31.1-27.427c-4.536-4-2.338-9.914-2.759-25-.14-5.144,0-10.288,0-16.2L49.856,65.217v16.2c.421,15.081-1.754,21.044,2.782,25" transform="translate(-18.657 -37.79)"/></g></g><g transform="translate(39.89 22.377)"><g class="cb"><path class="d" d="M49.8,66.154,18.7,38.727c3.741-.678,6.407-1.356,9.072-1.637l31.1,27.427c-2.666.281-5.331.935-9.072,1.637" transform="translate(-18.7 -37.09)"/></g></g><path class="q" d="M41.147,48.88a54.662,54.662,0,0,1,6.781,0c.748,1.824,1.894,3.133,1.66,4.279C45.4,74.624,56.135,83.953,75.309,86.572c15.479,2.128,22.166,10.8,19.781,27.076a156.989,156.989,0,0,0,0,21.488l-16.25,1.122a17.162,17.162,0,0,1-1.286-6.453c3.858-18.939-5.612-26.094-22.1-30.537-29.111-7.88-22.634-7.459-23.382-32.548-.14-5.144,0-10.288,0-16.2C35.816,49.816,38.482,49.161,41.147,48.88Z" transform="translate(38.912 0.923)"/></g><g transform="translate(345.798)"><path class="s" d="M188.518,44.236l-31.1-27.427,15.432-1.1,31.1,27.427Z" transform="translate(-135.139 21.025)"/><path class="r" d="M195.131,52.745l-31.1-27.427L164.01,8.53l31.075,27.427Z" transform="translate(-126.32 11.416)"/><g transform="translate(38.836)"><g class="cc"><g transform="translate(0 0.004)"><path class="c" d="M195.575,27.542,164.5.115c5.892-.4,10.335.21,13.258,2.338l31.1,27.427c-2.923-2.1-7.365-2.736-13.281-2.338" transform="translate(-164.5 -0.001)"/><path class="d" d="M201.268,28.521,170.17,1a9.168,9.168,0,0,1,.748.585l31.075,27.474a8.529,8.529,0,0,0-.725-.561" transform="translate(-156.912 1.335)"/></g></g></g><g transform="translate(0 0.165)"><g class="cd"><g transform="translate(0.025 0)"><path class="j" d="M185.1,73.2,154.024,45.773a9.657,9.657,0,0,1-3.367-5C147.08,21.9,146.565,11,151.639,4.48l31.1,27.4c-5.074,6.524-4.676,17.4-1.005,36.289A9.8,9.8,0,0,0,185.1,73.2" transform="translate(-147.901 5.831)"/><path class="i" d="M180.6,32.861,149.5,5.434a13.191,13.191,0,0,1,1.543-1.684l31.075,27.427a13,13,0,0,0-1.52,1.683" transform="translate(-145.762 4.855)"/><path class="h" d="M181.235,31.953,150.16,4.526A15.756,15.756,0,0,1,151.8,3.17L182.871,30.6a15.269,15.269,0,0,0-1.637,1.356" transform="translate(-144.879 4.078)"/><path class="g" d="M181.935,31.333,150.86,3.906a17.675,17.675,0,0,1,2.034-1.286l31.028,27.427a20.324,20.324,0,0,0-2.058,1.286" transform="translate(-143.942 3.342)"/><path class="f" d="M182.758,30.877,151.73,3.45A27.779,27.779,0,0,1,154.7,2l31.1,27.427a22.191,22.191,0,0,0-2.9,1.356" transform="translate(-142.778 2.513)"/><path class="e" d="M184.028,30.471,153,2.95a37.132,37.132,0,0,1,5.284-1.66l31.075,27.427a37.738,37.738,0,0,0-5.261,1.66" transform="translate(-141.079 1.563)"/><path class="d" d="M186.3,30.443,155.23,3.016A137.812,137.812,0,0,1,176.274.07h.187L207.442,27.5h-.164a138.188,138.188,0,0,0-21.044,2.946" transform="translate(-138.094 -0.07)"/><path class="c" d="M195.345,27.5,164.27.07h.538L195.882,27.5h-.538" transform="translate(-125.997 -0.07)"/></g></g></g><path class="q" d="M199.972,11.85c12.93-.912,18.822,3.133,17.3,16.765a93.524,93.524,0,0,0,0,9.914c0,26.609,0,26.609-25.72,28.409-3.344.234-6.851.935-10.195,1.169a20.413,20.413,0,0,1-6.594-.468c-4.349-1.192-10.1-5.261-10.849-9.166C156.9,20.782,161.835,15.007,199.27,11.9Zm-1.1,36.616V31.678L183.44,32.754V49.565l15.432-1.1" transform="translate(-130.061 15.695)"/></g><g transform="translate(26.001 22.856)"><path class="r" d="M57.051,61.768,25.977,34.34,25.93,18.09,57,45.517Z" transform="translate(8.699 1.354)"/><path class="s" d="M50.145,53.589,19.07,26.162,35.157,25.04,66.231,52.467Z" transform="translate(-0.481 10.654)"/><g transform="translate(26.772)"><g class="ce"><g transform="translate(0 0.003)"><path class="c" d="M53.645,37.891,22.57,10.487C35.22,9.6,41.954,9.131,45.554,11.633l31.1,27.427c-3.6-2.5-10.358-2.034-23.008-1.169" transform="translate(-22.57 -9.776)"/><path class="d" d="M63.5,38,32.4,10.57a5.682,5.682,0,0,1,.585.468L64.2,38.465,63.615,38" transform="translate(-9.416 -8.713)"/></g></g></g><g transform="translate(0 0.621)"><g class="cf"><g transform="translate(-0.046 0.14)"><path class="j" d="M45.284,87.794,14.209,60.367c-4.279-3.788-2.689-14.029-3.063-38.393a15.175,15.175,0,0,1,2.525-9.633l31.1,27.427A15.035,15.035,0,0,0,42.244,49.4c.374,24.434-1.239,34.605,3.04,38.393" transform="translate(-11.1 -7.102)"/><path class="i" d="M43.3,40.383,12.2,12.956a8.7,8.7,0,0,1,1.005-1.076L44.28,39.307a10.71,10.71,0,0,0-.982,1.076" transform="translate(-9.629 -7.718)"/><path class="h" d="M43.7,39.762,12.63,12.335a7.856,7.856,0,0,1,.959-.795L44.663,38.967a7.506,7.506,0,0,0-.959.795" transform="translate(-9.053 -8.173)"/><path class="g" d="M44.168,39.355,13,11.928a8.09,8.09,0,0,1,1.052-.678L45.244,38.724a10.357,10.357,0,0,0-1.076.678" transform="translate(-8.558 -8.561)"/><path class="f" d="M44.588,39.072,13.49,11.6A8.348,8.348,0,0,1,14.8,10.99l31.075,27.4a10.941,10.941,0,0,0-1.286.631" transform="translate(-7.902 -8.909)"/><path class="e" d="M45.125,38.715,14.05,11.335a13.538,13.538,0,0,1,1.8-.585l31.1,27.427a13.866,13.866,0,0,0-1.824.561" transform="translate(-7.153 -9.23)"/><path class="d" d="M45.918,38.461,14.82,11.034a19.2,19.2,0,0,1,3.273-.514l31.075,27.4a18.846,18.846,0,0,0-3.25.538" transform="translate(-6.123 -9.538)"/><path class="c" d="M47.295,38.486,16.22,11.082h.725l4.676-.281c3.133-.234,6.266-.491,9.353-.7L62.142,37.457c-3.133.234-6.266.491-9.353.7l-4.676.3h-.725" transform="translate(-4.249 -10.1)"/></g></g></g><path class="q" d="M51.2,22.2c27.1-1.871,27.1-1.871,27.1,25.323V61.714c.117,8.651-3.928,13.117-12.486,13.7h-.444l-7.178.444-9.54.748c-2.782.234-5.238.444-7.412.585-20.459,1.45-16.25-2.175-16.835-40.077-.14-8.651,3.6-13.328,12.112-14.029h.514l4.676-.3C44.932,22.666,48.065,22.432,51.2,22.2Zm7.9,35.073V40.9L43.014,42.027V58.394L59.1,57.272" transform="translate(6.649 5.92)"/></g><g transform="translate(206.463 75.432)"><path class="r" d="M119.492,104.222,88.417,76.8,88.3,32.72l31.075,27.427Z" transform="translate(-88.3 -31.644)"/><path class="s" d="M119.375,60.763,88.3,33.336l15.479-1.076,31.075,27.4Z" transform="translate(-88.3 -32.26)"/><path class="q" d="M117.069,43.98l.117,44.1-15.479,1.076-.117-44.075Z" transform="translate(-70.515 -16.576)"/></g><g transform="translate(187.103 11.12)"><path class="r" d="M126,57.312l-31.1-27.4L94.88,13.26l31.075,27.427Z" transform="translate(-60.134 6.626)"/><path class="s" d="M119.248,48.906,88.15,21.479l15.759-1.1,31.1,27.4Z" transform="translate(-69.14 16.154)"/><g transform="translate(27.053)"><g class="cg"><g transform="translate(0 -0.007)"><path class="c" d="M122.688,32.385,91.59,4.958c9.493-.678,16.2.281,20.646,3.437l31.1,27.334c-4.466-3.157-11.153-4.115-20.646-3.437" transform="translate(-91.59 -4.752)"/><path class="d" d="M131.518,33.644,100.42,6.31c.421.3.795.608,1.169.935l31.1,27.427c-.374-.327-.772-.631-1.169-.935" transform="translate(-79.774 -2.667)"/></g></g></g><g transform="translate(0 0.199)"><g class="ch"><g transform="translate(-0.042 0.07)"><path class="j" d="M114.626,82.1l-31.1-27.427c-3.39-2.993-3.414-9.493-3.484-22.587V16.5A13.8,13.8,0,0,1,82.382,7.68l31.1,27.427a13.772,13.772,0,0,0-2.338,8.792V59.518c0,13.094,0,19.594,3.484,22.587" transform="translate(-80.002 -1.11)"/><path class="i" d="M112.192,35.749,81,8.322A11.691,11.691,0,0,1,82.029,7.2l31.1,27.427a9.353,9.353,0,0,0-1.029,1.122" transform="translate(-78.667 -1.752)"/><path class="h" d="M112.578,35.122,81.48,7.7a12.558,12.558,0,0,1,1.029-.865l31.1,27.427a9.566,9.566,0,0,0-1.029.865" transform="translate(-78.025 -2.247)"/><path class="g" d="M113.018,34.685,81.92,7.258c.374-.257.795-.514,1.216-.748l31.075,27.427c-.421.234-.818.491-1.192.748" transform="translate(-77.436 -2.675)"/><path class="f" d="M113.515,34.365,82.44,6.938a13.886,13.886,0,0,1,1.567-.748l31.1,27.427a11.036,11.036,0,0,0-1.59.748" transform="translate(-76.74 -3.104)"/><path class="e" d="M114.208,34.059,83.11,6.632a17.443,17.443,0,0,1,2.338-.772l31.168,27.427a17.09,17.09,0,0,0-2.338.772" transform="translate(-75.843 -3.545)"/><path class="d" d="M115.225,34.612,84.15,7.185c.631-.164,1.333-.3,2.034-.421,5.4-.912,10.195-1.567,14.45-1.894l31.1,27.4c-4.256.351-9.072,1.005-14.45,1.894-.725.117-1.4.281-2.058.444" transform="translate(-74.452 -4.87)"/><path class="c" d="M122.3,32.274,91.2,4.87h.912L123.21,32.3H122.3" transform="translate(-65.017 -4.87)"/></g></g></g><path class="q" d="M120.373,16.685c25.907-1.824,31.028,8.464,26.281,42.462-.585,4.139-6.8,9.142-11.41,11.34a15.665,15.665,0,0,1-5.635,1.309c-3.157.234-6.547,0-9.727.14-26.445,1.871-26.445,1.871-26.562-24.2V32.117c0-7.95,3.531-12.112,11.691-13.491C110.786,17.691,115.954,16.989,120.373,16.685Zm7.716,36.336V36.373l-15.759,1.1V54.12l15.759-1.1" transform="translate(-62.222 10.94)"/></g></g></g></svg>