<svg xmlns="http://www.w3.org/2000/svg" width="119.717" height="71.83" viewBox="0 0 119.717 71.83"><defs><style>.a{fill:#ffb600;}.b{fill:#f7981d;}.c{fill:#ff8500;}.d{fill:#ff5050;}.e{fill:#e52836;}.f{fill:#cb2026;}.g{fill:#fff;}.h{fill:#dce5e5;}</style></defs><g transform="translate(0)"><path class="a" d="M273.43,136.715a35.915,35.915,0,0,1-71.83,0h0a35.915,35.915,0,1,1,71.83,0Z" transform="translate(-153.714 -100.8)"/><path class="b" d="M237.515,100.8a36.008,36.008,0,0,1,35.915,35.915h0a35.915,35.915,0,0,1-71.83,0" transform="translate(-153.714 -100.8)"/><path class="c" d="M352.8,100.8a36.008,36.008,0,0,1,35.915,35.915h0A35.886,35.886,0,0,1,352.8,172.63" transform="translate(-268.999 -100.8)"/><path class="d" d="M35.535,100.8a35.916,35.916,0,0,0,.38,71.83,36.333,36.333,0,0,0,24.133-9.311h0a34.147,34.147,0,0,0,3.61-3.8H56.248a43.837,43.837,0,0,1-2.66-3.61H66.319a24.343,24.343,0,0,0,2.09-3.8H51.5a22.649,22.649,0,0,1-1.52-3.8H69.74a37.733,37.733,0,0,0,1.9-11.4,49.05,49.05,0,0,0-.76-7.6H48.837a27.782,27.782,0,0,1,.95-3.8H69.55a22.649,22.649,0,0,0-1.52-3.8H51.307a37.683,37.683,0,0,1,2.09-3.8H66.129a18.071,18.071,0,0,0-2.85-3.8H56.248a32.391,32.391,0,0,1,3.61-3.61,35.065,35.065,0,0,0-24.133-9.311C35.725,100.8,35.725,100.8,35.535,100.8Z" transform="translate(0 -100.8)"/><path class="e" d="M0,137.935A35.886,35.886,0,0,0,35.915,173.85a36.333,36.333,0,0,0,24.133-9.311h0a34.146,34.146,0,0,0,3.61-3.8H56.248a43.837,43.837,0,0,1-2.66-3.611H66.319a24.341,24.341,0,0,0,2.09-3.8H51.5a22.647,22.647,0,0,1-1.52-3.8H69.74a37.732,37.732,0,0,0,1.9-11.4,49.05,49.05,0,0,0-.76-7.6H48.837a27.782,27.782,0,0,1,.95-3.8H69.55a22.649,22.649,0,0,0-1.52-3.8H51.307a37.684,37.684,0,0,1,2.09-3.8H66.129a18.071,18.071,0,0,0-2.85-3.8H56.248a32.388,32.388,0,0,1,3.61-3.61A35.065,35.065,0,0,0,35.725,102.4h-.19" transform="translate(0 -102.02)"/><path class="f" d="M149.98,173.85a36.333,36.333,0,0,0,24.133-9.311h0a34.147,34.147,0,0,0,3.611-3.8h-7.411a43.841,43.841,0,0,1-2.66-3.611h12.732a24.34,24.34,0,0,0,2.09-3.8H165.562a22.647,22.647,0,0,1-1.52-3.8H183.8a37.732,37.732,0,0,0,1.9-11.4,49.05,49.05,0,0,0-.76-7.6H162.9a27.784,27.784,0,0,1,.95-3.8h19.763a22.648,22.648,0,0,0-1.52-3.8H165.372a37.688,37.688,0,0,1,2.09-3.8h12.732a18.071,18.071,0,0,0-2.85-3.8h-7.031a32.39,32.39,0,0,1,3.61-3.61A35.065,35.065,0,0,0,149.79,102.4h-.19" transform="translate(-114.065 -102.02)"/><g transform="translate(3.42 26.604)"><path class="g" d="M187.111,236.722l.57-3.23a8.23,8.23,0,0,1-.95.19c-1.33,0-1.52-.76-1.33-1.14l1.14-6.651h2.09l.57-3.611h-1.9l.38-2.28h-3.8s-2.28,12.542-2.28,14.062c0,2.28,1.33,3.23,3.04,3.23A5.833,5.833,0,0,0,187.111,236.722Z" transform="translate(-141.885 -218.29)"/><path class="g" d="M210.4,237.274c0,5.321,3.611,6.651,6.651,6.651a9.866,9.866,0,0,0,3.991-.57l.76-3.61a11.392,11.392,0,0,1-3.991.95c-4.181,0-3.42-3.04-3.42-3.04h7.791a24.638,24.638,0,0,0,.57-3.42c0-2.47-1.33-5.511-5.511-5.511C213.25,228.343,210.4,232.523,210.4,237.274Zm6.651-5.511c2.09,0,1.71,2.47,1.71,2.66h-4.181C214.581,234.234,214.961,231.763,217.051,231.763Z" transform="translate(-163.844 -224.922)"/><path class="g" d="M306.451,231.233l.76-4.181a9.339,9.339,0,0,1-3.23.95c-2.66,0-3.8-2.09-3.8-4.371,0-4.561,2.28-7.031,4.941-7.031a6.346,6.346,0,0,1,3.42,1.14l.57-3.991a13.361,13.361,0,0,0-4.371-.95c-4.371,0-8.741,3.8-8.741,11.022,0,4.751,2.28,7.981,6.841,7.981A17.055,17.055,0,0,0,306.451,231.233Z" transform="translate(-229.111 -212.8)"/><path class="g" d="M93.621,227.2a13.458,13.458,0,0,0-4.561.76l-.57,3.23a11.232,11.232,0,0,1,4.181-.76c1.33,0,2.47.19,2.47,1.33,0,.76-.19.95-.19.95h-1.71c-3.23,0-6.841,1.33-6.841,5.7,0,3.42,2.28,4.181,3.61,4.181A5.71,5.71,0,0,0,94,240.882l-.19,1.52h3.42l1.52-10.451C98.752,227.39,94.951,227.2,93.621,227.2Zm.76,8.551c0,.57-.38,3.611-2.66,3.611a1.483,1.483,0,0,1-1.52-1.52c0-.95.57-2.28,3.42-2.28A3,3,0,0,0,94.381,235.751Z" transform="translate(-69.298 -223.78)"/><path class="g" d="M139.571,241.982c.95,0,5.7.19,5.7-4.941,0-4.751-4.561-3.8-4.561-5.7,0-.95.76-1.33,2.09-1.33.57,0,2.66.19,2.66.19l.57-3.42a14.435,14.435,0,0,0-3.611-.38c-2.85,0-5.7,1.14-5.7,4.941,0,4.371,4.751,3.991,4.751,5.7,0,1.14-1.33,1.33-2.28,1.33a12.427,12.427,0,0,1-3.42-.57l-.57,3.42C135.39,241.6,136.34,241.982,139.571,241.982Z" transform="translate(-106.506 -223.17)"/><path class="g" d="M438.031,214.4l-.76,5.131a5.269,5.269,0,0,0-3.611-1.9c-3.42,0-6.461,4.181-6.461,9.121,0,3.04,1.52,6.271,4.751,6.271a5.073,5.073,0,0,0,3.61-1.52l-.19,1.33h3.8l2.85-18.243Zm-1.71,10.071c0,2.09-.95,4.751-3.04,4.751-1.33,0-2.09-1.14-2.09-3.04,0-3.04,1.33-4.941,3.04-4.941C435.561,221.241,436.321,222.191,436.321,224.471Z" transform="translate(-329.146 -214.02)"/><path class="g" d="M18.01,232.643l2.28-13.682.38,13.682h2.66l4.941-13.682-2.09,13.682h3.991l3.04-18.243H26.942l-3.8,11.212-.19-11.212H17.44L14.4,232.643Z" transform="translate(-14.4 -214.02)"/><path class="g" d="M264.181,243.622c1.14-6.271,1.33-11.4,3.991-10.451a14.915,14.915,0,0,1,1.33-4.371h-.76c-1.71,0-3.04,2.28-3.04,2.28l.38-2.09H262.47L260,243.812h4.181Z" transform="translate(-201.662 -224.999)"/><path class="g" d="M353.621,227.2a13.458,13.458,0,0,0-4.561.76l-.57,3.23a11.232,11.232,0,0,1,4.181-.76c1.33,0,2.47.19,2.47,1.33,0,.76-.19.95-.19.95h-1.71c-3.23,0-6.841,1.33-6.841,5.7,0,3.42,2.28,4.181,3.611,4.181a5.71,5.71,0,0,0,3.991-1.71l-.19,1.52h3.421l1.52-10.451C358.942,227.39,354.951,227.2,353.621,227.2Zm.95,8.551c0,.57-.38,3.611-2.66,3.611a1.483,1.483,0,0,1-1.52-1.52c0-.95.57-2.28,3.42-2.28C354.381,235.751,354.381,235.751,354.571,235.751Z" transform="translate(-267.539 -223.78)"/><path class="g" d="M398.581,243.622c1.14-6.271,1.33-11.4,3.99-10.451a14.915,14.915,0,0,1,1.33-4.371h-.76c-1.71,0-3.04,2.28-3.04,2.28l.38-2.09h-3.61l-2.47,14.822h4.181Z" transform="translate(-304.138 -224.999)"/></g><g transform="translate(3.42 26.604)"><path class="h" d="M180,234.062c0,2.28,1.33,3.23,3.04,3.23a7.233,7.233,0,0,0,2.85-.57l.57-3.23a8.23,8.23,0,0,1-.95.19c-1.33,0-1.52-.76-1.33-1.14l1.14-6.651h2.09l.57-3.611h-1.9l.38-2.28" transform="translate(-140.665 -218.29)"/><path class="h" d="M218.4,237.274c0,5.321,1.71,6.651,4.751,6.651a9.866,9.866,0,0,0,3.991-.57l.76-3.61a11.392,11.392,0,0,1-3.991.95c-4.181,0-3.42-3.04-3.42-3.04h7.791a24.638,24.638,0,0,0,.57-3.42c0-2.47-1.33-5.511-5.511-5.511C219.35,228.343,218.4,232.523,218.4,237.274Zm4.751-5.511c2.09,0,2.47,2.47,2.47,2.66H220.68C220.68,234.234,221.06,231.763,223.151,231.763Z" transform="translate(-169.943 -224.922)"/><path class="h" d="M312.551,231.233l.76-4.181a9.339,9.339,0,0,1-3.23.95c-2.66,0-3.8-2.09-3.8-4.371,0-4.561,2.28-7.031,4.941-7.031a6.346,6.346,0,0,1,3.42,1.14l.57-3.991a13.361,13.361,0,0,0-4.371-.95c-4.371,0-6.841,3.8-6.841,11.022,0,4.751.38,7.981,4.941,7.981A17.055,17.055,0,0,0,312.551,231.233Z" transform="translate(-235.211 -212.8)"/><path class="h" d="M88.49,232.6a11.232,11.232,0,0,1,4.181-.76c1.33,0,2.47.19,2.47,1.33,0,.76-.19.95-.19.95h-1.71c-3.23,0-6.841,1.33-6.841,5.7,0,3.42,2.28,4.181,3.61,4.181A5.71,5.71,0,0,0,94,242.292l-.19,1.52h3.42l1.52-10.451c0-4.371-3.8-4.561-5.321-4.561m2.85,8.171c0,.57-2.28,3.611-4.561,3.611a1.483,1.483,0,0,1-1.52-1.52c0-.95.57-2.28,3.42-2.28A15.524,15.524,0,0,0,96.281,236.971Z" transform="translate(-69.298 -224.999)"/><path class="h" d="M136,241.6a16.083,16.083,0,0,0,4.371.38c.95,0,5.7.19,5.7-4.941,0-4.751-4.561-3.8-4.561-5.7,0-.95.76-1.33,2.09-1.33.57,0,2.66.19,2.66.19l.57-3.42a14.435,14.435,0,0,0-3.611-.38c-2.85,0-3.8,1.14-3.8,4.941,0,4.371,2.85,3.991,2.85,5.7,0,1.14-1.33,1.33-2.28,1.33" transform="translate(-107.116 -223.17)"/><path class="h" d="M443.327,220.141a5.269,5.269,0,0,0-3.61-1.9c-3.421,0-4.561,4.181-4.561,9.121,0,3.04-.38,6.271,2.85,6.271a5.073,5.073,0,0,0,3.611-1.52l-.19,1.33h3.8l2.85-18.243m-4.941,9.881c0,2.09-1.71,4.751-3.8,4.751-1.33,0-2.09-1.14-2.09-3.04,0-3.04,1.33-4.941,3.04-4.941A2.9,2.9,0,0,1,443.137,225.081Z" transform="translate(-335.202 -214.63)"/><path class="h" d="M18.011,232.643l2.28-13.682.38,13.682h2.66l4.941-13.682-2.09,13.682h3.991l3.04-18.243H28.462l-5.321,11.212-.19-11.212h-2.09L14.4,232.643Z" transform="translate(-14.4 -214.02)"/><path class="h" d="M260.8,243.622h3.991c1.14-6.271,1.33-11.4,3.991-10.451a14.915,14.915,0,0,1,1.33-4.371h-.76c-1.71,0-3.04,2.28-3.04,2.28l.38-2.09" transform="translate(-202.272 -224.999)"/><path class="h" d="M348.49,232.6a11.233,11.233,0,0,1,4.181-.76c1.33,0,2.47.19,2.47,1.33,0,.76-.19.95-.19.95h-1.71c-3.23,0-6.841,1.33-6.841,5.7,0,3.42,2.28,4.181,3.611,4.181a5.71,5.71,0,0,0,3.991-1.71l-.19,1.52h3.42l1.52-10.451c0-4.371-3.8-4.561-5.321-4.561m2.85,8.171c0,.57-2.28,3.611-4.561,3.611a1.483,1.483,0,0,1-1.52-1.52c0-.95.57-2.28,3.42-2.28A16.717,16.717,0,0,0,356.281,236.971Z" transform="translate(-267.539 -224.999)"/><path class="h" d="M395.2,243.622h3.991c1.14-6.271,1.33-11.4,3.991-10.451a14.917,14.917,0,0,1,1.33-4.371h-.76c-1.71,0-3.04,2.28-3.04,2.28l.38-2.09" transform="translate(-304.748 -224.999)"/></g></g></svg>