<svg xmlns="http://www.w3.org/2000/svg" xmlns:xlink="http://www.w3.org/1999/xlink" width="76" height="76" viewBox="0 0 76 76"><defs><style>.a{fill:#fff;}.b{fill:#06958c;}.c{filter:url(#a);}</style><filter id="a" x="0" y="0" width="76" height="76" filterUnits="userSpaceOnUse"><feOffset dy="3" input="SourceAlpha"/><feGaussianBlur stdDeviation="3" result="b"/><feFlood flood-opacity="0.161"/><feComposite operator="in" in2="b"/><feComposite in="SourceGraphic"/></filter></defs><g transform="translate(-1699 -302)"><g class="c" transform="matrix(1, 0, 0, 1, 1699, 302)"><rect class="a" width="58" height="58" rx="29" transform="translate(9 6)"/></g><g transform="translate(1724.004 322.012)"><g transform="translate(-0.003 -0.013)"><path class="b" d="M13.352,26.628c-3.36,0-6.717-.016-10.075,0A2.925,2.925,0,0,1,.369,25.1,2.71,2.71,0,0,1,.76,21.844a9,9,0,0,0,2.113-7.053,29.873,29.873,0,0,1,.133-5.979A10.366,10.366,0,0,1,11.192.195,10.565,10.565,0,0,1,22.313,5a10.408,10.408,0,0,1,1.542,5.455c0,2.5-.02,5,.013,7.493a2.738,2.738,0,0,0,.382,1.3c.584.975,1.255,1.9,1.88,2.846a2.768,2.768,0,0,1,.2,2.991,2.833,2.833,0,0,1-2.666,1.538Z" transform="translate(0.003 0.013)"/><path class="b" d="M42.63,126.45h7.708a3.87,3.87,0,0,1-3.68,2.744,4.048,4.048,0,0,1-4.028-2.744Z" transform="translate(-33.157 -98.35)"/></g></g></g></svg>