<svg xmlns="http://www.w3.org/2000/svg" width="39.361" height="36.437" viewBox="0 0 39.361 36.437"><defs><style>.a{fill:#707070;stroke:#707070;stroke-width:0.3px;}.b{fill:#06958c;}</style></defs><g transform="translate(0 0.152)"><path class="a" d="M130.611,5.617a4.617,4.617,0,0,0-3.9-4.474,68.436,68.436,0,0,0-15.841,0,4.618,4.618,0,0,0-3.9,4.474c-.226,3.9-.351,7.862-.375,11.776a3.1,3.1,0,0,0-1.528,1.771,3.392,3.392,0,0,0,.879,3.72l.071.062c-.031.06-.061.12-.089.182a3.4,3.4,0,0,0-.143,2.387,3.113,3.113,0,0,0,.956,1.474c.059,1.626.136,3.27.229,4.895a4.618,4.618,0,0,0,3.9,4.474,68.375,68.375,0,0,0,7.92.46,68.364,68.364,0,0,0,7.92-.46,4.617,4.617,0,0,0,3.9-4.474A228.174,228.174,0,0,0,130.611,5.617ZM106.795,23.6a31.649,31.649,0,0,0,3.136,2.21,1.87,1.87,0,0,1-.855.657,1.7,1.7,0,0,1-1.43-.1,2,2,0,0,1-.945-1.188A2.242,2.242,0,0,1,106.795,23.6Zm22.855,8.218a3.6,3.6,0,0,1-3.038,3.486,67.569,67.569,0,0,1-15.638,0,3.6,3.6,0,0,1-3.038-3.486c-.082-1.423-.151-2.862-.206-4.29a2.531,2.531,0,0,0,1.086.088c.032.691.068,1.368.106,2.019a3.913,3.913,0,0,0,3.3,3.791,56.732,56.732,0,0,0,6.569.381,56.737,56.737,0,0,0,6.569-.381,3.913,3.913,0,0,0,3.3-3.791,188.808,188.808,0,0,0,0-21.768,4.378,4.378,0,0,0-.345-1.478.463.463,0,0,0-.641-.253.555.555,0,0,0-.23.707,3.236,3.236,0,0,1,.255,1.092,187.664,187.664,0,0,1,0,21.633,2.894,2.894,0,0,1-2.443,2.8,55.9,55.9,0,0,1-12.935,0,2.894,2.894,0,0,1-2.443-2.8c-.042-.73-.082-1.492-.117-2.272a2.9,2.9,0,0,0,1.018-.969q.694.41,1.437.814c.222.121.441.237.607.325a.463.463,0,0,0,.642-.249.556.556,0,0,0-.226-.708c-.163-.086-.379-.2-.6-.319a32.743,32.743,0,0,1-6.092-4.131,2.26,2.26,0,0,1-.59-2.5,1.931,1.931,0,0,1,2-1.369l.064.006a2.677,2.677,0,0,0,2.619-1.492,21.71,21.71,0,0,1,1.4-2.34,5.377,5.377,0,0,1,6.409-2.131c.218.085.351.152.374.164s.152.089.345.228a6.581,6.581,0,0,1,2.362,6.9,22.888,22.888,0,0,1-.836,2.645,3.257,3.257,0,0,0,.518,3.2l.007.008.035.042A2.3,2.3,0,0,1,121.486,28a1.86,1.86,0,0,1-2.16,1,26.637,26.637,0,0,1-4.354-1.638.466.466,0,0,0-.631.281.552.552,0,0,0,.255.7,27.529,27.529,0,0,0,4.5,1.693,2.789,2.789,0,0,0,.72.1,2.841,2.841,0,0,0,2.494-1.589,3.443,3.443,0,0,0-.34-3.832l-.053-.064a2.109,2.109,0,0,1-.337-2.066,24.032,24.032,0,0,0,.877-2.778,7.827,7.827,0,0,0-1.866-7.292,2.36,2.36,0,0,0,1.292-1.262A2.739,2.739,0,0,0,122,9.326a2.444,2.444,0,0,0-1.154-1.451,2.081,2.081,0,0,0-1.746-.127,2.357,2.357,0,0,0-1.316,1.271,2.747,2.747,0,0,0-.122,1.9,6.362,6.362,0,0,0-6.388,2.8,22.8,22.8,0,0,0-1.467,2.457,1.886,1.886,0,0,1-.225.339c.034-2.86.134-5.742.3-8.582a2.894,2.894,0,0,1,2.443-2.8c.387-.045.772-.086,1.149-.122a2.246,2.246,0,0,0,1.768,1.386,30.732,30.732,0,0,0,7.1,0,2.246,2.246,0,0,0,1.768-1.386c.379.036.764.077,1.148.122a2.548,2.548,0,0,1,1.082.388A.458.458,0,0,0,127,5.325a.561.561,0,0,0-.176-.725,3.444,3.444,0,0,0-1.463-.525c-.516-.06-1.033-.114-1.537-.158a.488.488,0,0,0-.5.4,1.3,1.3,0,0,1-1.078,1.025,29.853,29.853,0,0,1-6.9,0,1.3,1.3,0,0,1-1.078-1.024.488.488,0,0,0-.5-.4c-.5.044-1.017.1-1.537.158a3.914,3.914,0,0,0-3.3,3.791c-.178,3.059-.28,6.166-.307,9.243a1.638,1.638,0,0,1-.5.028l-.068-.007a2.815,2.815,0,0,0-.479,0c.028-3.805.152-7.652.371-11.444A3.6,3.6,0,0,1,110.973,2.2a67.56,67.56,0,0,1,15.638,0,3.6,3.6,0,0,1,3.039,3.486,226.994,226.994,0,0,1,0,26.132Zm-10.4-20.373a1.532,1.532,0,0,1-.6-1.954,1.364,1.364,0,0,1,.762-.736,1.2,1.2,0,0,1,1.011.074,1.415,1.415,0,0,1,.668.84,1.585,1.585,0,0,1-.067,1.114,1.364,1.364,0,0,1-.762.736A1.2,1.2,0,0,1,119.25,11.444Z" transform="translate(-91.78 -0.683)"/><path class="b" d="M283.4,34.565h-5.183c-.292,0-.528.393-.528.879s.236.879.528.879H283.4c.292,0,.528-.393.528-.879S283.689,34.565,283.4,34.565Z" transform="translate(-253.569 -32.444)"/><path class="b" d="M27.274,175.963l-2.142-1.441a2.475,2.475,0,0,0-3.525.816l-.3.512a2.475,2.475,0,0,0,1.055,3.461l2.319,1.135a2.456,2.456,0,0,0,1.081.25,2.482,2.482,0,0,0,2.15-1.236l.119-.206h0A2.483,2.483,0,0,0,27.274,175.963Zm-.76,2.413-.119.206a.72.72,0,0,1-.937.286l-2.319-1.135a.717.717,0,0,1-.306-1l.3-.512a.71.71,0,0,1,.459-.34.728.728,0,0,1,.164-.019.71.71,0,0,1,.4.123l2.142,1.441A.72.72,0,0,1,26.514,178.375Z" transform="translate(-18.522 -163.737)"/><path class="b" d="M2.644,262.28,5.22,262.1a2.482,2.482,0,0,0,2.306-2.469V259.4a2.483,2.483,0,0,0-2.306-2.469l-2.575-.177A2.475,2.475,0,0,0,0,259.219v.591a2.475,2.475,0,0,0,2.477,2.475C2.533,262.285,2.589,262.283,2.644,262.28Zm-.659-1.945a.711.711,0,0,1-.228-.524v-.591a.718.718,0,0,1,.716-.717l.051,0,2.575.177a.719.719,0,0,1,.668.716v.238a.72.72,0,0,1-.668.716l-2.575.177a.709.709,0,0,1-.539-.191Z" transform="translate(0 -239.43)"/><path class="b" d="M27.917,331.634a2.483,2.483,0,0,0-3.231-.986l-2.318,1.135a2.475,2.475,0,0,0-1.056,3.461l.3.512a2.484,2.484,0,0,0,1.585,1.174,2.459,2.459,0,0,0,.556.063,2.484,2.484,0,0,0,1.384-.421l2.142-1.441a2.483,2.483,0,0,0,.762-3.292Zm-1.624,2.039-2.142,1.441a.717.717,0,0,1-1.022-.237l-.3-.512a.717.717,0,0,1,.306-1l2.319-1.135a.711.711,0,0,1,.313-.073.72.72,0,0,1,.623.358h0l.119.206a.72.72,0,0,1-.221.954Z" transform="translate(-18.521 -307.222)"/></g></svg>