<svg xmlns="http://www.w3.org/2000/svg" width="61.389" height="61.389" viewBox="0 0 61.389 61.389"><defs><style>.a{fill:#06958c;}.b{fill:#707070;}</style></defs><path class="a" d="M277.069,182.4h7.913a1.2,1.2,0,0,0,0-2.4h-7.913a1.2,1.2,0,1,0,0,2.4Z" transform="translate(-242.793 -158.418)"/><path class="b" d="M277.069,222.4h7.913a1.2,1.2,0,0,0,0-2.4h-7.913a1.2,1.2,0,1,0,0,2.4Z" transform="translate(-242.793 -193.622)"/><path class="b" d="M286.181,261.2a1.2,1.2,0,0,0-1.2-1.2h-7.913a1.2,1.2,0,1,0,0,2.4h7.913A1.2,1.2,0,0,0,286.181,261.2Z" transform="translate(-242.793 -228.826)"/><path class="b" d="M158.982,180h-7.913a1.2,1.2,0,0,0,0,2.4h7.913a1.2,1.2,0,1,0,0-2.4Z" transform="translate(-131.901 -158.418)"/><path class="a" d="M158.982,220h-7.913a1.2,1.2,0,1,0,0,2.4h7.913a1.2,1.2,0,1,0,0-2.4Z" transform="translate(-131.901 -193.622)"/><path class="b" d="M158.982,260h-7.913a1.2,1.2,0,1,0,0,2.4h7.913a1.2,1.2,0,1,0,0-2.4Z" transform="translate(-131.901 -228.826)"/><path class="b" d="M51.386,12.05A13.58,13.58,0,0,0,37.888,0,13.178,13.178,0,0,0,27.782,4.722,10.677,10.677,0,0,0,21.1,2.4a11.193,11.193,0,0,0-11.086,9.65A11.1,11.1,0,0,0,0,22.781,10.81,10.81,0,0,0,9.592,33.505v8.46a1.2,1.2,0,0,0,1.2,1.2h2.758a1.2,1.2,0,0,0,0-2.4H11.99V21.582h2.4V37.169a1.2,1.2,0,0,0,1.2,1.2h10.3a3.6,3.6,0,0,1,3.391,2.4H24.34a1.2,1.2,0,0,0,0,2.4H27.1V51.8H23.5a1.2,1.2,0,0,0-.848,2.047l7.194,7.194a1.2,1.2,0,0,0,1.7,0l7.194-7.194a1.2,1.2,0,0,0-.848-2.047h-3.6V43.164H50.582a1.2,1.2,0,0,0,1.2-1.2v-8.46a10.812,10.812,0,0,0,9.608-10.724A11.1,11.1,0,0,0,51.386,12.05Zm-25.5,23.92h-9.1V19.184H25.9a3.6,3.6,0,0,1,3.6,3.6v14.4A5.964,5.964,0,0,0,25.883,35.97Zm9.111,18.225-4.3,4.3-4.3-4.3h1.9A1.2,1.2,0,0,0,29.5,53V43.164h2.4V53a1.2,1.2,0,0,0,1.2,1.2ZM49.4,40.766H32.085a3.617,3.617,0,0,1,3.39-2.4H45.786a1.2,1.2,0,0,0,1.2-1.2V21.582H49.4Zm-17.505-3.6V22.781a3.6,3.6,0,0,1,3.6-3.6H44.6V35.97H35.475A5.966,5.966,0,0,0,31.893,37.17Zm19.888-6.082v-10.7a1.2,1.2,0,0,0-1.2-1.2h-3.6v-1.2a1.2,1.2,0,0,0-1.2-1.2H35.49a5.989,5.989,0,0,0-4.8,2.4,5.989,5.989,0,0,0-4.8-2.4H15.587a1.2,1.2,0,0,0-1.2,1.2v1.2h-3.6a1.2,1.2,0,0,0-1.2,1.2v10.7A8.408,8.408,0,0,1,2.4,22.781a8.694,8.694,0,0,1,8.753-8.393,1.2,1.2,0,0,0,1.2-1.2A8.693,8.693,0,0,1,21.1,4.8a8.323,8.323,0,0,1,5.992,2.529,1.2,1.2,0,0,0,1.85-.167A10.793,10.793,0,0,1,37.888,2.4,11.122,11.122,0,0,1,49.039,13.189a1.2,1.2,0,0,0,1.2,1.2,8.693,8.693,0,0,1,8.753,8.393A8.41,8.41,0,0,1,51.781,31.087Z"/><ellipse class="b" cx="1.5" cy="1" rx="1.5" ry="1" transform="translate(17.389 41)"/></svg>