<svg xmlns="http://www.w3.org/2000/svg" width="37.675" height="37.675" viewBox="0 0 37.675 37.675"><defs><style>.a{fill:#707070;}.b{fill:#06958c;}</style></defs><g transform="translate(-109.662 0)"><path class="a" d="M37.123,3.657h-17.2V.552A.552.552,0,0,0,19.372,0H15.929a.552.552,0,0,0-.552.552v3.1H8.623a.552.552,0,0,0-.552.552V8.953a4.2,4.2,0,0,0-1,.743V8.074c0-1-1-1.822-2.476-2.095v-1.2a.552.552,0,0,0-.552-.552A4.224,4.224,0,0,0,1.318,5.26,3.764,3.764,0,0,0,0,8.142v2.312a.552.552,0,0,0,1.1,0V8.142A2.866,2.866,0,0,1,3.492,5.38V26.551a4.22,4.22,0,0,0-2.386,1.065c0-.752,0-14.229,0-14.229a.552.552,0,0,0-1.1,0V30.529a.55.55,0,0,0,.008.091c.054,1.619,1.552,2.829,3.528,2.829a4.223,4.223,0,0,0,2.443-.721v2.029c0,1.865,1.865,2.919,3.536,2.919,1.773,0,3.535-1,3.535-2.92v-7.8H28.766L17.314,36.7a.556.556,0,0,0,.358.972h16.62a.552.552,0,0,0,.552-.552V34.446a.552.552,0,0,0-1.1,0v2.125H19.171l14.569-12.4V31.4a.552.552,0,0,0,1.1,0V26.953h2.28a.552.552,0,0,0,.552-.552V4.208A.552.552,0,0,0,37.123,3.657Zm-.552,1.1V18.146H23.646V4.76ZM18.82,1.1V15.228H16.481v-1.41h.4a.552.552,0,0,0,0-1.1h-.4V11.268H17.4a.552.552,0,0,0,0-1.1h-.916V8.718h.4a.552.552,0,1,0,0-1.1h-.4V6.168H17.4a.552.552,0,0,0,0-1.1h-.916V3.618h.4a.552.552,0,0,0,0-1.1h-.4V1.1Zm-10.1,8.74a2.908,2.908,0,0,1,.75-.237l0,21.171a4.214,4.214,0,0,0-2.386,1.065c0-.741,0-1.315,0-1.331l0-18.144A2.858,2.858,0,0,1,8.717,9.844Zm3.229,23.3-.056-.032a5,5,0,0,0-2.332-.547V31.88A3.226,3.226,0,0,1,10,31.846a.552.552,0,0,0,.569-.552l0-19.956c.732.181,1.372.552,1.372.962ZM5.968,8.074V28.911a4.914,4.914,0,0,0-2.388-.572v-.686a3.2,3.2,0,0,1,.446-.034.552.552,0,0,0,.569-.552V7.108C5.436,7.309,5.968,7.727,5.968,8.074Zm0,22.716c0,.842-1.114,1.554-2.432,1.554-1.383,0-2.426-.78-2.426-1.815a2.673,2.673,0,0,1,1.367-2.542v.928a.552.552,0,0,0,.6.549,4.065,4.065,0,0,1,2.3.39.934.934,0,0,1,.588.936Zm3.547,5.781h0c-1.383,0-2.426-.78-2.426-1.815a2.673,2.673,0,0,1,1.366-2.542v.928a.552.552,0,0,0,.6.549c.936-.088,2.933.062,2.888,1.326,0,.842-1.113,1.554-2.432,1.555ZM13.046,12.3c0-.994-1-1.82-2.476-2.094v-1.2a.552.552,0,0,0-.552-.552,4,4,0,0,0-.843.092V4.76h6.2V15.78a.552.552,0,0,0,.552.552h3.443a.552.552,0,0,0,.552-.552V4.76h2.618V25.849H13.049ZM34.523,22.472a.552.552,0,0,0-.589.081l-3.872,3.3H23.646v-6.6H36.572v6.6H34.844V22.973a.552.552,0,0,0-.32-.5Z" transform="translate(109.662)"/><path class="b" d="M350.289,103.478h4.141a.453.453,0,0,0,.318-.132l2.07-2.069a.449.449,0,0,0,.132-.318V96.824a.456.456,0,0,0-.449-.449h-4.141a.449.449,0,0,0-.318.132l-2.07,2.068a.455.455,0,0,0-.132.318v4.136a.449.449,0,0,0,.449.449Zm.449-4.136h3.242v3.237h-3.242Zm4.141,2.6V99.08l1.172-1.171v2.865Zm-2.334-4.67h2.87l-1.171,1.17h-2.869Z" transform="translate(-213.146 -88.486)"/><path class="b" d="M363.046,314.087h-1.823c-.711,0-.711,1.22,0,1.22h1.823C363.758,315.307,363.758,314.087,363.046,314.087Z" transform="translate(-235.08 -292.479)"/><path class="b" d="M366.058,284.242H361.24c-.734,0-.734,1.266,0,1.266h4.818C366.791,285.508,366.791,284.242,366.058,284.242Z" transform="translate(-236.504 -264.534)"/><path class="b" d="M338.2,383.646l-6.418,5.4a.528.528,0,0,0,.345.926h6.418a.528.528,0,0,0,.532-.525v-5.4A.538.538,0,0,0,338.2,383.646Zm-.187,5.277h-4.442l4.442-3.739Z" transform="translate(-197.314 -355.218)"/></g></svg>