<svg xmlns="http://www.w3.org/2000/svg" width="164.618" height="45.802" viewBox="0 0 164.618 45.802"><defs><style>.a{fill:#32a6ce;}.b{fill:#1a80ad;}.c{fill:#21789e;}.d{fill:#1a5b80;}.e{fill:#06435e;}.f{fill:#2273aa;}</style></defs><path class="a" d="M350.96,200.361c-4.041,0-7.274,1.078-9.969,1.617l-.808,6.2a35.29,35.29,0,0,1,8.352-1.886c3.233,0,5.119.539,4.58,3.5-9.7,0-16.165,1.886-17.513,8.352-1.886,10.777,9.969,11.046,14.549,6.2l-.539,2.964h8.622l3.772-17.513C363.354,202.516,356.888,200.091,350.96,200.361Zm.539,18.051c-.539,2.155-2.425,2.964-4.58,3.233-1.886,0-3.5-1.078-2.425-3.233,1.078-1.617,3.5-1.617,5.388-1.617h2.155C351.769,216.526,351.5,217.6,351.5,218.412Z" transform="translate(-222.445 -192.278)"/><path class="b" d="M340.183,208.744a35.291,35.291,0,0,1,8.352-1.886c3.233,0,5.119.539,4.58,3.5-9.7,0-16.165,1.886-17.513,8.352-1.886,10.777,9.969,11.046,14.549,6.2l-.539,2.964h8.622l3.772-17.513c1.617-7.274-5.119-9.16-11.046-9.16m.539,17.782c-.539,2.155-2.425,2.964-4.58,3.233-1.886,0-3.5-1.078-2.425-3.233,1.078-1.617,3.5-1.617,5.388-1.617h2.155C351.769,217.1,351.5,218.174,351.5,218.982Z" transform="translate(-222.445 -192.848)"/><path class="a" d="M422.205,176.4,415.2,211.425h8.622L431.1,176.4Z" transform="translate(-275.369 -176.4)"/><path class="b" d="M428.4,176.4l-13.2,35.025h8.622L431.1,176.4H428.4Z" transform="translate(-275.369 -176.4)"/><path class="a" d="M271.7,176.4h-15.9L248.8,211.425h9.43l2.425-10.777h6.736c6.466,0,11.855-3.772,13.2-10.508C281.939,182.327,276.281,176.4,271.7,176.4Zm-.269,12.124a5.5,5.5,0,0,1-5.388,4.041h-4.311l1.886-8.083h4.58C270.623,184.483,271.97,186.1,271.432,188.524Z" transform="translate(-165.009 -176.4)"/><path class="b" d="M271.17,176.4H260.393L248,211.425h9.43l2.425-10.777h6.736c6.466,0,11.855-3.772,13.2-10.508C281.409,182.327,275.751,176.4,271.17,176.4Zm-.269,12.124a5.5,5.5,0,0,1-5.388,4.041H261.2l1.886-8.083h4.58C270.093,184.483,271.44,186.1,270.9,188.524Z" transform="translate(-164.478 -176.4)"/><path class="c" d="M102.413,200.361a40.045,40.045,0,0,0-9.7,1.617l-.808,6.2a32.22,32.22,0,0,1,8.352-1.886c3.233,0,5.119.539,4.58,3.5-9.43,0-15.9,1.886-17.243,8.352-1.886,10.777,9.7,11.046,14.279,6.2l-.539,2.964h8.622l3.772-17.513C115.076,202.516,108.341,200.091,102.413,200.361Zm.808,18.051c-.539,2.155-2.425,2.964-4.58,3.233-1.886,0-3.5-1.078-2.155-3.233,1.078-1.617,3.5-1.617,5.119-1.617h2.155C103.491,216.526,103.222,217.6,103.222,218.412Z" transform="translate(-57.958 -192.278)"/><path class="d" d="M92.706,208.744a32.221,32.221,0,0,1,8.352-1.886c3.233,0,5.119.539,4.58,3.5-9.43,0-15.9,1.886-17.243,8.352-1.886,10.777,9.7,11.046,14.279,6.2l-.808,2.964h8.622l3.772-17.513c1.617-7.274-5.119-9.16-11.046-9.16m.539,17.782c-.539,2.155-2.425,2.964-4.58,3.233-1.886,0-3.5-1.078-2.155-3.233,1.078-1.617,3.5-1.617,5.119-1.617h2.155C104.022,217.1,103.752,218.174,103.752,218.982Z" transform="translate(-58.489 -192.848)"/><path class="c" d="M170.694,200.4h8.622l1.347,15.088,8.622-15.088h8.891L177.7,238.119H168l6.2-11.316Z" transform="translate(-111.421 -192.317)"/><path class="d" d="M179.316,200.939l1.347,14.818,8.622-15.357h8.891L177.7,238.119H168l6.2-11.046" transform="translate(-111.421 -192.317)"/><path class="c" d="M23.171,176.4H7.005L0,211.425H9.43l2.425-10.777H18.59c6.466,0,11.855-3.772,13.2-10.508C33.409,182.327,27.751,176.4,23.171,176.4ZM22.9,188.524a5.5,5.5,0,0,1-5.388,4.041H13.2l1.886-8.083h4.58C22.093,184.483,23.44,186.1,22.9,188.524Z" transform="translate(0 -176.4)"/><path class="d" d="M23.171,176.4H15.9L0,211.425H9.43l2.425-10.777H18.59c6.466,0,11.855-3.772,13.2-10.508C33.409,182.327,27.751,176.4,23.171,176.4ZM22.9,188.524a5.5,5.5,0,0,1-5.388,4.041H13.2l1.886-8.083h4.58C22.093,184.483,23.44,186.1,22.9,188.524Z" transform="translate(0 -176.4)"/><g transform="translate(0.808 8.083)"><path class="e" d="M100.8,228.4c-7.274.539-12.124,2.694-13.2,8.083-1.886,10.777,9.7,11.046,14.279,6.2l-.539,3.233h8.622l1.347-6.466Zm2.425,8.622c-.539,2.155-2.425,2.964-4.58,3.233-1.886,0-3.5-1.078-2.155-3.233,1.078-1.617,3.5-1.617,5.119-1.617h2.155C103.491,235.136,103.222,236.213,103.222,237.022Z" transform="translate(-58.767 -218.97)"/><path class="e" d="M206.139,215.218l-.539.808,5.658,5.388L223.113,200.4h-8.891Z" transform="translate(-137.166 -200.4)"/><path class="e" d="M11.022,259.177,13.446,248.4,2.4,259.177Z" transform="translate(-2.4 -232.235)"/></g><g transform="translate(84.33 17.513)"><path class="f" d="M259.022,258.116l2.425-11.316v.269L250.4,258.116Z" transform="translate(-250.4 -240.603)"/><path class="f" d="M349.6,228.4c-7.274.539-12.124,2.694-13.2,8.083-1.886,10.777,9.969,11.046,14.549,6.2l-.808,3.233h8.622l1.347-6.466Zm2.425,8.622c-.539,2.155-2.425,2.964-4.58,3.233-1.886,0-3.5-1.078-2.425-3.233,1.078-1.617,3.5-1.617,5.388-1.617h2.155C352.3,235.136,352.03,236.213,352.03,237.022Z" transform="translate(-307.305 -228.4)"/><path class="f" d="M421.4,233.2l-6.2,15.9h8.622l2.425-10.777Z" transform="translate(-359.699 -231.583)"/></g><g transform="translate(156.266 1.078)"><path class="a" d="M465.347,184.711v-3.772H464V180.4h3.5v.539h-1.347v3.772Z" transform="translate(-464 -180.131)"/><path class="a" d="M476,184.18v-4.311h.808l1.078,2.964a.941.941,0,0,0,.269.539c0-.269,0-.269.269-.808L479.5,179.6h.808v4.311h-.539v-3.772l-1.347,3.772h-.808l-1.347-3.772v3.772H476Z" transform="translate(-471.959 -179.6)"/></g></svg>