<svg xmlns="http://www.w3.org/2000/svg" width="48.962" height="48.962" viewBox="0 0 48.962 48.962"><defs><style>.a{fill:#06958c;}.b{fill:#707070;}</style></defs><path class="a" d="M24.481,0A24.481,24.481,0,1,0,48.962,24.481,24.481,24.481,0,0,0,24.481,0Zm0,47.33A22.849,22.849,0,1,1,47.33,24.481,22.849,22.849,0,0,1,24.481,47.33Zm0,0"/><path class="b" d="M142.969,135.225,136.043,134a.816.816,0,0,0-.865.426l-1.679,3.218a13.073,13.073,0,0,1-6.661-6.665l3.215-1.679a.815.815,0,0,0,.426-.865l-1.224-6.926a.816.816,0,0,0-.347-.535A5.712,5.712,0,0,0,120,125.712a18.79,18.79,0,0,0,18.769,18.769,5.712,5.712,0,0,0,4.733-8.909A.814.814,0,0,0,142.969,135.225Zm-4.2,7.623a17.157,17.157,0,0,1-17.137-17.137,4.08,4.08,0,0,1,6.08-3.557l1.055,5.978-3.346,1.746a.817.817,0,0,0-.386,1.013,14.71,14.71,0,0,0,8.552,8.556.816.816,0,0,0,1.013-.386l1.747-3.346,5.978,1.056a4.08,4.08,0,0,1-3.557,6.077Zm0,0" transform="translate(-107.76 -107.759)"/></svg>