<svg xmlns="http://www.w3.org/2000/svg" width="41.587" height="41.587" viewBox="0 0 41.587 41.587"><defs><style>.a{fill:#d3a06c;}.b{fill:#b27946;}.c{fill:#656d78;}.d{fill:#4fc1e9;}.e{fill:#ffeaa7;}.f{fill:#e6e9ed;}.g{fill:#f0d0b4;}</style></defs><g transform="translate(0.671 0.671)"><g transform="translate(28.172 28.172)"><path class="a" d="M54.732,45.342v8.049a1.345,1.345,0,0,1-1.342,1.342H45.342A1.345,1.345,0,0,1,44,53.391V45.342A1.345,1.345,0,0,1,45.342,44h2.683v2.683h2.683V44h2.683A1.345,1.345,0,0,1,54.732,45.342Z" transform="translate(-44 -44)"/></g><g transform="translate(29.513 17.44)"><path class="a" d="M56.732,37.391a1.345,1.345,0,0,1-1.342,1.342H47.342A1.345,1.345,0,0,1,46,37.391V29.342A1.345,1.345,0,0,1,47.342,28h2.683v2.683h2.683V28h2.683a1.345,1.345,0,0,1,1.342,1.342Z" transform="translate(-46 -28)"/></g><g transform="translate(18.781 17.44)"><path class="a" d="M40.732,29.342v8.049a1.345,1.345,0,0,1-1.342,1.342H36.708V34.708a1.345,1.345,0,0,0-1.342-1.342H30V29.342A1.345,1.345,0,0,1,31.342,28h2.683v2.683h2.683V28h2.683A1.345,1.345,0,0,1,40.732,29.342Z" transform="translate(-30 -28)"/></g><g transform="translate(20.123)"><path class="a" d="M50.781,3.342V18.1A1.345,1.345,0,0,1,49.44,19.44h-16.1A1.345,1.345,0,0,1,32,18.1V3.342A1.345,1.345,0,0,1,33.342,2h5.366V6.025h5.366V2H49.44A1.345,1.345,0,0,1,50.781,3.342Z" transform="translate(-32 -2)"/></g><g transform="translate(26.83)"><path class="b" d="M42,2h5.366V6.025H42Z" transform="translate(-42 -2)"/></g><g transform="translate(22.806 17.44)"><path class="b" d="M36,28h2.683v2.683H36Z" transform="translate(-36 -28)"/></g><g transform="translate(33.538 17.44)"><path class="b" d="M52,28h2.683v2.683H52Z" transform="translate(-52 -28)"/></g><g transform="translate(32.196 28.172)"><path class="b" d="M50,44h2.683v2.683H50Z" transform="translate(-50 -44)"/></g><g transform="translate(0 5.366)"><path class="c" d="M13.738,10a3.018,3.018,0,0,1,0,6.037H9.378a2.015,2.015,0,0,0-2.012,2.012v1.342a1.351,1.351,0,0,0-1.342,1.342v.114a1.346,1.346,0,0,0,.4.952l.946.946V26.1l-.785-.389A8.293,8.293,0,0,1,10.291,10Z" transform="translate(-2 -10)"/></g><g transform="translate(0 30.325)"><path class="d" d="M14.074,53.488V57.13H2V47.21a7,7,0,0,0,2.435,5.306l.3.248a6.785,6.785,0,0,0,.946.684,6.964,6.964,0,0,0,3.6,1h.9a7.01,7.01,0,0,0,2.354-.409Z" transform="translate(-2 -47.21)"/></g><g transform="translate(0 23.476)"><path class="d" d="M8.708,47.061,5.682,50.086a6.784,6.784,0,0,1-.946-.684l-.3-.248A6.986,6.986,0,0,1,6.528,37.315L7.366,37a13.951,13.951,0,0,1,4.025,3.662A13.634,13.634,0,0,1,12.578,42.6a13.824,13.824,0,0,1,1.12,3.032v.007Z" transform="translate(-2 -37)"/></g><g transform="translate(16.098 24.147)"><path class="e" d="M27.57,42.393a1.909,1.909,0,0,0-1.2,1.2L26,44.708V39.342h8.049A1.351,1.351,0,0,0,35.391,38V52.757A1.345,1.345,0,0,1,34.049,54.1H26V49.014l5.312-1.9a1.906,1.906,0,0,0-.51-3.743h-.778l-.51-.51A1.9,1.9,0,0,0,27.57,42.393Z" transform="translate(-26 -38)"/></g><g transform="translate(17.44 22.806)"><path class="f" d="M34.708,36a1.345,1.345,0,0,1,1.342,1.342,1.351,1.351,0,0,1-1.342,1.342H28V36h6.708Z" transform="translate(-28 -36)"/></g><g transform="translate(10.578 27.501)"><path class="g" d="M23.29,43v3.354l-4.4,1.254a13.824,13.824,0,0,0-1.12-3.032Z" transform="translate(-17.77 -43)"/></g><g transform="translate(3.682 28.444)"><path class="g" d="M26.057,46.032a1.909,1.909,0,0,1-.838,3.186l-5.312,1.9-4.025,1.442-1.543.55a7.01,7.01,0,0,1-2.354.409h-.9a6.964,6.964,0,0,1-3.6-1L10.515,49.5l4.99-1.422v-.007l4.4-1.254.369-1.113a1.9,1.9,0,0,1,3.146-.738l.51.51h.778a1.912,1.912,0,0,1,1.348.557Z" transform="translate(-7.49 -44.405)"/></g><g transform="translate(4.025 11.403)"><path class="g" d="M13.366,29.061v5.675a13.951,13.951,0,0,0-4.025-3.662V25.708L8.4,24.762a1.346,1.346,0,0,1-.4-.952V23.7a1.351,1.351,0,0,1,1.342-1.342V21.012A2.015,2.015,0,0,1,11.354,19h3.5a2.019,2.019,0,0,1,1.8,1.1,11.316,11.316,0,0,1,1.409,4.266l-2.012.671v1.737a2.29,2.29,0,0,1-2.287,2.287Z" transform="translate(-8 -19)"/></g></g><g transform="translate(0 0)"><path d="M41.1,18.517a2,2,0,0,0,.148-.749V3.012A2.015,2.015,0,0,0,39.233,1h-16.1a2.015,2.015,0,0,0-2.012,2.012V17.769a2,2,0,0,0,.148.749,2.009,2.009,0,0,0-1.489,1.934v3.354H18.44v2.683H17.1v2.177l-4.528,1.294a14.618,14.618,0,0,0-.838-1.335V23.78a2.932,2.932,0,0,0,2.683-2.935V19.594l2.012-.671V18.44a11.723,11.723,0,0,0-1.484-4.574,2.726,2.726,0,0,0-.228-.364,3.687,3.687,0,0,0-1.306-7.135H9.962A8.962,8.962,0,0,0,5.954,23.344l.413.206v1.132l-.4.15a7.688,7.688,0,0,0-4.96,7.022H1V42.587H14.415V38.744l2.683-.961v4.8h8.72a2.015,2.015,0,0,0,2.012-2.012V30.513H29.3a1.99,1.99,0,0,0-.123.671v8.049a2.015,2.015,0,0,0,2.012,2.012h8.049a2.015,2.015,0,0,0,2.012-2.012V31.184a2,2,0,0,0-.148-.749A2.009,2.009,0,0,0,42.587,28.5V20.452A2.009,2.009,0,0,0,41.1,18.517ZM29.172,2.342H33.2V5.025H29.172Zm-6.708.671a.672.672,0,0,1,.671-.671h4.7V6.366h6.708V2.342h4.7a.672.672,0,0,1,.671.671V17.769a.672.672,0,0,1-.671.671h-16.1a.672.672,0,0,1-.671-.671ZM35.879,19.781h1.342v1.342H35.879Zm-10.732,0h1.342v1.342H25.147Zm-5.366,5.366h6.037a.671.671,0,1,1,0,1.342H19.781ZM8.73,35.806l9.564-2.733.483-1.447a1.227,1.227,0,0,1,2.031-.48l.708.709h1.054a1.238,1.238,0,0,1,1.236,1.237,1.259,1.259,0,0,1-.948,1.2l-10.881,3.9a6.314,6.314,0,0,1-2.128.369h-.9a6.311,6.311,0,0,1-2.467-.509ZM17.1,30.061V32.02l-3.277.936a14.379,14.379,0,0,0-.641-1.775Zm-2.05-12.092-1.975.659v2.218a1.62,1.62,0,0,1-1.619,1.62H9.049v1.342h1.342V27a14.389,14.389,0,0,0-2.683-2.213V19.5L6.563,18.358a.668.668,0,0,1-.2-.475v-.115a.672.672,0,0,1,.671-.671h.671V15.086a1.343,1.343,0,0,1,1.342-1.342h3.5a1.341,1.341,0,0,1,1.2.733A12.38,12.38,0,0,1,15.048,17.969ZM2.342,15.328a7.629,7.629,0,0,1,7.62-7.62h3.447a2.348,2.348,0,0,1,0,4.7H9.049a2.686,2.686,0,0,0-2.683,2.683v.785a2.016,2.016,0,0,0-1.342,1.9v.115a2,2,0,0,0,.59,1.423l.752.752v1.974a7.569,7.569,0,0,1-4.025-6.7ZM6.436,26.089,6.95,25.9a13.212,13.212,0,0,1,5.583,7.428L8.812,34.387l-.264-.792a5.682,5.682,0,0,0-4.031-3.732l-.325,1.3A4.349,4.349,0,0,1,7.275,34.02l.336,1.008L5.265,37.374c-.145-.1-.286-.214-.423-.331l-.3-.254a6.311,6.311,0,0,1,1.891-10.7Zm6.637,15.156H2.342V36.307a7.641,7.641,0,0,0,1.331,1.5l.3.254A7.656,7.656,0,0,0,8.948,39.9h.9a7.638,7.638,0,0,0,2.58-.448l.645-.231Zm12.744,0H18.44V37.3l4.825-1.729a2.578,2.578,0,0,0-.695-5.06h-.5l-.316-.316a2.5,2.5,0,0,0-3.316-.25V27.83h7.378a1.99,1.99,0,0,0,.671-.123V40.575A.671.671,0,0,1,25.818,41.245ZM27.83,25.818a2.015,2.015,0,0,0-2.012-2.012h-4.7V20.452a.672.672,0,0,1,.671-.671h2.012v2.683H27.83V19.781h2.012a.672.672,0,0,1,.671.671V28.5a.671.671,0,0,1-.671.671H27.83ZM39.9,39.233a.671.671,0,0,1-.671.671H31.184a.671.671,0,0,1-.671-.671V31.184a.671.671,0,0,1,.671-.671H33.2V33.2h4.025V30.513h2.012a.671.671,0,0,1,.671.671Zm-5.366-8.72h1.342v1.342H34.538ZM41.245,28.5a.671.671,0,0,1-.671.671H32.526a.671.671,0,0,1-.671-.671V20.452a.672.672,0,0,1,.671-.671h2.012v2.683h4.025V19.781h2.012a.672.672,0,0,1,.671.671Z" transform="translate(-1 -1)"/><path d="M51,23h1.342v1.342H51Z" transform="translate(-17.462 -8.243)"/><path d="M47,23h1.342v1.342H47Z" transform="translate(-16.145 -8.243)"/><path d="M55,23h1.342v1.342H55Z" transform="translate(-18.779 -8.243)"/><path d="M47,19h6.708v1.342H47Z" transform="translate(-16.145 -6.926)"/></g></svg>