<svg xmlns="http://www.w3.org/2000/svg" width="44.813" height="18.672" viewBox="0 0 44.813 18.672"><defs><style>.a{fill:#707070;}.b{fill:#06958c;}</style></defs><g transform="translate(0 0)"><path class="a" d="M44.693,162.764,41.6,152.1a3.739,3.739,0,0,0-3.609-2.772H6.535a.933.933,0,0,0-.728.349c-.035.044-5.423,9.908-5.423,9.908a3.168,3.168,0,0,0,2.781,4.681H8.691l.18.81a3.712,3.712,0,0,0,3.645,2.925h.031l28.856-.933a3.41,3.41,0,0,0,3.29-4.308ZM3.166,162.4a1.3,1.3,0,0,1-1.3-1.3,1.316,1.316,0,0,1,.157-.622L6.163,152.9,8.276,162.4Zm38.207,2.8-28.869.933a1.854,1.854,0,0,1-1.809-1.462L7.7,151.2h30.3a1.875,1.875,0,0,1,1.809,1.4L42.9,163.269a1.47,1.47,0,0,1,.051.393A1.553,1.553,0,0,1,41.373,165.205Z" transform="translate(0 -149.333)"/><path class="a" d="M191.434,225.979l-18.514.579a.933.933,0,0,0,.029,1.866h.029l18.514-.58a.933.933,0,0,0,.9-.962A.9.9,0,0,0,191.434,225.979Z" transform="translate(-156.96 -219.267)"/><path class="b" d="M217.415,270.321l-12.994.4a.934.934,0,0,0,.029,1.867h.029l12.994-.4a.934.934,0,0,0,.9-.963A.915.915,0,0,0,217.415,270.321Z" transform="translate(-185.703 -259.73)"/></g></svg>