<svg xmlns="http://www.w3.org/2000/svg" width="30.78" height="36.133" viewBox="0 0 30.78 36.133"><defs><style>.a{fill:#707070;stroke:#707070;stroke-width:0.5px;}.b{fill:#06958c;}</style></defs><g transform="translate(-38.21 0.293)"><g transform="translate(38.479 0)"><g transform="translate(0)"><path class="a" d="M68.542,30.031l-2.212-3.74a.532.532,0,1,0-.916.541l2.21,3.738a.22.22,0,0,1-.224.329l-3.369-.529a1.289,1.289,0,0,0-1.4.819l-1.193,3.195a.22.22,0,0,1-.4.032L57.7,28.776a2.091,2.091,0,0,0,2.18-1.127l1.971-3.857a1.037,1.037,0,0,1,.454-.454l.8-.408,1.112,1.881a.532.532,0,0,0,.916-.542l-1.079-1.824,2.11-1.078a2.1,2.1,0,0,0,1.046-2.525l-1.334-4.121a1.037,1.037,0,0,1,0-.643l1.334-4.121a2.1,2.1,0,0,0-1.046-2.525L62.309,5.461a1.037,1.037,0,0,1-.454-.454L59.884,1.15A2.1,2.1,0,0,0,57.359.1L53.238,1.438a1.037,1.037,0,0,1-.643,0L48.475.1A2.1,2.1,0,0,0,45.949,1.15L43.978,5.007a1.037,1.037,0,0,1-.454.454L39.667,7.432a2.1,2.1,0,0,0-1.046,2.525l1.334,4.121a1.036,1.036,0,0,1,0,.643l-1.334,4.121a2.1,2.1,0,0,0,1.046,2.525l3.16,1.614-4.17,7.052a1.284,1.284,0,0,0,1.308,1.916l3.369-.529a.221.221,0,0,1,.24.14l1.193,3.195a1.273,1.273,0,0,0,1.093.83q.057,0,.114,0a1.27,1.27,0,0,0,1.1-.634l4.248-7.184,1.27-.411a1.038,1.038,0,0,1,.643,0l2.961.959,3.923,6.635a1.272,1.272,0,0,0,1.105.636c.038,0,.075,0,.113,0a1.273,1.273,0,0,0,1.093-.83l1.193-3.195a.221.221,0,0,1,.24-.14l3.369.529a1.284,1.284,0,0,0,1.306-1.919ZM53.566,26.349a2.094,2.094,0,0,0-1.3,0l-4.121,1.334a1.039,1.039,0,0,1-1.251-.518l-.522-1.021a.532.532,0,0,0-.947.484l.522,1.021a2.1,2.1,0,0,0,2.525,1.046l1.322-.428-3.637,6.15a.22.22,0,0,1-.4-.034L44.57,31.189a1.288,1.288,0,0,0-1.4-.819L39.8,30.9a.22.22,0,0,1-.226-.326L43.756,23.5a1.039,1.039,0,0,1,.222.292l.33.646a.532.532,0,1,0,.947-.484l-.33-.646a2.093,2.093,0,0,0-.918-.918L40.151,20.42a1.039,1.039,0,0,1-.518-1.251l1.334-4.121a2.093,2.093,0,0,0,0-1.3L39.633,9.63a1.039,1.039,0,0,1,.518-1.25l3.857-1.971a2.1,2.1,0,0,0,.918-.918L46.9,1.634a1.039,1.039,0,0,1,1.251-.518L52.268,2.45a2.094,2.094,0,0,0,1.3,0l4.121-1.334a1.039,1.039,0,0,1,1.251.518l1.97,3.857a2.094,2.094,0,0,0,.918.918l3.857,1.971A1.039,1.039,0,0,1,66.2,9.63L64.866,13.75a2.1,2.1,0,0,0,0,1.3L66.2,19.169a1.039,1.039,0,0,1-.518,1.25l-2.46,1.257a.527.527,0,0,0-.31.158l-1.087.555a2.094,2.094,0,0,0-.918.918l-1.971,3.857a1.039,1.039,0,0,1-1.251.518Z" transform="translate(-38.479 0)"/></g></g><g transform="translate(43.915 5.451)"><path class="a" d="M113.719,62.738a.464.464,0,1,0-.443.815,7.855,7.855,0,1,1-1.81-.71.464.464,0,0,0,.229-.9,8.82,8.82,0,1,0,2.024.794Z" transform="translate(-100.693 -61.672)"/></g><g transform="translate(47.409 8.984)"><g transform="translate(0)"><path class="b" d="M181.585,139.075a1.352,1.352,0,0,0-.749-2.305l-1.9-.276a.264.264,0,0,1-.2-.144l-.849-1.721h0a1.352,1.352,0,0,0-2.424,0l-.849,1.721a.264.264,0,0,1-.2.144l-1.9.276a1.352,1.352,0,0,0-.749,2.305l1.374,1.339a.264.264,0,0,1,.076.234l-.324,1.891a1.35,1.35,0,0,0,1.961,1.425l1.7-.893a.264.264,0,0,1,.246,0l1.7.893a1.352,1.352,0,0,0,1.961-1.425l-.324-1.891a.264.264,0,0,1,.076-.234Zm-2.134.561a1.351,1.351,0,0,0-.389,1.2l.324,1.891A.264.264,0,0,1,179,143l-1.7-.893a1.352,1.352,0,0,0-1.258,0l-1.7.893a.264.264,0,0,1-.383-.278l.324-1.891a1.351,1.351,0,0,0-.389-1.2l-1.374-1.339a.264.264,0,0,1,.146-.45l1.9-.276a1.352,1.352,0,0,0,1.018-.739l.849-1.721a.264.264,0,0,1,.473,0l.849,1.721a1.352,1.352,0,0,0,1.018.739l1.9.276a.264.264,0,0,1,.146.45Z" transform="translate(-171.36 -133.875)"/></g></g></g></svg>