<svg xmlns="http://www.w3.org/2000/svg" width="34.909" height="34.909" viewBox="0 0 34.909 34.909"><defs><style>.a{fill:#707070;stroke:#707070;}.a,.b{stroke-width:0.5px;}.b{fill:#06958c;stroke:#06958c;}</style></defs><g transform="translate(0.25 0.25)"><g transform="translate(0 11.47)"><path class="a" d="M21.219,168.6h-.631a.564.564,0,0,1-.531-.37c-.07-.184-.145-.363-.226-.541a.565.565,0,0,1,.115-.64l.45-.45a1.724,1.724,0,0,0,0-2.431l-1.621-1.621a1.724,1.724,0,0,0-2.432,0l-.45.449a.568.568,0,0,1-.64.115c-.178-.081-.357-.156-.541-.229a.564.564,0,0,1-.372-.532v-.631a1.72,1.72,0,0,0-1.72-1.72H10.323a1.72,1.72,0,0,0-1.72,1.72v.631a.564.564,0,0,1-.37.531c-.184.07-.363.145-.541.226a.567.567,0,0,1-.64-.115l-.45-.45a1.725,1.725,0,0,0-2.431,0L2.549,164.17a1.724,1.724,0,0,0,0,2.432l.449.45a.565.565,0,0,1,.115.64c-.081.178-.156.357-.227.541a.564.564,0,0,1-.535.37H1.72A1.72,1.72,0,0,0,0,170.323v2.294a1.72,1.72,0,0,0,1.72,1.72h.631a.564.564,0,0,1,.531.37c.07.184.145.363.226.541a.565.565,0,0,1-.115.64l-.45.45a1.725,1.725,0,0,0,0,2.431l1.621,1.621a1.724,1.724,0,0,0,2.432,0l.45-.449a.568.568,0,0,1,.64-.115c.178.081.357.156.541.229a.564.564,0,0,1,.375.532v.631a1.72,1.72,0,0,0,1.72,1.72h2.294a1.72,1.72,0,0,0,1.72-1.72v-.631a.564.564,0,0,1,.37-.531c.184-.07.363-.145.541-.226a.567.567,0,0,1,.64.115l.45.45a1.725,1.725,0,0,0,2.431,0l1.621-1.621a1.724,1.724,0,0,0,0-2.432l-.449-.45a.565.565,0,0,1-.115-.64c.081-.178.156-.357.229-.541a.564.564,0,0,1,.532-.372h.631a1.72,1.72,0,0,0,1.72-1.72v-2.294A1.72,1.72,0,0,0,21.219,168.6Zm.573,4.014a.574.574,0,0,1-.573.573h-.631a1.726,1.726,0,0,0-1.606,1.109q-.091.241-.2.474a1.726,1.726,0,0,0,.344,1.925l.448.449a.573.573,0,0,1,0,.811h0l-1.621,1.621a.573.573,0,0,1-.811,0l-.45-.449a1.724,1.724,0,0,0-1.925-.344c-.155.071-.314.137-.473.2a1.726,1.726,0,0,0-1.109,1.6v.631a.574.574,0,0,1-.573.573H10.323a.574.574,0,0,1-.573-.573v-.631a1.726,1.726,0,0,0-1.109-1.606q-.241-.091-.474-.2a1.726,1.726,0,0,0-1.925.344l-.449.448a.573.573,0,0,1-.811,0h0L3.36,177.959a.574.574,0,0,1,0-.811l.449-.45a1.726,1.726,0,0,0,.344-1.925c-.071-.155-.136-.314-.2-.473a1.726,1.726,0,0,0-1.6-1.11H1.72a.574.574,0,0,1-.573-.573v-2.294a.574.574,0,0,1,.573-.573h.631a1.726,1.726,0,0,0,1.606-1.109q.091-.241.2-.474a1.726,1.726,0,0,0-.344-1.925l-.451-.449a.573.573,0,0,1,0-.811h0L4.98,163.36a.573.573,0,0,1,.811,0l.45.449a1.724,1.724,0,0,0,1.925.344c.155-.071.314-.137.473-.2a1.726,1.726,0,0,0,1.111-1.6v-.631a.574.574,0,0,1,.573-.573h2.294a.574.574,0,0,1,.573.573v.631a1.726,1.726,0,0,0,1.109,1.606q.241.091.474.2a1.724,1.724,0,0,0,1.925-.344l.449-.448a.577.577,0,0,1,.811,0l1.621,1.621a.574.574,0,0,1,0,.811l-.449.45a1.726,1.726,0,0,0-.344,1.925c.071.155.136.314.2.473a1.726,1.726,0,0,0,1.6,1.109h.631a.574.574,0,0,1,.573.573v2.294Z" transform="translate(0 -160)"/></g><g transform="translate(6.305 17.778)"><path class="b" d="M98.273,252.932c-.006-.138-.015-.275-.032-.411s-.04-.292-.071-.435c-.02-.093-.046-.186-.072-.279q-.048-.177-.108-.349c-.028-.08-.057-.159-.087-.237a5.1,5.1,0,0,0-.253-.537c-.007-.013-.012-.028-.019-.041a5.088,5.088,0,0,0-.516-.752c-.017-.021-.036-.04-.053-.06-.079-.093-.161-.184-.246-.271-.045-.046-.092-.09-.139-.135s-.115-.106-.172-.157-.141-.119-.213-.176l-.094-.07A5.125,5.125,0,0,0,93.123,248c-.057,0-.115.009-.172.011-.122,0-.245.01-.368.023-.065.007-.13.014-.195.023a5.258,5.258,0,0,0-.556.1,5.164,5.164,0,0,0,0,10,.132.132,0,0,1,.029.005,5.464,5.464,0,0,0,.6.115c.134.017.267.02.4.026.089,0,.172.018.266.018.163,0,.333-.011.506-.028a.557.557,0,0,0,.057-.007c.139-.015.28-.036.424-.065.057-.011.111-.025.166-.038.1-.024.2-.048.3-.079.08-.024.158-.052.237-.08s.16-.057.241-.088.15-.067.224-.1c.1-.044.192-.088.287-.139h0a6.789,6.789,0,0,0,1.47-1.061,1.807,1.807,0,0,0,.307-.376,6.122,6.122,0,0,0,.864-2.357c.016-.111.03-.221.039-.334s.014-.207.016-.31c0-.033,0-.064,0-.1C98.284,253.085,98.276,253.01,98.273,252.932Zm-1.143.376c0,.048,0,.1-.007.142-.01.139-.028.278-.052.417a4.023,4.023,0,0,1-2.015,2.81c-.071.037-.141.072-.211.1l-.048.023a4.141,4.141,0,0,1-1.046.317l-.077.012c-.072.01-.142.019-.212.025-.092.008-.185.013-.28.014h-.12a4.021,4.021,0,0,1-.406-.025l-.069-.008a4.241,4.241,0,0,1-.469-.088,4.014,4.014,0,0,1,0-7.777h0a4.153,4.153,0,0,1,1.008-.126,3.962,3.962,0,0,1,.49.033c.044.005.087.013.13.02.124.02.247.044.368.075l.118.03a4.049,4.049,0,0,1,.875.368c.044.026.087.053.131.08.091.057.178.115.265.18.046.034.093.067.138.1a4.144,4.144,0,0,1,.323.287c.041.041.078.087.118.13.066.072.13.145.192.223.042.053.083.108.123.164.057.083.115.169.166.256l.087.143a3.937,3.937,0,0,1,.2.42c.023.057.042.115.063.172.037.105.069.212.1.32.014.057.03.108.042.164a4.044,4.044,0,0,1,.073.47c0,.042,0,.084.006.126C97.133,253.042,97.135,253.175,97.13,253.308Z" transform="translate(-87.959 -248)"/></g><g transform="translate(6.255)"><path class="a" d="M113.695,12.043h-1.8a.56.56,0,0,1-.535-.376,11.94,11.94,0,0,0-.644-1.555.561.561,0,0,1,.11-.647L112.1,8.184a1.72,1.72,0,0,0,0-2.432l-2.438-2.434a1.72,1.72,0,0,0-2.432,0L105.953,4.6a.561.561,0,0,1-.647.111,11.915,11.915,0,0,0-1.555-.647.56.56,0,0,1-.378-.534V1.72A1.72,1.72,0,0,0,101.651,0H98.21a1.72,1.72,0,0,0-1.72,1.72v1.8a.56.56,0,0,1-.376.534,11.951,11.951,0,0,0-1.555.647.56.56,0,0,1-.647-.11L92.631,3.316a1.724,1.724,0,0,0-2.432,0L87.765,5.75a1.72,1.72,0,0,0,0,2.433l1.88,1.884a.573.573,0,0,0,.812-.81L88.576,7.374a.573.573,0,0,1,0-.811L91.01,4.129a.573.573,0,0,1,.811,0L93.1,5.408a1.7,1.7,0,0,0,1.971.323,10.85,10.85,0,0,1,1.406-.584,1.706,1.706,0,0,0,1.159-1.623V1.72a.574.574,0,0,1,.573-.573h3.441a.574.574,0,0,1,.573.573v1.8a1.705,1.705,0,0,0,1.159,1.622,10.818,10.818,0,0,1,1.406.585,1.709,1.709,0,0,0,1.97-.324l1.281-1.278a.573.573,0,0,1,.811,0l2.434,2.434a.573.573,0,0,1,0,.81l-1.279,1.281a1.707,1.707,0,0,0-.323,1.97,10.85,10.85,0,0,1,.584,1.406,1.705,1.705,0,0,0,1.623,1.159h1.8a.574.574,0,0,1,.573.573V17.2a.574.574,0,0,1-.573.573h-1.8a1.705,1.705,0,0,0-1.622,1.159,10.807,10.807,0,0,1-.585,1.406,1.707,1.707,0,0,0,.324,1.97l1.279,1.281a.573.573,0,0,1,0,.811l-2.435,2.434a.573.573,0,0,1-.81,0l-1.884-1.88a.573.573,0,0,0-.824.8l.014.014,1.884,1.88a1.72,1.72,0,0,0,2.432,0l2.434-2.433a1.72,1.72,0,0,0,0-2.433l-1.277-1.279a.562.562,0,0,1-.111-.647,11.914,11.914,0,0,0,.647-1.555.56.56,0,0,1,.535-.378h1.8a1.72,1.72,0,0,0,1.72-1.72V13.764A1.72,1.72,0,0,0,113.695,12.043Z" transform="translate(-87.261)"/></g><g transform="translate(13.493 8.032)"><path class="b" d="M198.923,114.23a7.463,7.463,0,0,0-10.543,0,.573.573,0,0,0,.811.811,6.308,6.308,0,0,1,8.981,8.861l-.06.06a.573.573,0,0,0,.8.825l.014-.014A7.463,7.463,0,0,0,198.923,114.23Z" transform="translate(-188.219 -112.049)"/></g></g></svg>