<svg xmlns="http://www.w3.org/2000/svg" width="146.866" height="45.801" viewBox="0 0 146.866 45.801"><defs><style>.a{fill:#542970;}.b{fill:#5cad74;}.c{fill:#57ad76;}.d{fill:#fcfcfc;}.e{fill:#f7f7f7;}</style></defs><g transform="translate(0)"><g transform="translate(0)"><path class="a" d="M319.315,116.768l-8.417,2.838c-.112-.231-.226-.447-.324-.669-1.7-3.832-4.338-5.5-8.3-5.241a8.411,8.411,0,0,0-7.746,6.368c-1.066,4.04-.762,7.94,2.363,11.064,3.92,3.918,11.625,3.294,13.988-2.707.092-.233.212-.455.359-.767l8.274,2.758c-1.732,5.507-5.183,9.262-10.579,10.923-10.513,3.236-21.51-2.265-23.921-13.464-2.086-9.692,2.813-20.263,13.917-22.536,7.743-1.585,16.6,1.385,19.791,9.741C318.92,115.591,319.089,116.117,319.315,116.768Z" transform="translate(-227.66 -96.463)"/><path class="a" d="M93.749,115.064,85.982,116.8a6.711,6.711,0,0,0-9.232-4.188,3.315,3.315,0,0,0-2.376,3.059,2.975,2.975,0,0,0,2.477,2.8c2.248.564,4.573.844,6.79,1.5a22.032,22.032,0,0,1,5.936,2.38c6.507,4.3,6.14,13.459-.568,17.537a18.788,18.788,0,0,1-19.691-.871,10.4,10.4,0,0,1-4.467-7.619l3.988-.87,3.867-.839c1.659,4.579,5.918,6.505,10.256,4.767a3.183,3.183,0,0,0,2.214-2.9,2.722,2.722,0,0,0-2-2.857c-2.253-.706-4.553-1.268-6.849-1.828a17,17,0,0,1-7.559-3.442c-4.264-3.787-4.038-11.091.4-14.913,5.774-4.979,16.029-4.76,21.535.478A9.344,9.344,0,0,1,93.749,115.064Z" transform="translate(-64.851 -96.455)"/><path class="a" d="M209.987,144.856q.016,6.6.037,13.191c0,.514.084,1.027.11,1.541.152,2.97,2.125,3.9,4.509,3.831a29.046,29.046,0,0,0,4.889-.97c0,2.12.016,4.437-.02,6.754a1.194,1.194,0,0,1-.449.84c-3.651,2.491-12.177,2.7-15.844-1.506a9.3,9.3,0,0,1-2.439-5.982c-.113-5.853-.038-11.711-.038-17.666h9.276Z" transform="translate(-165.536 -126.054)"/><path class="a" d="M210.046,72.243v9.39h-9.208v-9.39Z" transform="translate(-165.626 -72.243)"/><path class="a" d="M236.548,118.481V109.22H246v9.226h-9.485Z" transform="translate(-192.068 -99.645)"/></g><g transform="translate(97.516 19.932)"><path class="b" d="M441.459,160.325c0-2.808-.009-5.616,0-8.423.01-2.4,1.1-3.187,3.307-2.2a2.593,2.593,0,0,0,2.191.118c5.931-2.177,10.954,1.761,10.488,8.2-.462,6.376-5.084,9.218-11.088,6.766-.96-.392-1.195-.047-1.212.776-.028,1.371-.067,2.744-.018,4.113s-.609,1.816-1.907,1.807c-1.25-.009-1.772-.511-1.76-1.753.031-3.134.01-6.269.01-9.4Z" transform="translate(-441.456 -149.219)"/><path class="c" d="M513.7,150.089c2.67-.009,5.344-.108,8.01-.006,3.774.143,5.122,1.605,5.152,5.368q.033,4.2-.007,8.4c-.007.746.248,1.749-.72,2.024s-2.162.582-2.931-.315c-.515-.6-.818-.69-1.4-.264-1.761,1.288-3.783,1.239-5.818,1.113-1.487-.737-2.876-1.587-3.416-3.3a4.725,4.725,0,0,1,3.829-6.452c1.665-.314,3.358-.482,5.036-.729.629-.093,1.446-.055,1.437-.969-.01-.974-.734-1.326-1.6-1.349-1.435-.037-2.872-.034-4.308-.038C513.568,153.573,513.568,153.575,513.7,150.089Z" transform="translate(-493.939 -149.825)"/><path class="c" d="M577.356,152.128c.158-.749-1.111-1.943.5-2.2,1.278-.205,2.784-.537,3.315,1.422.58,2.141,1.312,4.24,1.995,6.352.209.648.145,1.687.983,1.7.814.014.862-1.046,1.083-1.668a56.036,56.036,0,0,0,1.878-5.976c.418-1.786,1.517-2.042,3.044-1.913,1.115.094,1.314.631.98,1.578-2.084,5.912-4.1,11.85-6.274,17.729-.888,2.4-4.614,3.685-6.813,2.574-.915-.462-.665-1.323-.642-2.077.026-.846.616-1.044,1.343-1.084.9-.049,1.887.174,2.6-.569a2.7,2.7,0,0,0,.845-2.857c-1.606-4.341-2.895-8.8-4.849-13.013Z" transform="translate(-541.924 -149.627)"/><path class="d" d="M455.657,167.344c0-2.8,1.675-4.766,4.041-4.734a4.7,4.7,0,0,1,4.3,4.887c-.04,2.8-1.755,4.721-4.165,4.662C457.245,172.1,455.656,170.264,455.657,167.344Z" transform="translate(-451.98 -159.143)"/><path class="e" d="M530.207,189.136c-1.388-.037-2.481-.354-2.657-1.705-.182-1.4.864-1.928,2.014-2.166a24.511,24.511,0,0,1,3.081-.424c1.5-.115,2.05.669,1.391,2.024A4.274,4.274,0,0,1,530.207,189.136Z" transform="translate(-505.241 -175.609)"/></g></g></svg>