<svg xmlns="http://www.w3.org/2000/svg" width="151.073" height="45.801" viewBox="0 0 151.073 45.801"><defs><style>.a{fill:#3c58bf;}.b{fill:#293688;}.c{fill:#ffbc00;}.d{fill:#f7981d;}.e{fill:#ed7c00;}.f{fill:#051244;}</style></defs><g transform="translate(0)"><path class="a" d="M184.8,223.564l7.674-43.164h11.99l-7.434,43.164Z" transform="translate(-129.407 -178.961)"/><path class="b" d="M184.8,223.564l9.832-43.164h9.832l-7.434,43.164Z" transform="translate(-129.407 -178.961)"/><path class="a" d="M284.689,177.518a30.415,30.415,0,0,0-11.031-1.918c-11.99,0-20.623,5.995-20.623,14.628,0,6.475,5.995,9.832,10.791,11.99s6.235,3.6,6.235,5.515c0,2.878-3.837,4.316-7.194,4.316a26.064,26.064,0,0,1-11.51-2.4l-1.679-.719L248,218.764a38.882,38.882,0,0,0,13.668,2.4c12.709,0,21.1-5.995,21.1-15.107,0-5.036-3.117-8.873-10.311-11.99-4.316-2.158-6.954-3.357-6.954-5.515,0-1.918,2.158-3.837,6.954-3.837a22,22,0,0,1,9.112,1.679l1.2.48,1.918-9.352Z" transform="translate(-173.663 -175.6)"/><path class="b" d="M284.689,177.518a30.415,30.415,0,0,0-11.031-1.918c-11.99,0-18.464,5.995-18.464,14.628,0,6.475,3.837,9.832,8.633,11.99s6.235,3.6,6.235,5.515c0,2.878-3.837,4.316-7.194,4.316a26.064,26.064,0,0,1-11.51-2.4l-1.679-.719L248,218.764a38.882,38.882,0,0,0,13.668,2.4c12.709,0,21.1-5.995,21.1-15.107,0-5.036-3.117-8.873-10.311-11.99-4.316-2.158-6.954-3.357-6.954-5.515,0-1.918,2.158-3.837,6.954-3.837a22,22,0,0,1,9.112,1.679l1.2.48,1.918-9.352Z" transform="translate(-173.663 -175.6)"/><path class="a" d="M382.62,180.4c-2.878,0-5.036.24-6.235,3.117L358.4,223.564h12.949l2.4-7.194h15.347l1.439,7.194h11.51L391.972,180.4ZM377.1,209.176c.719-2.158,4.8-12.709,4.8-12.709s.959-2.638,1.679-4.316l.719,4.077s2.4,10.791,2.878,13.189H377.1Z" transform="translate(-250.97 -178.961)"/><path class="b" d="M385.5,180.4c-2.878,0-5.036.24-6.235,3.117L358.4,223.564h12.949l2.4-7.194h15.347l1.439,7.194h11.51L391.972,180.4ZM377.1,209.176c.959-2.4,4.8-12.709,4.8-12.709s.959-2.638,1.679-4.316l.719,4.077s2.4,10.791,2.878,13.189H377.1Z" transform="translate(-250.97 -178.961)"/><path class="a" d="M69.185,211.175l-1.2-6.235C65.828,197.746,58.874,189.833,51.2,186l10.791,38.368H74.94L94.364,181.2H81.415Z" transform="translate(-35.853 -179.521)"/><path class="b" d="M69.185,211.175l-1.2-6.235C65.828,197.746,58.874,189.833,51.2,186l10.791,38.368H74.94L94.364,181.2H83.813Z" transform="translate(-35.853 -179.521)"/><path class="c" d="M0,180.4l2.158.48c15.347,3.6,25.9,12.709,29.975,23.5L27.817,184c-.719-2.878-2.878-3.6-5.515-3.6Z" transform="translate(0 -178.961)"/><path class="d" d="M0,180.4H0c15.347,3.6,28.056,12.949,32.133,23.74l-4.077-17.026a5.853,5.853,0,0,0-5.755-4.556Z" transform="translate(0 -178.961)"/><path class="e" d="M0,180.4H0c15.347,3.6,28.056,12.949,32.133,23.74l-2.878-9.352c-.719-2.878-1.679-5.755-5.036-6.954Z" transform="translate(0 -178.961)"/><g transform="translate(15.587 6.235)"><path class="f" d="M81.735,220.38l-8.153-8.153-3.837,9.112-.959-5.995C66.628,208.15,59.674,200.237,52,196.4l10.791,38.368H75.74Z" transform="translate(-52 -196.4)"/><path class="f" d="M197.03,299.751,186.718,289.2,184.8,299.751Z" transform="translate(-144.994 -261.383)"/><path class="f" d="M268.862,274.8h0c.959.959,1.439,1.679,1.2,2.638,0,2.878-3.837,4.316-7.194,4.316a26.064,26.064,0,0,1-11.51-2.4l-1.679-.719L248,288.468a38.882,38.882,0,0,0,13.668,2.4c7.674,0,13.908-2.158,17.505-5.995Z" transform="translate(-189.25 -251.3)"/><path class="f" d="M364,251.014h11.271l2.4-7.194h15.347l1.439,7.194h11.51l-4.077-17.505L387.5,219.6l.719,3.837s2.4,10.791,2.878,13.189H381.026c.959-2.4,4.8-12.709,4.8-12.709s.959-2.638,1.679-4.316" transform="translate(-270.479 -212.646)"/></g></g></svg>