<svg xmlns="http://www.w3.org/2000/svg" width="34.727" height="34.675" viewBox="0 0 34.727 34.675"><defs><style>.a,.c{fill:#707070;}.a{stroke:#707070;stroke-width:0.5px;}.b{fill:#06958c;}</style></defs><g transform="translate(0.25 0.378)"><path class="a" d="M33.87,12.469l-3.811-9.9a3.635,3.635,0,0,0-4.7-2.082L25.28.519,6.237,8.407a3.614,3.614,0,0,0-2.01,4.625l.524,1.4h-1.2A3.552,3.552,0,0,0,0,17.976V30.744A3.552,3.552,0,0,0,3.549,34.29H27.685a3.552,3.552,0,0,0,3.549-3.547V17.976a3.484,3.484,0,0,0-.051-.574l.659-.267A3.644,3.644,0,0,0,33.87,12.469ZM3.549,15.564H27.685a2.409,2.409,0,0,1,2.4,2.27H1.15A2.409,2.409,0,0,1,3.549,15.564Zm5.708-3.418,3.8-1.9.78,1.95-3.8,1.9ZM30.1,30.744a2.415,2.415,0,0,1-2.414,2.412H3.549a2.415,2.415,0,0,1-2.414-2.412V23.508H30.1Zm0-8.37H1.136v-3.4H30.1Zm1.318-6.288-.593.24a3.551,3.551,0,0,0-3.138-1.9H11.91l2.9-1.449a.567.567,0,0,0,.274-.718l-1.2-3.008a.568.568,0,0,0-.738-.316l-.043.019L8.282,11.365a.567.567,0,0,0-.273.718l.939,2.346H5.963l-.672-1.792A2.484,2.484,0,0,1,6.672,9.459L25.714,1.571A2.5,2.5,0,0,1,28.975,2.92l.024.06,3.811,9.9A2.5,2.5,0,0,1,31.417,16.086Z" transform="translate(0 -0.243)"/><path class="b" d="M265.308,357.581a2.87,2.87,0,0,0,2.883,0,2.87,2.87,0,1,0,0-4.963,2.87,2.87,0,1,0-2.883,4.963Zm3.683-4.278a1.913,1.913,0,1,1,0,3.593A2.858,2.858,0,0,0,268.991,353.3Zm-.8.544a1.878,1.878,0,0,1,0,2.5A1.878,1.878,0,0,1,268.191,353.847Zm-1.435-.661a1.894,1.894,0,0,1,.635.117,2.858,2.858,0,0,0,0,3.593,1.91,1.91,0,1,1-.635-3.71Z" transform="translate(-246.082 -327.06)"/><rect class="c" width="1.002" height="4.448" transform="translate(21.584 9.538) rotate(-113.966)"/><rect class="b" width="7.188" height="1.001" transform="matrix(0.908, -0.419, 0.419, 0.908, 19.341, 6.938)"/></g></svg>