<svg xmlns="http://www.w3.org/2000/svg" xmlns:xlink="http://www.w3.org/1999/xlink" viewBox="15 12 19.35 16.58">
  <defs>
    <linearGradient id="linear-gradient" x1="0.5" x2="0.5" y2="1" gradientUnits="objectBoundingBox">
      <stop offset="0" stop-color="#48dbe1"/>
      <stop offset="1" stop-color="#4166cd"/>
      <stop offset="1" stop-color="#236b73"/>
    </linearGradient>
    <filter id="Path_13166" x="0" y="0" width="46.581" height="46.581" filterUnits="userSpaceOnUse">
      <feOffset dy="3" input="SourceAlpha"/>
      <feGaussianBlur stdDeviation="5" result="blur"/>
      <feFlood flood-opacity="0.09"/>
      <feComposite operator="in" in2="blur"/>
      <feComposite in="SourceGraphic"/>
    </filter>
    <filter id="Path_13167" x="9.672" y="2.76" width="39.676" height="39.676" filterUnits="userSpaceOnUse">
      <feOffset dy="3" input="SourceAlpha"/>
      <feGaussianBlur stdDeviation="5" result="blur-2"/>
      <feFlood flood-opacity="0.09"/>
      <feComposite operator="in" in2="blur-2"/>
      <feComposite in="SourceGraphic"/>
    </filter>
  </defs>
  <g id="filter-edit" transform="translate(15 12)">
    <g transform="matrix(1, 0, 0, 1, -15, -12)" filter="url(#Path_13166)">
      <path id="Path_13166-2" data-name="Path 13166" d="M18.831,5.882H3.632v2.19L8.751,13.2l.408.4v6.1h2.764V18.318H13.3V19.7a1.382,1.382,0,0,1-1.382,1.382H9.159A1.382,1.382,0,0,1,7.777,19.7V14.172L2.658,9.053a1.382,1.382,0,0,1-.408-.981V5.882A1.382,1.382,0,0,1,3.632,4.5h15.2Z" transform="translate(12.75 7.5)" fill="url(#linear-gradient)"/>
    </g>
    <g transform="matrix(1, 0, 0, 1, -15, -12)" filter="url(#Path_13167)">
      <path id="Path_13167-2" data-name="Path 13167" d="M27.472,11.27,25.4,9.2a.691.691,0,0,0-.981,0L18,15.623V18.67h3.047l6.426-6.418a.691.691,0,0,0,0-.981ZM20.48,17.288h-1.1v-1.1l3.454-3.454,1.1,1.1Zm4.428-4.428-1.1-1.1,1.1-1.1,1.1,1.1Z" transform="translate(6.67 5.77)" fill="url(#linear-gradient)"/>
    </g>
  </g>
</svg>