<svg xmlns="http://www.w3.org/2000/svg" width="23.215" height="19.321" viewBox="0 0 23.215 19.321">
  <g id="folder-symlink" transform="translate(-0.427 -2.25)">
    <path id="Path_44243" data-name="Path 44243" d="M14.988,6.709A4.459,4.459,0,0,1,11.838,5.4L10.6,4.172a1.486,1.486,0,0,0-1.048-.435H4.1A1.486,1.486,0,0,0,2.611,5.194l.068,1.514H1.193L1.125,5.222A2.972,2.972,0,0,1,4.1,2.25H9.555a2.972,2.972,0,0,1,2.1.871l1.231,1.231a2.972,2.972,0,0,0,2.1.871Z" transform="translate(-0.237 0)" fill="#4184ce"/>
    <path id="Path_44244" data-name="Path 44244" d="M20.67,8.236H3.4a1.486,1.486,0,0,0-1.48,1.62l.947,10.4a1.486,1.486,0,0,0,1.479,1.352H19.725A1.486,1.486,0,0,0,21.2,20.26l.947-10.4a1.486,1.486,0,0,0-1.48-1.62ZM3.4,6.75A2.972,2.972,0,0,0,.44,9.991l.947,10.4a2.972,2.972,0,0,0,2.959,2.7H19.725a2.972,2.972,0,0,0,2.959-2.7l.947-10.4A2.972,2.972,0,0,0,20.67,6.75Z" transform="translate(0 -1.528)" fill="#4184ce" fill-rule="evenodd"/>
    <path id="Path_44245" data-name="Path 44245" d="M15.86,19.42l4.729-2.926a.659.659,0,0,0,0-1.1L15.86,12.463a.609.609,0,0,0-.916.553v1.143c-1.274,0-5.1,0-5.945,7.134a6.23,6.23,0,0,1,5.945-3.567v1.143a.608.608,0,0,0,.916.552Z" transform="translate(-2.91 -3.437)" fill="#4184ce"/>
  </g>
</svg>
