<svg xmlns="http://www.w3.org/2000/svg" xmlns:xlink="http://www.w3.org/1999/xlink" viewBox="15 12.02 16.97 16.95">
  <defs>
    <linearGradient id="linear-gradient" x1="0.5" x2="0.5" y2="1" gradientUnits="objectBoundingBox">
      <stop offset="0" stop-color="#48dbe1"/>
      <stop offset="1" stop-color="#4166cd"/>
      <stop offset="1" stop-color="#236b73"/>
    </linearGradient>
    <filter id="Path_13164" x="0" y="0" width="46.969" height="46.969" filterUnits="userSpaceOnUse">
      <feOffset dy="3" input="SourceAlpha"/>
      <feGaussianBlur stdDeviation="5" result="blur"/>
      <feFlood flood-opacity="0.09"/>
      <feComposite operator="in" in2="blur"/>
      <feComposite in="SourceGraphic"/>
    </filter>
    <filter id="Path_13165" x="4.693" y="3.663" width="36.192" height="33.594" filterUnits="userSpaceOnUse">
      <feOffset dy="3" input="SourceAlpha"/>
      <feGaussianBlur stdDeviation="5" result="blur-2"/>
      <feFlood flood-opacity="0.09"/>
      <feComposite operator="in" in2="blur-2"/>
      <feComposite in="SourceGraphic"/>
    </filter>
  </defs>
  <g id="bx-search-alt" transform="translate(12 9)">
    <g transform="matrix(1, 0, 0, 1, -12, -9)" filter="url(#Path_13164)">
      <path id="Path_13164-2" data-name="Path 13164" d="M10.257,17.513a7.212,7.212,0,0,0,4.441-1.53l3.988,3.987,1.283-1.283L15.981,14.7a7.248,7.248,0,1,0-5.725,2.814Zm0-12.7a5.442,5.442,0,1,1-5.442,5.442A5.448,5.448,0,0,1,10.257,4.814Z" transform="translate(12 9)" fill="url(#linear-gradient)"/>
    </g>
    <g transform="matrix(1, 0, 0, 1, -12, -9)" filter="url(#Path_13165)">
      <path id="Path_13165-2" data-name="Path 13165" d="M14.605,11.368a1.8,1.8,0,0,1,.533,1.283h1.814a3.607,3.607,0,0,0-1.065-2.565,3.708,3.708,0,0,0-5.127,0l1.281,1.284A1.854,1.854,0,0,1,14.605,11.368Z" transform="translate(8.93 6.61)" fill="url(#linear-gradient)"/>
    </g>
  </g>
</svg>